<svg width="318" height="204" viewBox="0 0 318 204" fill="none" xmlns="http://www.w3.org/2000/svg">
<path d="M295.014 3.49414H234.97V131.997H295.014V3.49414Z" fill="white"/>
<path d="M295.014 132.491H234.97C234.832 132.491 234.7 132.443 234.602 132.359C234.504 132.275 234.449 132.161 234.449 132.042V3.4946C234.449 3.37573 234.504 3.26172 234.602 3.17767C234.7 3.09361 234.832 3.04639 234.97 3.04639H295.014C295.152 3.04639 295.285 3.09361 295.382 3.17767C295.48 3.26172 295.535 3.37573 295.535 3.4946V132.007C295.541 132.068 295.532 132.131 295.508 132.189C295.484 132.248 295.447 132.301 295.398 132.347C295.349 132.392 295.29 132.429 295.224 132.453C295.158 132.478 295.086 132.491 295.014 132.491ZM235.491 131.594H294.493V3.94281H235.491V131.594Z" fill="#D1D3D4"/>
<path d="M228.273 3.49414H168.229V131.997H228.273V3.49414Z" fill="white"/>
<path d="M228.273 132.491H168.229C168.091 132.491 167.958 132.443 167.861 132.359C167.763 132.275 167.708 132.161 167.708 132.042V3.4946C167.708 3.37573 167.763 3.26172 167.861 3.17767C167.958 3.09361 168.091 3.04639 168.229 3.04639H228.273C228.411 3.04639 228.544 3.09361 228.641 3.17767C228.739 3.26172 228.794 3.37573 228.794 3.4946V132.007C228.8 132.068 228.79 132.131 228.767 132.189C228.743 132.248 228.706 132.301 228.657 132.347C228.608 132.392 228.548 132.429 228.482 132.453C228.416 132.478 228.345 132.491 228.273 132.491ZM168.75 131.594H227.752V3.94281H168.75V131.594Z" fill="#D1D3D4"/>
<path d="M161.532 3.49414H101.488V131.997H161.532V3.49414Z" fill="white"/>
<path d="M161.542 132.491H101.488C101.351 132.488 101.22 132.44 101.123 132.357C101.026 132.273 100.97 132.161 100.967 132.042V3.4946C100.97 3.37645 101.026 3.26377 101.123 3.18021C101.22 3.09664 101.351 3.04868 101.488 3.04639H161.542C161.68 3.04868 161.811 3.09664 161.908 3.18021C162.005 3.26377 162.061 3.37645 162.063 3.4946V132.007C162.067 132.068 162.057 132.13 162.033 132.188C162.009 132.246 161.971 132.299 161.923 132.344C161.874 132.389 161.815 132.426 161.75 132.451C161.685 132.476 161.614 132.49 161.542 132.491ZM102.009 131.594H161.022V3.94282H102.009V131.594Z" fill="#D1D3D4"/>
<path d="M94.8016 3.49414H34.7576V131.997H94.8016V3.49414Z" fill="white"/>
<path d="M94.8016 132.491H34.7576C34.6195 132.491 34.487 132.443 34.3893 132.359C34.2917 132.275 34.2368 132.161 34.2368 132.042V3.4946C34.2368 3.37573 34.2917 3.26172 34.3893 3.17767C34.487 3.09361 34.6195 3.04639 34.7576 3.04639H94.8016C94.9397 3.04639 95.0722 3.09361 95.1698 3.17767C95.2675 3.26172 95.3224 3.37573 95.3224 3.4946V132.007C95.3281 132.068 95.3189 132.131 95.2953 132.189C95.2718 132.248 95.2343 132.301 95.1854 132.347C95.1364 132.392 95.077 132.429 95.011 132.453C94.9449 132.478 94.8736 132.491 94.8016 132.491ZM35.2783 131.594H94.2808V3.94281H35.2783V131.594Z" fill="#D1D3D4"/>
<path d="M195.278 46.5316C195.137 46.5313 195.002 46.483 194.903 46.3972C194.807 46.3119 194.753 46.1977 194.753 46.0789C194.753 45.9601 194.807 45.846 194.903 45.7607L219.472 25.3042C219.52 25.2625 219.577 25.2293 219.639 25.2067C219.702 25.184 219.769 25.1724 219.837 25.1724C219.905 25.1724 219.972 25.184 220.035 25.2067C220.097 25.2293 220.154 25.2625 220.201 25.3042C220.25 25.3459 220.289 25.3954 220.315 25.4501C220.342 25.5047 220.355 25.5633 220.355 25.6224C220.355 25.6816 220.342 25.7402 220.315 25.7948C220.289 25.8494 220.25 25.899 220.201 25.9407L195.642 46.433C195.592 46.4697 195.534 46.4973 195.472 46.5142C195.409 46.5311 195.343 46.5371 195.278 46.5316Z" fill="#D1D3D4"/>
<path d="M122.006 44.3983C121.902 44.3988 121.8 44.3725 121.714 44.3228C121.627 44.273 121.56 44.202 121.521 44.1191C121.481 44.0361 121.472 43.9449 121.493 43.8573C121.515 43.7696 121.567 43.6895 121.642 43.6274L146.201 23.126C146.249 23.0802 146.307 23.0433 146.372 23.0178C146.437 22.9923 146.508 22.9786 146.58 22.9776C146.651 22.9766 146.722 22.9884 146.789 23.0121C146.855 23.0359 146.914 23.0711 146.964 23.1156C147.014 23.1601 147.052 23.213 147.077 23.2709C147.101 23.3287 147.112 23.3904 147.108 23.4519C147.104 23.5135 147.085 23.5736 147.052 23.6286C147.02 23.6836 146.975 23.7322 146.919 23.7715L122.36 44.2728C122.266 44.3526 122.139 44.3976 122.006 44.3983Z" fill="#D1D3D4"/>
<path d="M190.664 66.7823C190.559 66.7811 190.457 66.7529 190.372 66.7014C190.286 66.6498 190.22 66.5772 190.183 66.493C190.146 66.4089 190.139 66.3171 190.164 66.2296C190.188 66.1421 190.243 66.0629 190.32 66.0024L210.296 50.3955C210.402 50.3312 210.532 50.3025 210.661 50.3148C210.79 50.327 210.909 50.3794 210.996 50.4621C211.083 50.5448 211.132 50.652 211.134 50.7636C211.135 50.8752 211.089 50.9834 211.005 51.0679L191.018 66.6657C190.921 66.7415 190.795 66.7831 190.664 66.7823Z" fill="#D1D3D4"/>
<path d="M248.333 32.9865C248.252 32.9858 248.173 32.9693 248.1 32.9383C248.028 32.9072 247.965 32.8624 247.916 32.8072C247.833 32.7121 247.798 32.5926 247.817 32.4749C247.837 32.3572 247.91 32.2511 248.02 32.1797L273.913 15.4793C274.023 15.408 274.162 15.3773 274.299 15.3942C274.436 15.411 274.559 15.4738 274.642 15.5689C274.722 15.6648 274.756 15.7838 274.737 15.9007C274.717 16.0177 274.646 16.1237 274.538 16.1964L248.645 32.87C248.56 32.9385 248.449 32.9796 248.333 32.9865Z" fill="#D1D3D4"/>
<path d="M126.349 82.2281C126.274 82.2299 126.2 82.2171 126.131 82.1907C126.063 82.1643 126.002 82.125 125.953 82.0757C125.905 82.0348 125.866 81.9859 125.84 81.9321C125.814 81.8782 125.8 81.8203 125.8 81.7619C125.8 81.7035 125.814 81.6456 125.84 81.5917C125.866 81.5379 125.905 81.4891 125.953 81.4482L146.138 66.2896C146.243 66.2171 146.376 66.1822 146.509 66.1921C146.643 66.2019 146.767 66.2558 146.856 66.3425C146.945 66.4292 146.991 66.542 146.985 66.6574C146.98 66.7728 146.922 66.8819 146.826 66.9619L126.641 82.1205C126.558 82.1797 126.456 82.217 126.349 82.2281Z" fill="#D1D3D4"/>
<path d="M261.279 63.9581C261.197 63.9586 261.116 63.9417 261.043 63.9088C260.971 63.876 260.909 63.8283 260.862 63.7699C260.78 63.6748 260.744 63.5553 260.764 63.4376C260.783 63.3199 260.856 63.2137 260.967 63.1424L276.798 53.1921C276.853 53.1573 276.916 53.1323 276.983 53.1185C277.049 53.1047 277.118 53.1022 277.186 53.1114C277.254 53.1206 277.319 53.1411 277.377 53.1719C277.436 53.2026 277.487 53.243 277.527 53.2907C277.567 53.3383 277.596 53.3924 277.612 53.4497C277.628 53.5071 277.631 53.5666 277.621 53.6248C277.61 53.6831 277.586 53.739 277.55 53.7893C277.515 53.8397 277.468 53.8834 277.412 53.9182L261.581 63.8685C261.496 63.9279 261.389 63.9596 261.279 63.9581Z" fill="#D1D3D4"/>
<path d="M46.006 22.7313C45.9175 22.732 45.8304 22.7124 45.7535 22.6746C45.6767 22.6368 45.6129 22.5822 45.5686 22.5162C45.5325 22.4669 45.5081 22.4119 45.497 22.3544C45.4858 22.2969 45.488 22.2381 45.5036 22.1813C45.5191 22.1246 45.5475 22.0711 45.5873 22.0239C45.6271 21.9768 45.6774 21.9369 45.7352 21.9066L64.4827 12.0997C64.6015 12.0378 64.744 12.0192 64.8787 12.0477C65.0135 12.0763 65.1296 12.1498 65.2014 12.252C65.2732 12.3543 65.2949 12.4769 65.2617 12.5929C65.2285 12.7089 65.1431 12.8088 65.0243 12.8706L46.2768 22.6686C46.1954 22.7113 46.1014 22.7331 46.006 22.7313Z" fill="#D1D3D4"/>
<path d="M181.863 23.933C181.791 23.934 181.719 23.9217 181.652 23.897C181.586 23.8723 181.526 23.8357 181.478 23.7896C181.429 23.7479 181.39 23.6984 181.364 23.6438C181.337 23.5891 181.323 23.5305 181.323 23.4714C181.323 23.4122 181.337 23.3536 181.364 23.299C181.39 23.2444 181.429 23.1948 181.478 23.1531L191.966 14.9688C192.013 14.927 192.07 14.8939 192.133 14.8712C192.195 14.8486 192.262 14.8369 192.33 14.8369C192.398 14.8369 192.465 14.8486 192.528 14.8712C192.591 14.8939 192.647 14.927 192.695 14.9688C192.744 15.0104 192.782 15.06 192.809 15.1146C192.835 15.1692 192.849 15.2278 192.849 15.287C192.849 15.3462 192.835 15.4047 192.809 15.4594C192.782 15.514 192.744 15.5635 192.695 15.6052L182.227 23.7806C182.182 23.8257 182.126 23.8624 182.063 23.8886C182 23.9148 181.932 23.9299 181.863 23.933Z" fill="#D1D3D4"/>
<path d="M317.115 173.062H16.3328C16.1947 173.062 16.0622 173.015 15.9645 172.931C15.8669 172.847 15.812 172.733 15.812 172.614C15.812 172.495 15.8669 172.381 15.9645 172.297C16.0622 172.213 16.1947 172.166 16.3328 172.166H317.115C317.253 172.166 317.386 172.213 317.483 172.297C317.581 172.381 317.636 172.495 317.636 172.614C317.636 172.733 317.581 172.847 317.483 172.931C317.386 173.015 317.253 173.062 317.115 173.062Z" fill="#D1D3D4"/>
<path d="M286.817 69.7403C283.516 68.6646 223.815 65.9215 220.16 69.7403C208.797 81.609 210.171 115.682 210.171 115.682L281.86 111.998C281.86 111.998 290.129 70.7801 286.817 69.7403Z" fill="white"/>
<path d="M210.171 116.103C210.108 116.105 210.045 116.095 209.986 116.075C209.927 116.055 209.873 116.025 209.828 115.987C209.724 115.905 209.661 115.793 209.651 115.673C209.499 109.475 209.746 103.274 210.39 97.0992C211.827 83.7245 214.983 74.4196 219.764 69.4264C223.701 65.3029 283.537 68.1714 287.005 69.292C287.796 69.5519 289.463 70.0898 286.099 91.2993C284.463 101.617 282.401 111.917 282.38 112.043C282.359 112.143 282.299 112.233 282.21 112.3C282.121 112.367 282.009 112.406 281.891 112.41L210.203 116.103H210.171ZM242.823 68.2163C231.366 68.2163 221.826 68.6824 220.566 70.0091C210.15 80.8649 210.577 111.092 210.682 115.189L281.422 111.55C285.318 92.0613 288.317 71.3448 286.63 70.1346C284.266 69.3906 261.102 68.2163 242.823 68.2163Z" fill="#D1D3D4"/>
<path d="M281.86 71.9634C281.86 71.9634 271.392 74.3031 269.195 111.066L281.86 71.9634Z" fill="white"/>
<path d="M269.195 111.514C269.126 111.51 269.059 111.495 268.998 111.47C268.936 111.444 268.881 111.408 268.835 111.364C268.79 111.32 268.755 111.268 268.733 111.212C268.71 111.157 268.701 111.098 268.705 111.039C270.903 74.3747 281.318 71.5958 281.766 71.524C281.834 71.5093 281.905 71.5064 281.975 71.5153C282.045 71.5242 282.112 71.5449 282.172 71.5761C282.233 71.6073 282.285 71.6485 282.327 71.6972C282.369 71.746 282.4 71.8013 282.417 71.8602C282.434 71.9191 282.437 71.9803 282.427 72.0403C282.417 72.1003 282.393 72.1579 282.356 72.21C282.32 72.262 282.272 72.3074 282.216 72.3435C282.159 72.3796 282.095 72.4058 282.026 72.4205C281.891 72.4205 271.882 75.4504 269.747 111.11C269.731 111.225 269.665 111.331 269.563 111.406C269.46 111.48 269.329 111.519 269.195 111.514Z" fill="#D1D3D4"/>
<path d="M311.533 99.8691H112.664V107.184H311.533V99.8691Z" fill="white"/>
<path d="M311.543 107.642H112.664C112.526 107.639 112.395 107.591 112.298 107.508C112.201 107.424 112.145 107.312 112.143 107.193V99.8696C112.145 99.7514 112.201 99.6388 112.298 99.5552C112.395 99.4716 112.526 99.4237 112.664 99.4214H311.595C311.732 99.4237 311.863 99.4716 311.96 99.5552C312.058 99.6388 312.113 99.7514 312.116 99.8696V107.193C312.115 107.256 312.099 107.317 312.069 107.374C312.039 107.431 311.996 107.482 311.942 107.524C311.888 107.566 311.825 107.598 311.757 107.618C311.688 107.639 311.615 107.647 311.543 107.642ZM113.184 106.745H311.074V100.318H113.184V106.745Z" fill="#D1D3D4"/>
<path d="M307.502 107.193H116.715V184.035H307.502V107.193Z" fill="white"/>
<path d="M307.492 184.483H116.715C116.577 184.483 116.445 184.436 116.347 184.352C116.249 184.268 116.194 184.154 116.194 184.035V107.193C116.194 107.074 116.249 106.96 116.347 106.876C116.445 106.792 116.577 106.745 116.715 106.745H307.492C307.63 106.745 307.762 106.792 307.86 106.876C307.957 106.96 308.012 107.074 308.012 107.193V184.035C308.012 184.154 307.957 184.268 307.86 184.352C307.762 184.436 307.63 184.483 307.492 184.483ZM117.236 183.587H306.971V107.642H117.236V183.587Z" fill="#D1D3D4"/>
<path d="M188.476 99.8691H144.128L147.982 88.6279H192.33L188.476 99.8691Z" fill="white"/>
<path d="M188.476 100.317H144.128C144.047 100.319 143.967 100.303 143.894 100.272C143.822 100.241 143.759 100.195 143.712 100.138C143.663 100.083 143.63 100.018 143.616 99.9494C143.601 99.881 143.606 99.8105 143.628 99.7437L147.482 88.5025C147.515 88.4101 147.581 88.3291 147.671 88.2712C147.761 88.2132 147.87 88.1812 147.982 88.1798H192.33C192.411 88.1783 192.492 88.1939 192.564 88.2251C192.637 88.2563 192.699 88.3023 192.747 88.3591C192.798 88.4137 192.832 88.4783 192.846 88.5472C192.861 88.6161 192.855 88.687 192.83 88.7535L188.976 99.9947C188.946 100.089 188.881 100.171 188.79 100.23C188.7 100.288 188.589 100.319 188.476 100.317ZM144.826 99.421H188.081L191.632 89.0762H148.378L144.826 99.421Z" fill="#D1D3D4"/>
<path d="M192.33 88.6279L195.913 99.8691H188.477L192.33 88.6279Z" fill="#D1D3D4"/>
<path d="M195.913 100.317H188.476C188.395 100.319 188.315 100.303 188.242 100.272C188.17 100.241 188.107 100.195 188.06 100.138C188.009 100.083 187.975 100.019 187.96 99.9499C187.945 99.881 187.951 99.8101 187.976 99.7436L191.83 88.5024C191.869 88.4114 191.938 88.3322 192.029 88.2748C192.119 88.2174 192.228 88.1843 192.34 88.1797C192.453 88.1807 192.562 88.2138 192.651 88.2738C192.739 88.3338 192.802 88.4173 192.83 88.5114L196.413 99.7525C196.436 99.8189 196.44 99.8889 196.426 99.957C196.411 100.025 196.378 100.089 196.33 100.144C196.281 100.199 196.218 100.244 196.145 100.274C196.073 100.304 195.993 100.319 195.913 100.317ZM189.174 99.4209H195.225L192.309 90.2683L189.174 99.4209Z" fill="#D1D3D4"/>
<path d="M86.2923 109.551C85.9434 110.552 85.4684 111.516 84.8758 112.428C84.2228 113.472 83.3256 114.387 82.2408 115.118C80.4702 116.265 77.2727 116.758 75.9916 114.75C75.6066 114.056 75.4039 113.297 75.3979 112.527C75.3979 107.292 76.8144 101.77 77.481 96.4898C77.49 96.2686 77.5539 96.0516 77.6685 95.8534C77.8468 95.6404 78.0827 95.4681 78.3559 95.3514L83.6989 92.6621C84.855 98.4979 88.3546 103.572 86.2923 109.551Z" fill="white"/>
<path d="M78.8661 116.624C78.5443 116.625 78.2233 116.598 77.9079 116.543C77.4048 116.455 76.9303 116.273 76.5181 116.009C76.106 115.746 75.7661 115.408 75.5228 115.019C75.0989 114.263 74.8714 113.437 74.8562 112.599C74.9591 109.113 75.3524 105.637 76.0331 102.2C76.3456 100.317 76.6789 98.3722 76.8976 96.4897C76.8908 96.1721 76.9955 95.8602 77.1981 95.5947C77.4006 95.3292 77.6916 95.1225 78.0329 95.0016L83.3655 92.3123C83.4396 92.2731 83.5237 92.2502 83.6106 92.2455C83.6974 92.2409 83.7842 92.2546 83.8634 92.2856C83.9426 92.3166 84.0117 92.3638 84.0648 92.4232C84.1178 92.4826 84.153 92.5522 84.1674 92.6261C84.5616 94.3274 85.0623 96.0091 85.6672 97.664C87.0212 101.635 88.2919 105.382 86.8025 109.685C86.4465 110.721 85.9574 111.719 85.3444 112.661C84.6591 113.778 83.7122 114.761 82.5635 115.548C81.4917 116.23 80.1988 116.606 78.8661 116.624ZM83.2613 93.4239L78.5744 95.7994C78.3842 95.8808 78.2144 95.9935 78.0745 96.1311C78.0041 96.2758 77.9687 96.4314 77.9704 96.5883C77.7412 98.4798 77.4184 100.434 77.0955 102.325C76.4269 105.713 76.0371 109.137 75.929 112.572C75.9402 113.267 76.1249 113.951 76.4706 114.58C76.6381 114.852 76.875 115.089 77.1635 115.272C77.452 115.455 77.7847 115.58 78.137 115.637C78.8006 115.724 79.4777 115.693 80.1274 115.549C80.7771 115.404 81.3861 115.147 81.9177 114.795C82.953 114.091 83.8017 113.204 84.407 112.195C84.9825 111.316 85.4402 110.384 85.7714 109.416C87.1774 105.373 85.938 101.752 84.6361 97.915C84.1362 96.4628 83.6467 94.9747 83.2613 93.4239Z" fill="#231F20"/>
<path d="M86.5735 116.525H69.0654C68.9273 116.525 68.7949 116.478 68.6972 116.394C68.5995 116.31 68.5447 116.196 68.5447 116.077V113.388C68.5447 112.112 69.1325 110.889 70.1791 109.987C71.2258 109.084 72.6457 108.576 74.1273 108.574H81.5637C83.0453 108.576 84.4652 109.084 85.5119 109.987C86.5585 110.889 87.1463 112.112 87.1463 113.388V116.077C87.1467 116.14 87.1317 116.202 87.1023 116.259C87.073 116.317 87.0299 116.368 86.9759 116.411C86.9219 116.453 86.8581 116.485 86.7888 116.505C86.7195 116.524 86.6461 116.531 86.5735 116.525ZM69.5862 115.629H86.0423V113.379C86.0423 112.344 85.5653 111.351 84.7159 110.618C83.8666 109.885 82.7142 109.473 81.5117 109.47H74.1168C72.9143 109.473 71.7619 109.885 70.9126 110.618C70.0632 111.351 69.5862 112.344 69.5862 113.379V115.629Z" fill="white"/>
<path d="M81.5635 108.556C83.0451 108.558 84.465 109.066 85.5116 109.969C86.5583 110.871 87.1461 112.094 87.1461 113.369V116.059C87.1461 116.178 87.0912 116.292 86.9936 116.376C86.8959 116.46 86.7635 116.507 86.6254 116.507H69.0652C68.9271 116.507 68.7946 116.46 68.697 116.376C68.5993 116.292 68.5445 116.178 68.5445 116.059V113.369C68.5445 112.094 69.1323 110.871 70.1789 109.969C71.2256 109.066 72.6455 108.558 74.127 108.556H81.5635ZM69.6381 115.62H86.0942V113.369C86.0942 112.334 85.6172 111.342 84.7678 110.609C83.9185 109.876 82.7661 109.463 81.5635 109.461H74.1687C72.9661 109.463 71.8138 109.876 70.9644 110.609C70.1151 111.342 69.6381 112.334 69.6381 113.369V115.62ZM81.5635 107.632H74.1687C72.4017 107.635 70.7078 108.24 69.4583 109.315C68.2089 110.391 67.5057 111.849 67.5029 113.369V116.059C67.5057 116.423 67.6759 116.772 67.9764 117.029C68.2769 117.286 68.6833 117.43 69.1069 117.43H86.6254C87.049 117.43 87.4553 117.286 87.7558 117.029C88.0564 116.772 88.2266 116.423 88.2293 116.059V113.369C88.2265 111.849 87.5234 110.391 86.2739 109.315C85.0244 108.24 83.3306 107.635 81.5635 107.632ZM70.7108 114.696V113.369C70.7108 112.58 71.0751 111.823 71.7236 111.265C72.3721 110.707 73.2516 110.393 74.1687 110.393H81.5635C82.4806 110.393 83.3601 110.707 84.0086 111.265C84.6571 111.823 85.0214 112.58 85.0214 113.369V114.696H70.7108Z" fill="#231F20"/>
<path d="M84.3446 107.982C83.3784 110.129 81.574 111.919 79.2411 113.046C79.1082 113.134 78.9526 113.193 78.7876 113.218C78.6226 113.243 78.4531 113.233 78.2933 113.19C77.8559 112.984 77.9601 112.428 78.1371 112.033C78.7656 110.624 79.6248 109.299 80.6889 108.098C80.6889 108.098 77.6997 105.75 79.3349 103.876" fill="white"/>
<path d="M78.5641 113.665C78.3826 113.669 78.2031 113.632 78.0434 113.557C77.4393 113.28 77.2831 112.661 77.6372 111.827C78.2288 110.506 79.0164 109.255 79.9806 108.107C79.1786 107.354 77.356 105.337 78.9391 103.562C79.0247 103.465 79.1518 103.401 79.2925 103.384C79.4331 103.367 79.5757 103.399 79.689 103.473C79.8022 103.546 79.8768 103.656 79.8964 103.777C79.9159 103.898 79.8788 104.021 79.7931 104.118C78.4808 105.633 81.0534 107.704 81.0742 107.704C81.1755 107.781 81.2392 107.889 81.2527 108.005C81.2662 108.122 81.2285 108.238 81.1471 108.331C80.1175 109.495 79.2831 110.777 78.6683 112.141C78.5618 112.321 78.5288 112.526 78.5745 112.724C78.5745 112.724 78.6683 112.724 79.012 112.589C81.2312 111.515 82.9471 109.81 83.8655 107.767C83.9168 107.651 84.0191 107.558 84.1499 107.508C84.2807 107.458 84.4294 107.454 84.5633 107.498C84.6292 107.519 84.6896 107.55 84.7411 107.592C84.7925 107.633 84.8339 107.682 84.863 107.737C84.892 107.792 84.9081 107.852 84.9103 107.912C84.9125 107.973 84.9008 108.033 84.8758 108.089C83.8633 110.335 81.9791 112.21 79.5432 113.396C79.2507 113.56 78.9126 113.652 78.5641 113.665Z" fill="#231F20"/>
<path d="M105.956 115.037H49.6825C47.094 115.037 44.9956 116.843 44.9956 119.071V147.532C44.9956 149.76 47.094 151.566 49.6825 151.566H105.956C108.545 151.566 110.643 149.76 110.643 147.532V119.071C110.643 116.843 108.545 115.037 105.956 115.037Z" fill="white"/>
<path d="M105.946 152.033H49.7035C48.3223 152.033 46.9977 151.561 46.0211 150.72C45.0445 149.879 44.4958 148.739 44.4958 147.551V119.044C44.4958 117.855 45.0445 116.715 46.0211 115.875C46.9977 115.034 48.3223 114.562 49.7035 114.562H105.946C107.327 114.562 108.652 115.034 109.628 115.875C110.605 116.715 111.154 117.855 111.154 119.044V147.497C111.162 148.09 111.033 148.679 110.775 149.229C110.517 149.779 110.135 150.279 109.651 150.701C109.166 151.123 108.589 151.458 107.953 151.686C107.317 151.915 106.635 152.033 105.946 152.033ZM49.7035 115.503C48.5986 115.503 47.5389 115.881 46.7576 116.553C45.9763 117.226 45.5374 118.138 45.5374 119.089V147.542C45.5374 148.493 45.9763 149.405 46.7576 150.077C47.5389 150.75 48.5986 151.127 49.7035 151.127H105.946C107.051 151.127 108.11 150.75 108.892 150.077C109.673 149.405 110.112 148.493 110.112 147.542V119.044C110.112 118.093 109.673 117.181 108.892 116.509C108.11 115.836 107.051 115.458 105.946 115.458L49.7035 115.503Z" fill="#231F20"/>
<path d="M83.1366 38.1681C83.1366 38.1681 85.3967 87.9826 88.8545 98.426L75.3147 102.908C75.3147 102.908 72.1901 49.3645 74.7835 43.6094C77.3769 37.8543 83.1366 38.1681 83.1366 38.1681Z" fill="#C3CBBD"/>
<path d="M31.2474 97.8703L28.1228 187.083C28.1228 187.083 30.2059 189.288 37.0279 189.288C43.8499 189.288 46.1516 186.321 46.1516 186.321L57.1085 119.752C57.1085 119.752 69.1902 176.388 70.0443 185.272C70.0443 185.272 80.4596 188.105 86.1984 184.16C86.1984 184.16 80.1783 130.922 80.0221 115.889C79.8355 105.905 79.0603 95.9356 77.6995 86.0195H33.5387L31.2474 97.8703Z" fill="#231F20"/>
<path d="M73.4606 90.4748L33.5388 93.1641C34.747 83.638 36.0558 74.1239 37.4654 64.6218C38.7881 55.7382 38.736 45.4293 44.9956 37.8186C47.7765 34.4301 53.1612 30.2169 58.2751 31.2388C63.2119 32.2249 68.9507 35.6672 73.4606 37.7917V90.4748Z" fill="white"/>
<path d="M33.5391 93.6477C33.4642 93.6468 33.3904 93.6325 33.3223 93.6058C33.2542 93.5791 33.1933 93.5405 33.1434 93.4925C33.0934 93.4445 33.0556 93.3881 33.0323 93.3268C33.009 93.2656 33.0007 93.2009 33.0079 93.1368C34.2369 83.4195 35.5492 73.8098 36.924 64.5945C37.174 62.9182 37.3719 61.2329 37.5802 59.449C38.4759 51.7845 39.3924 43.8511 44.548 37.5761C47.6726 33.8022 53.1406 29.7593 58.3899 30.8171C62.1706 31.5701 66.3888 33.7215 70.1174 35.6219C71.3881 36.2673 72.5859 36.8769 73.7107 37.4148C73.7964 37.453 73.8681 37.5109 73.9177 37.5822C73.9674 37.6534 73.9931 37.7351 73.9919 37.8182V90.4744C73.9949 90.5903 73.9455 90.7027 73.8542 90.7879C73.763 90.8731 73.6369 90.9246 73.5024 90.9316L33.5807 93.6208L33.5391 93.6477ZM56.6713 31.5701C52.0886 31.5701 47.5476 35.5323 45.4333 38.114C40.434 44.1918 39.5278 51.9907 38.653 59.5386C38.4447 61.3315 38.2468 63.0257 37.9968 64.711C36.6428 73.747 35.3513 83.1595 34.1432 92.6796L72.9191 90.0441V38.0961C71.8776 37.5851 70.7424 37.0203 69.5759 36.4197C65.9097 34.5552 61.7644 32.4396 58.1191 31.7135C57.6444 31.6187 57.1587 31.5705 56.6713 31.5701Z" fill="#231F20"/>
<path d="M61.5769 37.7109L58.3586 39.6472L60.5041 40.6602L57.1191 71.5332L60.702 75.5761L64.7848 70.2692L62.6288 40.9112L64.3578 39.3155L61.5769 37.7109Z" fill="#231F20"/>
<path d="M67.3157 32.9863C67.3157 32.9863 70.5236 95.3778 70.232 99.322L82.9698 98.4256C82.9698 98.4256 79.9806 70.215 81.1263 60.1033C81.1263 60.1033 87.1463 43.0712 83.1365 38.1498C79.1266 33.2284 67.3157 32.9863 67.3157 32.9863Z" fill="#C3CBBD"/>
<path d="M51.8802 30.2974C51.8802 30.2974 35.9865 33.2287 25.0921 40.1581C14.1977 47.0875 0.157959 64.6485 0.157959 68.9334C0.157959 73.2184 23.3736 90.4477 23.3736 90.4477L29.6852 82.1916C29.6852 82.1916 16.7807 69.0052 18.4992 65.3029C20.2178 61.6007 31.685 54.0886 31.685 54.0886C31.685 54.0886 33.1223 65.5449 32.5494 69.7402C31.9766 73.9355 26.3003 97.6281 26.9877 104.047L38.2778 101.725C38.2778 101.725 39.1423 91.371 43.1522 83.8859C47.1621 76.4007 51.1824 70.2422 53.4945 58.4004C55.8067 46.5586 51.8802 30.2974 51.8802 30.2974Z" fill="#C3CBBD"/>
<path d="M49.8075 17.7475C49.0533 15.7364 48.4514 13.6852 48.0057 11.607C47.5733 9.51032 47.9887 7.34944 49.1826 5.48438C49.6628 4.72895 50.4319 4.13983 51.3594 3.81702C51.817 3.66172 52.319 3.63089 52.7976 3.72866C53.2762 3.82643 53.7084 4.04811 54.0361 4.36384C54.6793 3.56746 55.5513 2.92813 56.5671 2.50823C58.9427 1.36534 61.638 0.807112 64.3577 0.894664C66.628 0.945702 68.8087 1.66736 70.534 2.93852C71.9017 4.25025 72.764 5.89427 73.0024 7.64477C73.4435 9.22987 73.5284 10.873 73.2523 12.4855C72.3879 16.5194 68.1072 17.7565 64.0244 18.6619C62.1884 19.1342 60.2724 19.3343 58.3585 19.2535C57.4022 19.2042 56.4669 18.9918 55.6068 18.6286C54.7468 18.2654 53.9792 17.7587 53.3487 17.1379" fill="white"/>
<path d="M59.3584 19.7196C59.0252 19.7196 58.6815 19.7196 58.3169 19.7196C57.2887 19.6667 56.283 19.4381 55.3586 19.0472C54.4341 18.6562 53.6093 18.1108 52.9322 17.4427C52.8426 17.3463 52.8011 17.2233 52.8167 17.1006C52.8324 16.978 52.9038 16.8656 53.0155 16.7883C53.0701 16.7503 53.1329 16.7221 53.2002 16.7052C53.2676 16.6882 53.3381 16.6829 53.4079 16.6896C53.4776 16.6963 53.5451 16.7148 53.6065 16.744C53.6678 16.7732 53.7219 16.8127 53.7654 16.86C54.3524 17.4311 55.0653 17.8964 55.8626 18.2287C56.66 18.5611 57.5261 18.754 58.4107 18.7963C60.2615 18.8757 62.1144 18.6816 63.8891 18.2225C67.9198 17.3261 71.9193 16.1339 72.7316 12.4137C72.9823 10.8539 72.8975 9.26775 72.4817 7.73433C72.2627 6.07168 71.4555 4.50707 70.1695 3.25219C68.5305 2.06157 66.4704 1.3852 64.3265 1.33383C61.7033 1.25138 59.1046 1.79426 56.8171 2.90258C55.8799 3.28515 55.0755 3.87238 54.4841 4.60579C54.4341 4.66683 54.3678 4.71664 54.2908 4.75102C54.2137 4.7854 54.1282 4.80334 54.0415 4.80334C53.9547 4.80334 53.8692 4.7854 53.7921 4.75102C53.7151 4.71664 53.6488 4.66683 53.5988 4.60579C53.3397 4.36518 53.0019 4.19783 52.63 4.12581C52.2581 4.05379 51.8696 4.0805 51.5158 4.2024C50.7198 4.49701 50.0603 5.01103 49.641 5.66358C48.5373 7.44508 48.17 9.49658 48.5995 11.4814C48.8786 13.0014 49.2965 14.5001 49.8493 15.9635C50.0264 16.5014 50.2138 17.0303 50.3805 17.5682C50.4039 17.6828 50.3766 17.8008 50.304 17.899C50.2314 17.9972 50.1188 18.0685 49.9882 18.0988C49.8577 18.1292 49.7187 18.1164 49.5985 18.063C49.4784 18.0096 49.3858 17.9194 49.339 17.8102C49.1723 17.2813 48.9953 16.7524 48.8182 16.2235C48.2533 14.7179 47.8216 13.1776 47.5267 11.6159C47.0715 9.42137 47.4938 7.15888 48.7245 5.19743C49.2781 4.37992 50.1372 3.74795 51.1616 3.40458C51.6181 3.25783 52.1088 3.2073 52.5926 3.25721C53.0764 3.30711 53.5393 3.45601 53.9425 3.69143C54.6117 3.03181 55.4258 2.49257 56.338 2.10475C58.8015 0.916391 61.5983 0.336318 64.4203 0.428433C66.818 0.487874 69.1195 1.25363 70.9402 2.59779C72.3822 3.98103 73.2981 5.71085 73.5649 7.55504C74.0139 9.2 74.0987 10.9031 73.8148 12.575C72.8983 16.8331 68.6072 18.1419 64.1911 19.11C62.6165 19.4875 60.9927 19.6923 59.3584 19.7196Z" fill="#231F20"/>
<path d="M66.5344 26.3082L67.3156 33.7486C67.3156 33.7486 66.4094 38.6072 60.7019 37.7108C59.0189 37.4318 57.4291 36.8342 56.0475 35.9614C54.6659 35.0885 53.527 33.9622 52.7134 32.6639L51.8801 19.0023C51.8801 19.0023 55.9213 16.8867 54.1819 9.1416C58.894 10.6185 63.9816 10.9746 68.9091 10.1725C68.9091 10.1725 72.0337 18.5003 71.5858 22.2832C71.138 26.0662 66.5344 26.3082 66.5344 26.3082Z" fill="white"/>
<path d="M62.0737 38.1001C61.5634 38.0957 61.0545 38.0572 60.552 37.985C58.7 37.6978 56.9515 37.0779 55.4356 36.1711C53.9197 35.2643 52.6752 34.0938 51.794 32.7461C51.7792 32.6907 51.7792 32.6334 51.794 32.578L50.8306 19.0912C50.8244 19.0082 50.8467 18.9255 50.895 18.8521C50.9433 18.7787 51.0157 18.7175 51.1043 18.6753C51.1043 18.6753 54.9797 16.6045 53.2938 9.42751C53.2719 9.34624 53.2787 9.26162 53.3136 9.18335C53.3484 9.10509 53.4099 9.03635 53.4909 8.98503C53.571 8.93231 53.6677 8.89861 53.7701 8.88768C53.8726 8.87674 53.9767 8.88899 54.0711 8.92308C58.9252 10.3278 64.1534 10.6667 69.2225 9.90538C69.3581 9.88674 69.4975 9.90765 69.6158 9.96438C69.7341 10.0211 69.8236 10.11 69.8684 10.2151C69.9998 10.5603 73.1527 18.5691 72.7148 22.3567C72.5706 23.4592 71.9642 24.4887 70.9964 25.2743C70.0286 26.0599 68.7576 26.5542 67.3943 26.6753L68.1715 33.5956C68.1769 33.6309 68.1769 33.6666 68.1715 33.7018C67.8371 35.1054 66.8841 36.3632 65.4894 37.2417C64.4904 37.8103 63.2955 38.1106 62.0737 38.1001ZM52.8121 32.4275C53.6392 33.6234 54.7787 34.6593 56.1513 35.4632C57.5238 36.2671 59.0966 36.8196 60.76 37.0824C61.4465 37.2183 62.1601 37.239 62.8568 37.1431C63.5535 37.0472 64.2185 36.8368 64.8106 36.5249C65.9432 35.7903 66.7187 34.7561 67.0001 33.6045L66.19 26.3125C66.1822 26.2521 66.1899 26.1911 66.2125 26.1333C66.2351 26.0754 66.2721 26.022 66.3214 25.9762C66.4225 25.884 66.5637 25.8269 66.7155 25.8169C66.8907 25.8169 69.4633 24.9492 69.8684 21.666C70.2516 18.5156 69.4743 12.5426 68.8503 10.8877C64.0491 11.5425 59.1237 11.2572 54.4871 10.0558C55.7023 16.2505 52.8668 18.6753 51.9254 19.2948L52.8121 32.4275Z" fill="#231F20"/>
<path d="M66.9824 30.1988C66.9824 30.1988 64.7639 30.6918 62.1497 28.7645C59.5355 26.8371 59.6709 25.627 59.6709 25.627C61.816 26.5223 64.2513 26.7625 66.5762 26.3082L66.9824 30.1988Z" fill="#231F20"/>
<path d="M66.2532 30.7009C64.584 30.6498 62.9928 30.0797 61.7746 29.0963C59.0354 27.0704 59.0978 25.7257 59.1187 25.5823C59.1276 25.5095 59.1571 25.4397 59.2046 25.379C59.2521 25.3183 59.3162 25.2685 59.3912 25.234C59.4662 25.1995 59.5498 25.1814 59.6349 25.1812C59.7199 25.1809 59.8037 25.1986 59.879 25.2327C61.9146 26.0697 64.2169 26.2969 66.4198 25.8781C66.492 25.8616 66.5676 25.8586 66.6413 25.8695C66.7149 25.8803 66.7851 25.9046 66.8468 25.9409C66.9072 25.9788 66.9577 26.027 66.9954 26.0825C67.033 26.1381 67.0569 26.1997 67.0655 26.2636L67.4717 30.163C67.4807 30.2672 67.4471 30.3708 67.3767 30.4559C67.3063 30.541 67.2037 30.6023 67.0864 30.6292C66.8132 30.6829 66.5333 30.7069 66.2532 30.7009ZM60.431 26.407C60.9436 27.1846 61.6262 27.8696 62.4412 28.424C63.5028 29.2981 64.9091 29.7944 66.3781 29.8134L66.0761 26.8552C64.1811 27.1304 62.2355 26.9759 60.431 26.407Z" fill="#231F20"/>
<path d="M62.0872 15.3003C62.0872 15.3003 65.0034 19.4238 64.2327 20.0872C63.462 20.7506 61.4102 20.2217 61.4102 20.2217" fill="white"/>
<path d="M62.9412 20.8757C62.3695 20.8678 61.8018 20.7924 61.2539 20.6516C61.1225 20.6145 61.013 20.5347 60.9488 20.4293C60.8846 20.3238 60.8708 20.2009 60.9102 20.0868C60.9511 19.9744 61.0417 19.8803 61.1626 19.8249C61.2834 19.7695 61.4248 19.7574 61.556 19.791C62.285 19.9793 63.4828 20.0958 63.8577 19.791C63.9931 19.4324 62.9724 17.4334 61.6497 15.5509C61.6136 15.5016 61.5893 15.4466 61.5781 15.3891C61.5669 15.3316 61.5692 15.2728 61.5847 15.2161C61.6002 15.1593 61.6286 15.1058 61.6684 15.0586C61.7082 15.0115 61.7585 14.9716 61.8164 14.9413C61.8751 14.9104 61.9403 14.8898 62.0083 14.8808C62.0764 14.8717 62.1458 14.8743 62.2126 14.8885C62.2794 14.9027 62.3423 14.9281 62.3977 14.9633C62.453 14.9985 62.4997 15.0429 62.535 15.0937C63.9619 17.1017 65.4721 19.6655 64.6181 20.4275C64.1493 20.7608 63.5469 20.9219 62.9412 20.8757Z" fill="#231F20"/>
<path d="M62.3684 23.5923H62.2851C61.4706 23.5588 60.6727 23.3825 59.9402 23.0743C59.2077 22.766 58.5561 22.3322 58.0252 21.7995C57.9768 21.7586 57.9382 21.7098 57.9119 21.6559C57.8856 21.602 57.8721 21.5442 57.8721 21.4858C57.8721 21.4273 57.8856 21.3695 57.9119 21.3156C57.9382 21.2617 57.9768 21.2129 58.0252 21.172C58.0737 21.13 58.1313 21.0967 58.1947 21.0739C58.2582 21.0511 58.3262 21.0394 58.395 21.0394C58.4637 21.0394 58.5318 21.0511 58.5953 21.0739C58.6587 21.0967 58.7163 21.13 58.7647 21.172C59.2024 21.6108 59.7394 21.9682 60.3428 22.2225C60.9463 22.4768 61.6036 22.6226 62.2747 22.6511C63.8357 22.5851 65.3159 22.0341 66.4408 21.1003C66.5381 21.0182 66.669 20.9722 66.8053 20.9722C66.9416 20.9722 67.0725 21.0182 67.1698 21.1003C67.2187 21.142 67.2574 21.1915 67.2838 21.2461C67.3103 21.3008 67.3239 21.3594 67.3239 21.4185C67.3239 21.4777 67.3103 21.5363 67.2838 21.5909C67.2574 21.6455 67.2187 21.6951 67.1698 21.7368C65.8735 22.823 64.173 23.4802 62.3684 23.5923Z" fill="#231F20"/>
<path d="M59.0077 14.6178C59.0206 14.0139 58.7839 13.5204 58.4791 13.5156C58.1743 13.5108 57.9168 13.9965 57.9039 14.6004C57.891 15.2043 58.1277 15.6977 58.4325 15.7026C58.7373 15.7074 58.9949 15.2217 59.0077 14.6178Z" fill="#231F20"/>
<path d="M67.0177 14.2452C67.0306 13.6413 66.7939 13.1479 66.4891 13.1431C66.1843 13.1383 65.9268 13.6239 65.9139 14.2278C65.901 14.8317 66.1377 15.3252 66.4425 15.33C66.7474 15.3348 67.0049 14.8491 67.0177 14.2452Z" fill="#231F20"/>
<path d="M55.3796 16.8511C54.8281 16.1421 54.1204 15.533 53.2965 15.0583C52.8742 14.7683 52.3571 14.599 51.8176 14.5742C51.3786 14.5926 50.9553 14.7203 50.599 14.9418C50.0624 15.2435 49.6053 15.6387 49.2573 16.1019C48.9093 16.5652 48.678 17.0861 48.5784 17.631C48.4748 18.1384 48.525 18.6602 48.7242 19.146C49.0755 19.914 49.7326 20.5495 50.5781 20.9389C51.41 21.3237 52.2907 21.6245 53.2028 21.8353" fill="white"/>
<path d="M53.2445 22.2296C53.1929 22.2383 53.1398 22.2383 53.0883 22.2296C52.1271 22.0253 51.1972 21.7244 50.3178 21.3332C49.3755 20.8986 48.6389 20.1949 48.2347 19.3431C48.0013 18.7834 47.9403 18.1811 48.0577 17.5951C48.1587 16.9749 48.4127 16.3805 48.8025 15.8518C49.1923 15.323 49.7089 14.8721 50.3178 14.5293C50.7616 14.2596 51.2854 14.1042 51.828 14.0811C52.4686 14.1149 53.0823 14.3149 53.5882 14.6548C54.4584 15.1735 55.2016 15.8344 55.7754 16.6C55.8137 16.6506 55.84 16.7073 55.8529 16.7666C55.8658 16.826 55.8649 16.887 55.8504 16.9461C55.8359 17.0052 55.808 17.0613 55.7684 17.1111C55.7287 17.1609 55.678 17.2035 55.6192 17.2365C55.5604 17.2694 55.4946 17.2921 55.4256 17.3032C55.3566 17.3143 55.2857 17.3136 55.2171 17.3011C55.1484 17.2886 55.0833 17.2646 55.0254 17.2304C54.9675 17.1963 54.918 17.1526 54.8797 17.102C54.3888 16.4459 53.7601 15.8744 53.0258 15.4167C52.7016 15.1764 52.2964 15.0318 51.8697 15.0044C51.5317 15.0274 51.2074 15.1297 50.9323 15.3002C50.4589 15.569 50.0559 15.92 49.7492 16.3306C49.4425 16.7412 49.2389 17.2024 49.1513 17.6847C49.0629 18.1171 49.106 18.5617 49.2763 18.9756C49.5903 19.6262 50.1624 20.1598 50.8906 20.4816C51.6986 20.8522 52.5553 21.1381 53.4424 21.3332C53.5105 21.3496 53.5742 21.3776 53.6296 21.4155C53.6849 21.4535 53.731 21.5005 53.7649 21.554C53.7989 21.6074 53.8201 21.6662 53.8273 21.7268C53.8345 21.7874 53.8276 21.8486 53.8069 21.9069C53.7731 22.0095 53.6979 22.0983 53.5948 22.1574C53.4917 22.2166 53.3675 22.2422 53.2445 22.2296Z" fill="#231F20"/>
<path d="M24.4673 89.0493C24.4673 89.0493 29.2375 91.8282 31.1018 92.2585C32.9661 92.6888 39.5382 88.8431 41.09 88.6728C42.6419 88.5025 47.1517 90.0981 47.7975 89.363C48.4432 88.628 46.0061 87.0771 43.496 86.5213C43.496 86.5213 48.8807 87.9467 49.7451 87.8212C50.6096 87.6957 51.8282 87.3281 50.7867 86.1538C49.7451 84.9795 45.2666 84.1189 45.2666 84.1189C45.2666 84.1189 51.8699 85.9118 52.1511 85.0153C52.4323 84.1189 49.7868 82.1826 46.5581 81.8061C46.5581 81.8061 52.6197 83.348 52.1719 81.8061C51.724 80.2643 44.4854 79.1168 40.9026 80.085C37.3197 81.0531 32.1538 83.7872 31.4351 83.6707C30.7164 83.5542 29.6645 82.2006 29.6645 82.2006L24.4673 89.0493Z" fill="white"/>
<path d="M31.4348 92.7607C31.2764 92.763 31.1184 92.7448 30.9661 92.707C29.0393 92.2587 24.3629 89.5426 24.165 89.426C24.1058 89.3933 24.0548 89.3508 24.0149 89.301C23.9749 89.2512 23.9469 89.1951 23.9324 89.1359C23.9178 89.0767 23.9171 89.0156 23.9302 88.9561C23.9433 88.8967 23.97 88.8401 24.0087 88.7896L29.2164 81.9678C29.2651 81.9039 29.3316 81.8516 29.4098 81.8156C29.488 81.7796 29.5755 81.761 29.6642 81.7616C29.7511 81.7642 29.8362 81.7833 29.9136 81.8173C29.991 81.8514 30.0588 81.8997 30.1121 81.9588C30.5599 82.5235 31.2578 83.1869 31.5598 83.2317C32.5764 82.8966 33.5647 82.5013 34.5177 82.0484C36.5307 81.1266 38.6193 80.3326 40.7669 79.6729C44.3485 78.9786 48.0945 79.2928 51.4529 80.5693C51.7461 80.6784 52.0102 80.8381 52.2288 81.0385C52.4473 81.239 52.6158 81.4759 52.7236 81.7347C52.7776 81.8912 52.7809 82.0574 52.7331 82.2153C52.6854 82.3733 52.5885 82.5171 52.4528 82.6311C52.0795 82.8682 51.625 82.9912 51.1613 82.9807C51.6435 83.2857 52.0625 83.6584 52.4007 84.0833C52.5427 84.2383 52.6441 84.4179 52.698 84.6097C52.7519 84.8016 52.7571 85.0012 52.7132 85.1949C52.6819 85.2875 52.6288 85.3735 52.5571 85.4475C52.4854 85.5216 52.3967 85.5821 52.2966 85.6252C51.923 85.7524 51.518 85.7956 51.1196 85.7507L51.2655 85.9031C51.4741 86.0955 51.6197 86.3322 51.6874 86.5889C51.7551 86.8456 51.7425 87.1131 51.6508 87.3643C51.4321 87.8483 50.8176 88.1621 49.849 88.3055C49.1794 88.3053 48.5132 88.2238 47.8701 88.0635C48.0991 88.2588 48.2767 88.4942 48.3909 88.7537C48.4547 88.9013 48.4758 89.0602 48.4522 89.2164C48.4286 89.3726 48.361 89.5215 48.2554 89.6502C47.693 90.2866 46.3078 90.0266 44.0893 89.5605C43.1451 89.3156 42.1688 89.1741 41.1835 89.1392C40.0118 89.495 38.8848 89.9515 37.8194 90.5018C34.9343 91.8105 32.7576 92.7607 31.4348 92.7607ZM25.1857 88.9151C27.0783 90.0564 29.1026 91.0267 31.2265 91.8105C32.1431 92.0257 35.2156 90.6183 37.2465 89.686C38.4166 89.0574 39.6771 88.5631 40.996 88.2159C42.116 88.2184 43.2291 88.3665 44.2977 88.6551C45.3047 88.9425 46.3616 89.0789 47.4222 89.0585C47.4222 88.7806 46.0995 87.7587 44.131 87.167L43.3603 86.9698C43.2277 86.9308 43.1173 86.8497 43.0515 86.7432C42.9857 86.6367 42.9695 86.5126 43.0062 86.3961C43.0428 86.28 43.1312 86.181 43.252 86.1206C43.3729 86.0602 43.5166 86.0432 43.6519 86.0734C43.9022 86.1281 44.149 86.1939 44.3914 86.2706C46.113 86.7614 47.8794 87.1273 49.6719 87.3643C50.3177 87.2746 50.6093 87.1043 50.7134 86.9967C50.8176 86.8891 50.7134 86.7188 50.4531 86.432C49.6955 85.8495 48.7892 85.4287 47.8076 85.2039C46.7661 84.9798 45.8391 84.7288 45.2038 84.5584C45.0727 84.5231 44.9627 84.4456 44.8966 84.3419C44.8306 84.2383 44.8138 84.1167 44.8497 84.0027C44.8842 83.8869 44.97 83.7873 45.0887 83.7253C45.2075 83.6633 45.3497 83.6438 45.485 83.671C46.3509 83.839 47.2061 84.0454 48.0471 84.2895C49.2321 84.6068 50.4623 84.7818 51.7029 84.8094C51.6613 84.6993 51.5979 84.5962 51.5154 84.5047C50.6965 83.689 49.6447 83.071 48.4638 82.7118C47.693 82.5684 46.9848 82.407 46.5057 82.2815C46.3892 82.2398 46.2933 82.1644 46.2345 82.0684C46.1758 81.9723 46.1578 81.8616 46.1837 81.7553C46.2096 81.6491 46.2778 81.5539 46.3765 81.4864C46.4753 81.4188 46.5983 81.3829 46.7244 81.3851C47.4037 81.4659 48.0708 81.6102 48.7137 81.8154C49.7034 82.0875 50.7576 82.1369 51.7758 81.9588C51.5876 81.7027 51.3159 81.5001 50.9947 81.3761C47.895 80.2207 44.4511 79.9352 41.1522 80.5604C39.0704 81.2098 37.0447 81.9857 35.0906 82.8821C32.7471 83.8951 31.966 84.2357 31.4244 84.1461C30.7605 83.9233 30.188 83.5366 29.7788 83.0345L25.1857 88.9151Z" fill="#231F20"/>
<path d="M31.2165 186.751C31.0198 189.694 30.3467 192.6 29.2167 195.383C27.4878 199.086 27.6336 201.058 29.2167 202.295C30.7999 203.532 38.955 203.648 42.8295 201.398C46.7039 199.148 41.8504 193.331 41.7879 191.036C41.8391 189.094 42.0305 187.157 42.3608 185.236L31.2165 186.751Z" fill="#231F20"/>
<path d="M71.8254 185.272C71.8254 185.272 69.9611 191.188 70.5339 195.133C71.1067 199.077 71.8254 198.584 71.8254 198.584H81.2825L81.8553 197.087C84.757 198.122 87.7867 198.868 90.8853 199.31C95.1868 199.803 104.644 199.31 104.363 197.705C104.081 196.101 93.6141 193.223 90.8853 190.426C88.1565 187.629 81.7095 180.306 81.7095 180.306L71.8254 185.272Z" fill="#231F20"/>
<path d="M70.2317 99.8156C70.1217 99.8168 70.014 99.788 69.9242 99.7332C69.8344 99.6785 69.767 99.6006 69.7318 99.5109C69.6842 99.3966 69.6902 99.2709 69.7485 99.1604C69.8068 99.0499 69.913 98.9634 70.0443 98.9192C72.0648 98.2827 80.1575 98.0228 82.3968 98.0228C82.1468 94.9211 80.8137 77.7545 80.9907 70.7534C81.1678 63.4655 81.9073 49.6874 82.1468 49.0688C82.1882 48.95 82.2828 48.8501 82.4098 48.7913C82.5368 48.7324 82.6857 48.7194 82.8238 48.7551C82.9619 48.7907 83.0779 48.8722 83.1463 48.9815C83.2146 49.0907 83.2298 49.2189 83.1883 49.3378C83.0009 50.1446 82.2822 63.0621 82.0843 70.7714C81.8864 78.4806 83.5112 98.2379 83.5216 98.4351C83.5278 98.4983 83.5191 98.5618 83.4958 98.622C83.4725 98.6821 83.4352 98.7374 83.3862 98.7847C83.3367 98.8299 83.277 98.866 83.2107 98.8906C83.1445 98.9153 83.073 98.9281 83.0009 98.9282C80.1054 98.9909 72.2002 99.2598 70.44 99.8246L70.2317 99.8156Z" fill="#231F20"/>
<path d="M20.6344 63.0803C20.4905 63.0805 20.3522 63.0322 20.2491 62.9459C20.1984 62.9033 20.1581 62.8524 20.1306 62.7962C20.103 62.74 20.0889 62.6796 20.0889 62.6187C20.0889 62.5577 20.103 62.4973 20.1306 62.4411C20.1581 62.3849 20.1984 62.3341 20.2491 62.2915C20.3532 62.2018 30.6643 53.4617 36.9864 49.9477C37.0451 49.9143 37.1108 49.8914 37.1799 49.8801C37.249 49.8688 37.32 49.8694 37.3888 49.8819C37.4575 49.8945 37.5228 49.9186 37.5806 49.953C37.6385 49.9873 37.6879 50.0312 37.7259 50.0821C37.7646 50.1326 37.7913 50.1893 37.8044 50.2487C37.8175 50.3082 37.8168 50.3693 37.8022 50.4285C37.7877 50.4877 37.7597 50.5438 37.7197 50.5936C37.6798 50.6434 37.6288 50.6859 37.5696 50.7186C31.3934 54.1878 21.1552 62.8652 21.0094 62.9548C20.9066 63.035 20.7731 63.0797 20.6344 63.0803Z" fill="#231F20"/>
</svg>
