<svg width="180" height="190" viewBox="0 0 180 190" fill="none" xmlns="http://www.w3.org/2000/svg">
<ellipse cx="96.5466" cy="77" rx="83" ry="77" fill="url(#paint0_radial_233:233)"/>
<path d="M144.677 79.2764C144.48 79.3353 144.268 79.3139 144.088 79.2171C143.908 79.1203 143.773 78.9559 143.715 78.7601L142.836 75.8073C142.778 75.6115 142.8 75.4004 142.898 75.2203C142.995 75.0403 143.161 74.9061 143.358 74.8473C143.554 74.7884 143.766 74.8098 143.946 74.9066C144.127 75.0034 144.261 75.1678 144.319 75.3636L145.198 78.3164C145.257 78.5122 145.234 78.7233 145.137 78.9033C145.039 79.0834 144.873 79.2176 144.677 79.2764Z" fill="#DFEAEF"/>
<path d="M146.683 85.9972C146.486 86.056 146.274 86.0347 146.094 85.9378C145.914 85.841 145.78 85.6766 145.721 85.4808L144.842 82.5281C144.784 82.3323 144.806 82.1211 144.904 81.9411C145.002 81.761 145.167 81.6268 145.364 81.568C145.56 81.5092 145.772 81.5305 145.952 81.6273C146.133 81.7242 146.267 81.8886 146.325 82.0844L147.204 85.0371C147.263 85.2329 147.24 85.4441 147.143 85.6241C147.045 85.8041 146.879 85.9383 146.683 85.9972Z" fill="#DFEAEF"/>
<path d="M150.096 79.6923L147.135 80.5779C146.939 80.6366 146.728 80.6153 146.548 80.5187C146.368 80.422 146.234 80.258 146.176 80.0626C146.118 79.8672 146.14 79.6565 146.238 79.4768C146.335 79.2971 146.5 79.1632 146.697 79.1045L149.657 78.2188C149.853 78.1601 150.065 78.1814 150.245 78.278C150.424 78.3747 150.558 78.5387 150.616 78.7341C150.675 78.9295 150.652 79.1403 150.555 79.3199C150.457 79.4996 150.292 79.6336 150.096 79.6923Z" fill="#DFEAEF"/>
<path d="M143.364 81.7016L140.404 82.5872C140.208 82.646 139.996 82.6246 139.816 82.528C139.636 82.4314 139.503 82.2673 139.445 82.0719C139.386 81.8765 139.408 81.6658 139.506 81.4861C139.604 81.3064 139.769 81.1725 139.965 81.1138L142.925 80.2281C143.122 80.1694 143.333 80.1907 143.513 80.2874C143.693 80.384 143.827 80.5481 143.885 80.7435C143.943 80.9389 143.921 81.1496 143.823 81.3293C143.726 81.5089 143.561 81.6429 143.364 81.7016Z" fill="#DFEAEF"/>
<path d="M90.2087 32.1279C90.0121 32.1868 89.8003 32.1654 89.62 32.0686C89.4397 31.9718 89.3057 31.8074 89.2474 31.6116L88.368 28.6588C88.3097 28.463 88.3319 28.2519 88.4297 28.0718C88.5276 27.8918 88.693 27.7576 88.8897 27.6988C89.0863 27.6399 89.2981 27.6613 89.4784 27.7581C89.6587 27.8549 89.7928 28.0193 89.8511 28.2151L90.7304 31.1679C90.7887 31.3637 90.7665 31.5748 90.6687 31.7548C90.5709 31.9349 90.4054 32.0691 90.2087 32.1279Z" fill="#DFEAEF"/>
<path d="M92.2171 38.8561C92.0204 38.9149 91.8086 38.8936 91.6283 38.7967C91.448 38.6999 91.314 38.5355 91.2557 38.3397L90.3653 35.35C90.307 35.1542 90.3292 34.9431 90.427 34.7631C90.5249 34.583 90.6903 34.4488 90.887 34.39C91.0837 34.3311 91.2954 34.3525 91.4757 34.4493C91.656 34.5462 91.7901 34.7105 91.8484 34.9063L92.7388 37.896C92.7971 38.0918 92.7749 38.303 92.677 38.483C92.5792 38.663 92.4137 38.7972 92.2171 38.8561Z" fill="#DFEAEF"/>
<path d="M95.6367 32.5733L92.6764 33.459C92.4802 33.5177 92.2688 33.4964 92.0889 33.3998C91.9089 33.3031 91.7752 33.1391 91.717 32.9437C91.6588 32.7483 91.6809 32.5376 91.7786 32.3579C91.8762 32.1782 92.0414 32.0443 92.2376 31.9855L95.1979 31.0999C95.3942 31.0412 95.6056 31.0625 95.7855 31.1591C95.9654 31.2558 96.0992 31.4198 96.1574 31.6152C96.2156 31.8106 96.1934 32.0213 96.0958 32.201C95.9981 32.3807 95.833 32.5146 95.6367 32.5733Z" fill="#DFEAEF"/>
<path d="M88.9053 34.5827L85.945 35.4683C85.7487 35.527 85.5374 35.5057 85.3574 35.4091C85.1775 35.3124 85.0437 35.1484 84.9855 34.953C84.9273 34.7576 84.9495 34.5469 85.0471 34.3672C85.1448 34.1875 85.3099 34.0536 85.5062 33.9948L88.4665 33.1092C88.6627 33.0505 88.8741 33.0718 89.054 33.1684C89.234 33.2651 89.3678 33.4291 89.4259 33.6245C89.4841 33.8199 89.462 34.0306 89.3643 34.2103C89.2667 34.39 89.1016 34.5239 88.9053 34.5827Z" fill="#DFEAEF"/>
<path d="M143.343 56.5654C143.146 56.6242 142.934 56.6029 142.754 56.506C142.574 56.4092 142.44 56.2447 142.381 56.0489L140.745 50.5559C140.686 50.3601 140.709 50.1489 140.806 49.9688C140.904 49.7887 141.07 49.6545 141.267 49.5957C141.463 49.5368 141.675 49.5582 141.856 49.655C142.036 49.7519 142.17 49.9163 142.229 50.1121L143.865 55.6052C143.924 55.801 143.901 56.0121 143.803 56.1922C143.706 56.3723 143.54 56.5065 143.343 56.5654Z" fill="#DFEAEF"/>
<path d="M145.269 52.9959L139.794 54.6334C139.598 54.692 139.386 54.6708 139.206 54.5742C139.026 54.4776 138.893 54.3136 138.834 54.1183C138.776 53.9231 138.798 53.7125 138.896 53.5329C138.994 53.3533 139.159 53.2195 139.355 53.1608L144.853 51.5167C145.049 51.458 145.26 51.4793 145.44 51.5759C145.62 51.6724 145.754 51.8364 145.812 52.0317C145.87 52.227 145.848 52.4375 145.751 52.6171C145.653 52.7967 145.488 52.9306 145.292 52.9893L145.269 52.9959Z" fill="#DFEAEF"/>
<path d="M106.208 166.435L142.01 125.633C144.496 122.8 144.22 118.498 141.392 116.025L62.0447 46.6255C59.2171 44.1524 54.9093 44.4447 52.4229 47.2783L16.6207 88.0802C14.1343 90.9138 14.4109 95.2157 17.2385 97.6888L96.5861 167.088C99.4137 169.561 103.722 169.269 106.208 166.435Z" fill="#093F68"/>
<path d="M103.279 169.151C102.047 169.523 100.741 169.577 99.4841 169.308C98.2273 169.039 97.0608 168.456 96.094 167.614L16.6942 98.298C15.9438 97.6457 15.3304 96.8517 14.8893 95.9615C14.4481 95.0713 14.1879 94.1024 14.1234 93.1103C14.0589 92.1181 14.1915 91.1224 14.5135 90.18C14.8355 89.2376 15.3407 88.3672 16 87.6187L51.824 46.8535C53.1552 45.3433 55.0308 44.4189 57.0395 44.283C59.0481 44.1472 61.0259 44.811 62.539 46.1289L141.946 115.442C143.459 116.759 144.384 118.622 144.519 120.623C144.653 122.624 143.985 124.599 142.662 126.115L106.839 166.88C105.892 167.959 104.657 168.746 103.279 169.151ZM55.8002 46.065C54.7108 46.3878 53.7356 47.0142 52.9898 47.8704L17.1637 88.6282C16.6389 89.2244 16.2367 89.9174 15.9801 90.6677C15.7236 91.418 15.6177 92.2108 15.6685 93.0008C15.7193 93.7907 15.9259 94.5624 16.2764 95.2716C16.6268 95.9808 17.1143 96.6136 17.711 97.1339L97.1108 166.449C98.3167 167.5 99.8932 168.029 101.494 167.92C103.095 167.812 104.59 167.074 105.651 165.87L141.477 125.112C142.001 124.515 142.402 123.822 142.658 123.072C142.914 122.322 143.019 121.529 142.967 120.739C142.916 119.949 142.709 119.178 142.358 118.469C142.007 117.761 141.519 117.128 140.922 116.609L61.5199 47.2856C60.7506 46.6145 59.8219 46.1503 58.8212 45.9368C57.8206 45.7232 56.7809 45.7674 55.8002 46.065Z" fill="#093F68"/>
<path d="M111.138 159.652L147.154 118.915C149.655 116.086 149.394 111.776 146.571 109.288L67.3516 39.4728C64.5286 36.9849 60.2124 37.2615 57.7112 40.0906L21.6951 80.8272C19.1938 83.6563 19.4546 87.9666 22.2777 90.4545L101.497 160.27C104.32 162.758 108.637 162.481 111.138 159.652Z" fill="#B4D5CB"/>
<path d="M108.846 162.808C107.613 163.178 106.306 163.231 105.049 162.961C103.792 162.691 102.625 162.107 101.659 161.263L22.2589 91.9476C21.5087 91.2948 20.8957 90.5003 20.455 89.6096C20.0143 88.719 19.7546 87.7497 19.6908 86.7573C19.627 85.7649 19.7604 84.769 20.0832 83.8267C20.406 82.8844 20.912 82.0142 21.5721 81.2661L57.3908 40.5105C58.722 38.9978 60.599 38.0715 62.6095 37.9352C64.62 37.799 66.5995 38.4638 68.1133 39.7837L147.513 109.099C149.014 110.42 149.928 112.282 150.055 114.278C150.182 116.274 149.512 118.241 148.191 119.751L112.365 160.509L111.788 160.007L112.365 160.509C111.432 161.591 110.212 162.388 108.846 162.808ZM61.3561 39.6852C60.2683 40.0114 59.2941 40.6373 58.5457 41.4906L22.7218 82.2557C22.196 82.8514 21.793 83.5444 21.5359 84.2948C21.2787 85.0451 21.1725 85.8382 21.2234 86.6285C21.2742 87.4188 21.4811 88.1906 21.8322 88.8999C22.1832 89.6091 22.6715 90.2417 23.2691 90.7614L102.676 160.075C103.881 161.125 105.456 161.654 107.056 161.546C108.656 161.438 110.149 160.701 111.209 159.497L147.033 118.732C148.091 117.527 148.627 115.955 148.525 114.36C148.422 112.765 147.688 111.278 146.485 110.227L67.0868 40.9426C66.4929 40.4204 65.8003 40.0214 65.0493 39.769C64.2984 39.5165 63.504 39.4156 62.7124 39.472C62.2537 39.4896 61.7984 39.5611 61.3561 39.6852Z" fill="#093F68"/>
<path d="M100.82 149.512L135.635 109.835C136.936 108.353 136.791 106.102 135.312 104.808L72.4082 49.7917C70.9289 48.4979 68.6752 48.6508 67.3744 50.1333L32.5596 89.8096C31.2588 91.2921 31.4035 93.5427 32.8827 94.8365L95.7866 149.853C97.2659 151.147 99.5196 150.994 100.82 149.512Z" fill="white"/>
<path d="M99.3956 151.275C98.6922 151.487 97.9468 151.518 97.2295 151.365C96.5122 151.211 95.8464 150.879 95.2947 150.398L32.3348 95.4387C31.9069 95.0652 31.5575 94.6109 31.3063 94.102C31.0552 93.593 30.9074 93.0393 30.8713 92.4725C30.8352 91.9057 30.9116 91.337 31.096 90.7989C31.2804 90.2607 31.5693 89.7637 31.9462 89.3363L66.7878 49.6936C67.5475 48.8306 68.6184 48.302 69.7655 48.2237C70.9127 48.1454 72.0424 48.5238 72.9071 49.2759L135.867 104.235C136.727 104.992 137.251 106.058 137.324 107.201C137.397 108.345 137.013 109.472 136.256 110.337L101.416 149.987C100.877 150.598 100.177 151.044 99.3956 151.275ZM69.2431 49.8665C68.7398 50.0185 68.2893 50.3093 67.944 50.7053L33.1024 90.348C32.8586 90.624 32.672 90.9453 32.5531 91.2931C32.4342 91.641 32.3855 92.0086 32.4098 92.3748C32.434 92.7411 32.5308 93.0986 32.6944 93.4268C32.8581 93.755 33.0855 94.0474 33.3634 94.2872L96.2914 149.248C96.8505 149.732 97.5804 149.976 98.3211 149.924C99.0618 149.873 99.753 149.531 100.243 148.973L135.085 109.33C135.328 109.054 135.515 108.733 135.634 108.385C135.753 108.037 135.801 107.669 135.777 107.303C135.753 106.937 135.656 106.579 135.492 106.251C135.329 105.923 135.101 105.631 134.824 105.391L71.8903 50.44C71.6151 50.1985 71.2944 50.0142 70.9467 49.8976C70.5991 49.7809 70.2314 49.7344 69.865 49.7607C69.6541 49.7695 69.4451 49.805 69.2431 49.8665Z" fill="#093F68"/>
<path d="M52.9562 58.9805C53.5371 58.8067 53.8683 58.1968 53.6961 57.6183C53.5239 57.0397 52.9135 56.7117 52.3327 56.8856C51.7519 57.0594 51.4206 57.6693 51.5928 58.2479C51.765 58.8264 52.3754 59.1544 52.9562 58.9805Z" fill="#093F68"/>
<path d="M37.8422 75.7794C37.6812 75.8282 37.5088 75.8233 37.3512 75.7654C37.1936 75.7075 37.0594 75.5999 36.9691 75.4589C36.8787 75.3178 36.8372 75.151 36.8506 74.9839C36.8641 74.8167 36.9319 74.6583 37.0438 74.5327L48.6198 61.3591C48.6872 61.2831 48.7689 61.2209 48.8602 61.1763C48.9515 61.1316 49.0507 61.1053 49.1521 61.0988C49.2535 61.0923 49.3551 61.1058 49.4512 61.1385C49.5472 61.1711 49.6357 61.2224 49.7117 61.2893C49.7878 61.3561 49.8498 61.4374 49.8943 61.5283C49.9387 61.6191 49.9648 61.718 49.9709 61.819C49.977 61.9201 49.9631 62.0215 49.93 62.1173C49.8968 62.2132 49.8451 62.3017 49.7777 62.3777L38.2017 75.5514C38.1055 75.6593 37.981 75.7383 37.8422 75.7794Z" fill="#093F68"/>
<path d="M125 138.867C127.446 138.135 128.841 135.566 128.116 133.13C127.391 130.694 124.82 129.312 122.374 130.044C119.928 130.777 118.533 133.345 119.258 135.781C119.983 138.218 122.554 139.599 125 138.867Z" fill="#093F68"/>
<path d="M48.4395 124.153C48.2799 124.199 48.1099 124.192 47.9549 124.134C47.7998 124.076 47.6678 123.969 47.5785 123.83C47.4892 123.691 47.4472 123.527 47.4589 123.362C47.4705 123.197 47.5351 123.04 47.6432 122.914L50.4556 119.711C50.5198 119.627 50.6008 119.556 50.6934 119.504C50.786 119.452 50.8882 119.42 50.9938 119.409C51.0993 119.399 51.2059 119.409 51.3068 119.442C51.4077 119.474 51.5009 119.526 51.5805 119.596C51.66 119.665 51.7243 119.751 51.7692 119.846C51.8142 119.942 51.8389 120.046 51.8418 120.151C51.8447 120.257 51.8258 120.362 51.7861 120.461C51.7465 120.559 51.687 120.648 51.6114 120.722L48.799 123.925C48.7028 124.033 48.5782 124.112 48.4395 124.153Z" fill="#093F68"/>
<path d="M130.461 108.231C130.337 108.268 130.205 108.273 130.079 108.246C129.953 108.22 129.835 108.162 129.737 108.078L113.062 93.5884C112.907 93.4545 112.813 93.2647 112.799 93.0608C112.785 92.857 112.853 92.6557 112.988 92.5013C113.123 92.3469 113.314 92.252 113.518 92.2375C113.723 92.223 113.924 92.2901 114.079 92.424L130.75 106.899C130.826 106.965 130.889 107.046 130.934 107.136C130.979 107.227 131.006 107.325 131.012 107.426C131.019 107.527 131.006 107.629 130.974 107.725C130.941 107.821 130.89 107.909 130.823 107.986C130.726 108.098 130.601 108.183 130.461 108.231Z" fill="#DFEAEF"/>
<path d="M51.5452 102.76C51.4212 102.797 51.2901 102.802 51.1638 102.775C51.0376 102.749 50.9201 102.691 50.8223 102.607L47.5027 99.7705C47.4246 99.7047 47.3605 99.624 47.314 99.5331C47.2676 99.4423 47.2398 99.343 47.2323 99.2412C47.2249 99.14 47.2376 99.0382 47.2698 98.9418C47.3019 98.8453 47.3529 98.7561 47.4197 98.6792L78.284 63.4184C78.4177 63.2662 78.6059 63.1723 78.8079 63.1569C79.01 63.1415 79.2097 63.2058 79.364 63.3361L93.0154 74.6346C93.0998 74.6966 93.1705 74.7752 93.2233 74.8655C93.2761 74.9558 93.3098 75.056 93.3223 75.1599C93.3349 75.2638 93.3261 75.3692 93.2964 75.4698C93.2667 75.5703 93.2168 75.6638 93.1497 75.7446C93.0826 75.8254 92.9997 75.8917 92.9061 75.9396C92.8126 75.9874 92.7103 76.0158 92.6055 76.0229C92.5007 76.03 92.3956 76.0158 92.2967 75.981C92.1978 75.9463 92.1071 75.8918 92.0302 75.8208L78.9563 64.9997L49.1083 99.0972L51.8364 101.436C51.9911 101.569 52.0864 101.758 52.1016 101.961C52.1167 102.164 52.0504 102.365 51.9172 102.52C51.8192 102.634 51.6898 102.718 51.5452 102.76Z" fill="#DFEAEF"/>
<path d="M75.3959 115.752C75.2942 115.782 75.1875 115.791 75.0824 115.778C74.9774 115.766 74.8761 115.731 74.785 115.678C74.6093 115.575 74.482 115.406 74.4309 115.209C74.3798 115.012 74.4091 114.803 74.5124 114.627L95.6635 78.5723C95.767 78.3954 95.9366 78.2664 96.1349 78.2138C96.3333 78.1612 96.5442 78.1893 96.7213 78.2918C96.8983 78.3943 97.027 78.5629 97.079 78.7606C97.131 78.9582 97.1021 79.1686 96.9986 79.3455L75.8402 115.402C75.7415 115.571 75.5828 115.696 75.3959 115.752Z" fill="#093F68"/>
<path d="M103.809 121.517C103.682 121.554 103.547 121.559 103.418 121.529C103.319 121.508 103.225 121.467 103.142 121.409C103.058 121.352 102.987 121.278 102.933 121.193C102.878 121.108 102.841 121.013 102.823 120.913C102.806 120.813 102.808 120.711 102.83 120.612L110.993 84.8947C111.041 84.695 111.166 84.5221 111.341 84.4139C111.516 84.3057 111.727 84.2711 111.927 84.3178C112.127 84.3645 112.3 84.4886 112.408 84.6628C112.516 84.837 112.55 85.0471 112.502 85.2468L104.332 120.966C104.299 121.095 104.234 121.213 104.143 121.309C104.051 121.406 103.936 121.477 103.809 121.517Z" fill="#093F68"/>
<path d="M84.5444 100.138C84.4214 100.175 84.2912 100.182 84.1654 100.156C84.0396 100.131 83.9223 100.075 83.8241 99.9926C82.7061 98.9741 81.3805 98.2078 79.9372 97.7456C78.4938 97.2834 76.9665 97.1361 75.4586 97.3136C71.3393 97.8238 66.8901 100.879 63.5559 105.485C63.4769 105.597 63.3696 105.686 63.245 105.743C63.1203 105.8 62.9828 105.823 62.8466 105.809C62.7133 105.798 62.5854 105.753 62.4754 105.677C62.3653 105.602 62.277 105.499 62.2189 105.379C61.555 104.122 60.5455 103.079 59.3078 102.373C58.0702 101.667 56.6554 101.326 55.2282 101.391C53.768 101.487 52.346 101.903 51.0645 102.611C49.7829 103.319 48.6736 104.3 47.8164 105.484C47.7548 105.565 47.6779 105.633 47.59 105.684C47.5021 105.735 47.405 105.769 47.3043 105.783C47.2035 105.796 47.1011 105.79 47.003 105.764C46.9048 105.738 46.8128 105.694 46.7322 105.632C46.5709 105.51 46.4647 105.329 46.4367 105.129C46.4087 104.928 46.4612 104.725 46.5826 104.562C47.5813 103.196 48.8698 102.065 50.356 101.25C51.8422 100.435 53.4894 99.9572 55.18 99.8496C56.6999 99.7968 58.2082 100.116 59.5731 100.778C60.938 101.441 62.1179 102.427 63.0096 103.651C66.5127 99.1791 70.9553 96.3186 75.261 95.7848C76.9822 95.5791 78.7263 95.7436 80.3755 96.2673C82.0247 96.791 83.5406 97.6616 84.8207 98.8203C84.9255 98.9101 85.004 99.0263 85.0481 99.1569C85.0921 99.2875 85.1001 99.4276 85.071 99.5626C85.042 99.6976 84.9772 99.8224 84.8832 99.924C84.7892 100.026 84.6696 100.1 84.537 100.14L84.5444 100.138Z" fill="#093F68"/>
<path d="M79.6059 117.477C79.4296 117.53 79.2403 117.518 79.0723 117.444C70.5736 113.778 61.4452 120.038 61.3282 120.105C61.1608 120.221 60.9543 120.267 60.7538 120.232C60.5533 120.197 60.3749 120.085 60.2576 119.92C60.1989 119.837 60.1571 119.744 60.1348 119.645C60.1124 119.546 60.1099 119.444 60.1273 119.344C60.1448 119.244 60.1818 119.149 60.2363 119.063C60.2909 118.977 60.3619 118.903 60.4452 118.845C60.8475 118.572 70.3686 112.034 79.669 116.039C79.8152 116.1 79.9385 116.205 80.0221 116.34C80.1058 116.474 80.1456 116.631 80.1363 116.789C80.127 116.947 80.0689 117.099 79.97 117.223C79.8711 117.347 79.7362 117.439 79.5837 117.484L79.6059 117.477Z" fill="#093F68"/>
<path d="M127.597 117.769C127.409 117.825 127.207 117.809 127.032 117.723C126.857 117.636 126.721 117.487 126.652 117.304C126.498 116.849 126.25 116.432 125.923 116.08C125.595 115.728 125.197 115.449 124.754 115.262C123.223 114.619 120.903 114.872 118.379 115.957C118.261 116.007 118.133 116.027 118.006 116.016C117.879 116.004 117.757 115.962 117.65 115.892C117.544 115.822 117.457 115.726 117.397 115.614C117.336 115.502 117.305 115.377 117.305 115.25C117.312 113.974 117.033 112.714 116.49 111.561C115.946 110.408 115.151 109.392 114.162 108.586C113.174 107.78 112.017 107.204 110.775 106.901C109.533 106.599 108.238 106.576 106.985 106.835C106.783 106.876 106.574 106.836 106.402 106.723C106.231 106.61 106.112 106.433 106.071 106.232C106.031 106.031 106.072 105.822 106.186 105.651C106.3 105.48 106.477 105.361 106.679 105.319C108.065 105.032 109.496 105.037 110.878 105.334C112.261 105.631 113.564 106.213 114.705 107.044C115.846 107.875 116.799 108.935 117.502 110.157C118.206 111.379 118.644 112.736 118.789 114.139C120.598 113.493 123.195 112.924 125.354 113.837C125.991 114.104 126.564 114.501 127.037 115.003C127.51 115.504 127.873 116.1 128.101 116.75C128.136 116.845 128.153 116.946 128.15 117.048C128.146 117.149 128.123 117.249 128.081 117.341C128.039 117.434 127.978 117.517 127.904 117.587C127.83 117.656 127.742 117.71 127.647 117.746L127.597 117.769Z" fill="#093F68"/>
<path d="M120.457 120.715C120.277 120.771 120.083 120.759 119.911 120.681C119.739 120.604 119.602 120.467 119.526 120.295C118.843 118.829 117.73 117.605 116.334 116.784C114.938 115.963 113.323 115.583 111.703 115.695C111.602 115.703 111.5 115.692 111.403 115.661C111.306 115.63 111.217 115.58 111.139 115.514C111.062 115.449 110.999 115.368 110.953 115.278C110.907 115.187 110.879 115.089 110.872 114.988C110.864 114.887 110.876 114.785 110.907 114.688C110.938 114.592 110.989 114.502 111.055 114.425C111.121 114.348 111.202 114.284 111.293 114.238C111.383 114.192 111.482 114.164 111.584 114.156C113.518 114.03 115.444 114.489 117.108 115.473C118.773 116.457 120.099 117.92 120.913 119.671C120.996 119.857 121.001 120.069 120.928 120.259C120.854 120.45 120.708 120.604 120.522 120.688L120.457 120.715Z" fill="#093F68"/>
<path d="M98.2881 56.8318C95.5925 57.0094 92.9624 57.7504 90.5688 59.0065C88.1751 60.2627 86.0714 62.0059 84.3943 64.123C79.4249 70.2128 77.4745 77.6399 76.5196 84.8894C76.4869 85.1586 76.5465 85.4306 76.6887 85.6611C76.8308 85.8916 77.0472 86.0672 77.3025 86.1592C77.5579 86.2511 77.8373 86.2542 78.0953 86.1679C78.3532 86.0815 78.5747 85.9108 78.7236 85.6835C80.2906 82.9905 82.6424 80.8351 85.465 79.5051C91.049 77.0786 94.1903 78.7728 94.1903 78.7728L98.2881 56.8318Z" fill="#F56132"/>
<path d="M78.283 86.94C77.8786 87.0582 77.4473 87.0436 77.0529 86.8986C76.6215 86.7565 76.2549 86.467 76.0176 86.0811C75.7802 85.6951 75.6874 85.2375 75.7556 84.7889C76.5171 79.0028 78.1833 70.5121 83.7974 63.6349C85.5442 61.4259 87.7402 59.6102 90.2401 58.308C92.7401 57.0059 95.4869 56.2469 98.2987 56.0815C98.4115 56.0819 98.5228 56.1069 98.6247 56.1548C98.7265 56.2027 98.8166 56.2724 98.8884 56.3588C98.9603 56.4453 99.0122 56.5464 99.0406 56.6552C99.0689 56.7639 99.073 56.8777 99.0526 56.9883L94.9547 78.9297C94.9332 79.0505 94.8829 79.1646 94.8082 79.2624C94.7335 79.3602 94.6366 79.4389 94.5254 79.4919C94.4148 79.5434 94.2937 79.5681 94.172 79.5641C94.0503 79.5601 93.9313 79.5273 93.8249 79.4687C93.8249 79.4687 90.8906 78.0096 85.7887 80.2677C83.105 81.5234 80.8733 83.5745 79.3996 86.1399C79.1357 86.5316 78.7392 86.8158 78.283 86.94ZM94.4027 58.2998C90.7008 59.4077 87.419 61.6084 84.9911 64.6109C79.6295 71.1716 78.0264 79.3863 77.2811 84.9829C77.2658 85.0829 77.2868 85.1849 77.3404 85.2705C77.394 85.3561 77.4765 85.4196 77.5732 85.4497C77.6608 85.4906 77.7606 85.4979 77.8535 85.4701C77.9464 85.4423 78.0259 85.3814 78.0767 85.299C79.7141 82.4642 82.1906 80.202 85.1653 78.8238C89.2915 77.0264 92.1924 77.371 93.5989 77.7612L97.3525 57.698C96.3539 57.8127 95.3668 58.014 94.4027 58.2998Z" fill="#093F68"/>
<path d="M124.031 65.9388C126.013 67.7638 127.586 69.9853 128.647 72.4591C129.709 74.933 130.236 77.6038 130.195 80.298C130.19 88.1442 126.976 95.1342 123.116 101.361C122.974 101.598 122.754 101.778 122.495 101.872C122.235 101.966 121.951 101.969 121.691 101.878C121.431 101.788 121.21 101.611 121.066 101.377C120.922 101.143 120.864 100.866 120.901 100.593C121.396 97.5229 120.936 94.3787 119.583 91.5837C116.786 86.1998 113.274 85.5468 113.274 85.5468L124.031 65.9388Z" fill="#F56132"/>
<path d="M122.681 102.64C122.274 102.758 121.841 102.744 121.443 102.601C121.017 102.458 120.654 102.171 120.419 101.79C120.183 101.409 120.088 100.957 120.151 100.512C120.635 97.5968 120.204 94.607 118.918 91.9515C116.36 87.0186 113.205 86.3152 113.149 86.316C113.029 86.2933 112.916 86.2427 112.82 86.1683C112.724 86.0938 112.647 85.9977 112.595 85.8877C112.544 85.7778 112.519 85.6571 112.523 85.5355C112.527 85.414 112.56 85.2951 112.619 85.1884L123.376 65.5809C123.43 65.481 123.505 65.3941 123.597 65.3264C123.688 65.2588 123.793 65.212 123.905 65.1894C124.016 65.1674 124.13 65.1698 124.24 65.1967C124.35 65.2235 124.452 65.2741 124.54 65.3449C126.615 67.2374 128.262 69.5483 129.372 72.1252C130.483 74.7021 131.032 77.4865 130.984 80.2948C130.978 89.1379 126.881 96.794 123.785 101.739C123.543 102.167 123.149 102.488 122.681 102.64ZM114.416 85.1248C115.751 85.7058 118.223 87.2568 120.272 91.2408C121.703 94.1759 122.188 97.4829 121.663 100.711C121.646 100.805 121.664 100.903 121.715 100.984C121.766 101.066 121.846 101.125 121.939 101.15C122.031 101.192 122.135 101.199 122.232 101.17C122.328 101.141 122.411 101.078 122.465 100.993C125.447 96.1784 129.415 88.794 129.425 80.3435C129.464 75.4514 127.605 70.7405 124.236 67.1962L114.416 85.1248Z" fill="#093F68"/>
<path d="M130.316 55.711C125.206 70.009 119.088 79.8113 112.5 86.7088L93.9759 80.2006C93.2666 70.7705 94.7211 59.2865 99.834 44.9959C101.665 39.8126 104.231 34.9152 107.453 30.4532C116.775 17.6187 128.28 13.4195 128.28 13.4195C128.28 13.4195 134.555 23.8756 133.635 39.6754C133.299 45.1479 132.181 50.5475 130.316 55.711Z" fill="#FCEEC8"/>
<path d="M112.72 87.4465C112.562 87.4921 112.393 87.4862 112.239 87.4297L93.7147 80.9215C93.5765 80.8726 93.4552 80.7854 93.3651 80.67C93.2751 80.5547 93.2199 80.416 93.2062 80.2702C92.408 69.7016 94.3389 58.0831 99.1089 44.755C100.965 39.5053 103.564 34.5444 106.825 30.0227C116.18 17.138 127.541 12.8858 128.016 12.7196C128.182 12.6639 128.363 12.6664 128.527 12.7267C128.692 12.787 128.831 12.9014 128.921 13.0512C129.178 13.4805 135.3 23.8857 134.381 39.7415C134.047 45.2955 132.915 50.7758 131.02 56.0147C126.26 69.3479 120.374 79.5789 113.041 87.2781C112.949 87.3587 112.839 87.4164 112.72 87.4465ZM94.7069 79.6201L112.281 85.81C119.302 78.3087 124.963 68.3539 129.587 55.4553C131.427 50.3531 132.528 45.0178 132.857 39.6109C133.444 30.9071 131.745 22.2096 127.928 14.377C119.992 18.0721 113.149 23.759 108.072 30.8788C104.894 35.2843 102.361 40.1174 100.55 45.2317C95.9305 58.1451 94.0216 69.4034 94.7069 79.6201Z" fill="#093F68"/>
<path d="M111.633 94.6293L89.7224 86.9137L94.0535 80.1952L112.54 86.7027L111.633 94.6293Z" fill="#093F68"/>
<path d="M111.86 95.3648C111.703 95.4123 111.536 95.409 111.381 95.3554L89.4632 87.6419C89.3554 87.5997 89.2577 87.5355 89.1763 87.4533C89.0949 87.3712 89.0316 87.2729 88.9906 87.1649C88.953 87.0548 88.941 86.9374 88.9554 86.8218C88.9699 86.7062 89.0105 86.5952 89.0741 86.4973L93.4053 79.7787C93.5055 79.6346 93.6517 79.5287 93.82 79.4783C93.9882 79.428 94.1684 79.4362 94.3309 79.5016L112.812 86.0188C112.977 86.0767 113.116 86.1884 113.208 86.3359C113.301 86.4833 113.34 86.6577 113.32 86.8307L112.45 94.7463C112.436 94.8619 112.396 94.9729 112.333 95.071C112.27 95.1692 112.186 95.2519 112.086 95.313C112.015 95.3441 111.938 95.3616 111.86 95.3648ZM90.8992 86.5052L110.982 93.5793L111.704 87.2262L94.3767 81.1186L90.8992 86.5052Z" fill="#093F68"/>
<path d="M117.919 57.0732C122.373 55.7399 124.914 51.0625 123.593 46.626C122.273 42.1894 117.591 39.6737 113.137 41.0071C108.683 42.3404 106.142 47.0178 107.463 51.4543C108.783 55.8909 113.465 58.4066 117.919 57.0732Z" fill="#B4D5CB"/>
<path d="M118.124 57.8153C116.144 58.4036 114.026 58.3108 112.111 57.5519C110.196 56.7929 108.595 55.412 107.567 53.6317C106.539 51.8515 106.143 49.7757 106.444 47.7389C106.745 45.7021 107.724 43.8231 109.224 42.4047C110.725 40.9863 112.658 40.1112 114.714 39.9205C116.769 39.7298 118.826 40.2346 120.554 41.3535C122.281 42.4723 123.579 44.1401 124.236 46.088C124.894 48.0358 124.874 50.1502 124.179 52.0903C123.694 53.4521 122.892 54.6809 121.839 55.6761C120.787 56.6712 119.513 57.4043 118.124 57.8153ZM113.402 41.7631C111.66 42.2835 110.159 43.4058 109.169 44.9282C108.179 46.4505 107.765 48.2731 108 50.0683C108.236 51.8635 109.107 53.5136 110.456 54.7219C111.805 55.9302 113.543 56.6175 115.359 56.6603C117.175 56.7031 118.949 56.0985 120.363 54.9552C121.776 53.8119 122.736 52.2049 123.07 50.4231C123.404 48.6414 123.09 46.8016 122.184 45.2346C121.279 43.6676 119.841 42.4762 118.13 41.8744C116.607 41.3396 114.952 41.3007 113.402 41.7631Z" fill="#093F68"/>
<path d="M133.587 39.6492L107.447 30.4173C116.767 17.5848 128.27 13.3863 128.27 13.3863C128.27 13.3863 134.507 23.8518 133.587 39.6492Z" fill="#F56132"/>
<path d="M133.806 40.3868C133.649 40.4313 133.482 40.4281 133.328 40.3775L107.151 31.1567C107.038 31.1155 106.937 31.0488 106.855 30.9617C106.773 30.8747 106.713 30.7698 106.679 30.6552C106.645 30.5407 106.638 30.4197 106.659 30.3019C106.68 30.1841 106.728 30.0727 106.799 29.9764C116.153 17.0937 127.511 12.8422 127.986 12.676C128.153 12.6203 128.333 12.6228 128.498 12.6831C128.662 12.7434 128.801 12.8578 128.891 13.0075C129.148 13.4368 135.27 23.8404 134.35 39.6938C134.344 39.8127 134.31 39.9287 134.252 40.0327C134.193 40.1367 134.111 40.2258 134.012 40.293C133.949 40.3342 133.879 40.3658 133.806 40.3868ZM108.652 30.0485L132.865 38.5797C133.261 30.2113 131.548 21.8852 127.883 14.3619C120.264 17.91 113.652 23.3034 108.652 30.0485Z" fill="#093F68"/>
<path d="M111.817 64.6332C112.14 63.7262 111.67 62.732 110.767 62.4128C109.865 62.0935 108.871 62.5699 108.548 63.4769L98.0408 92.9873C97.7178 93.8943 98.1878 94.8884 99.0904 95.2077C99.993 95.527 100.986 95.0505 101.309 94.1435L111.817 64.6332Z" fill="#FFBC0E"/>
<path d="M100.375 95.9648C99.9296 96.0959 99.4571 96.102 99.0094 95.9824C98.5617 95.8628 98.1564 95.6221 97.838 95.2869C97.5196 94.9517 97.3005 94.535 97.205 94.0827C97.1094 93.6305 97.1411 93.1602 97.2965 92.7238L107.874 63.209C107.981 62.8971 108.15 62.6097 108.371 62.3641C108.591 62.1185 108.86 61.9197 109.159 61.7798C109.609 61.5628 110.113 61.4841 110.606 61.5536C111.1 61.6231 111.561 61.8378 111.931 62.1702C112.301 62.5026 112.563 62.9377 112.683 63.42C112.803 63.9023 112.777 64.4099 112.607 64.8781L102.029 94.3929C101.804 95.021 101.34 95.5356 100.737 95.8244C100.619 95.878 100.498 95.9249 100.375 95.9648ZM109.96 63.115L109.812 63.1594C109.697 63.2155 109.593 63.2937 109.508 63.3895C109.423 63.4852 109.358 63.5967 109.316 63.7175L98.7387 93.2323C98.6956 93.3517 98.6765 93.4783 98.6826 93.6049C98.6887 93.7314 98.7198 93.8555 98.7741 93.9699C98.8283 94.0842 98.9048 94.1867 98.999 94.2715C99.0932 94.3562 99.2033 94.4215 99.323 94.4636C99.5659 94.5495 99.8333 94.5357 100.067 94.4251C100.3 94.3146 100.48 94.1164 100.568 93.8741L111.145 64.3593C111.208 64.1914 111.222 64.0097 111.187 63.8345C111.151 63.6593 111.068 63.4975 110.945 63.3674C110.823 63.2372 110.666 63.1437 110.493 63.0975C110.32 63.0512 110.137 63.054 109.965 63.1054L109.96 63.115Z" fill="#093F68"/>
<path d="M120.606 53.2C120.446 53.2475 120.275 53.2421 120.119 53.1848C119.963 53.1275 119.829 53.0213 119.739 52.882C119.648 52.7428 119.606 52.5779 119.617 52.412C119.628 52.2462 119.693 52.0882 119.801 51.9616C120.373 51.0837 120.688 50.0652 120.71 49.0207C120.883 46.4287 118.493 44.9651 118.391 44.8914C118.214 44.7875 118.086 44.6178 118.036 44.4196C117.985 44.2215 118.015 44.011 118.12 43.8347C118.225 43.6583 118.396 43.5304 118.595 43.4792C118.794 43.4279 119.005 43.4575 119.181 43.5614C119.318 43.641 122.486 45.5471 122.237 49.0783C122.206 50.4555 121.76 51.7932 120.958 52.9178C120.872 53.0446 120.749 53.1428 120.606 53.2Z" fill="white"/>
<path d="M118.172 55.3923C117.979 55.4628 117.766 55.4541 117.58 55.3682C117.394 55.2822 117.251 55.1261 117.181 54.9341C117.111 54.742 117.12 54.5299 117.207 54.3443C117.294 54.1586 117.451 54.0147 117.644 53.9442C118.099 53.7159 118.528 53.4369 118.92 53.1126C119.078 52.993 119.275 52.9382 119.472 52.9594C119.668 52.9806 119.849 53.0762 119.977 53.2264C120.104 53.3767 120.169 53.5702 120.157 53.7671C120.145 53.964 120.058 54.1492 119.914 54.2846C119.409 54.7052 118.856 55.0649 118.266 55.3561L118.172 55.3923Z" fill="white"/>
<path d="M39.0662 92.9675C38.9061 93.0185 38.7339 93.0162 38.5757 92.9608C38.4174 92.9055 38.2818 92.8002 38.1892 92.6608C38.0967 92.5215 38.0524 92.3557 38.0629 92.1886C38.0735 92.0215 38.1383 91.8621 38.2477 91.7347L41.0094 88.4423C41.0744 88.364 41.1543 88.2993 41.2444 88.2518C41.3345 88.2043 41.433 88.175 41.5344 88.1655C41.6357 88.1561 41.7379 88.1667 41.835 88.1968C41.9321 88.2269 42.0221 88.2758 42.1001 88.3407C42.2556 88.4712 42.3529 88.6579 42.3708 88.8602C42.3888 89.0624 42.3258 89.2638 42.1957 89.4205L39.4362 92.7202C39.3397 92.8369 39.211 92.9229 39.0662 92.9675Z" fill="#DFEAEF"/>
<path d="M41.6087 94.7906C41.4875 94.8271 41.3592 94.8334 41.2352 94.8089C41.1112 94.7844 40.9953 94.7299 40.8976 94.6501C40.8193 94.5856 40.7546 94.5062 40.7073 94.4165C40.66 94.3268 40.631 94.2287 40.6219 94.1277C40.6128 94.0266 40.6239 93.9247 40.6544 93.8278C40.6849 93.7309 40.7343 93.6409 40.7997 93.563L43.2667 90.6078C43.3984 90.4501 43.5873 90.3509 43.7918 90.3318C43.9964 90.3128 44.1998 90.3755 44.3574 90.5062C44.515 90.6369 44.6139 90.8249 44.6322 91.0287C44.6505 91.2326 44.5869 91.4357 44.4552 91.5933L41.9882 94.5485C41.8885 94.6649 41.7564 94.7492 41.6087 94.7906Z" fill="#DFEAEF"/>
<path d="M44.0147 96.6705C43.8561 96.7167 43.6871 96.711 43.5324 96.6544C43.3777 96.5978 43.2454 96.4931 43.155 96.3559C43.0645 96.2186 43.0206 96.0559 43.0298 95.8916C43.0389 95.7273 43.1006 95.57 43.2057 95.4428L45.6727 92.4877C45.7352 92.4033 45.8143 92.3324 45.9051 92.2795C45.9959 92.2265 46.0965 92.1925 46.2008 92.1796C46.3051 92.1667 46.4108 92.1751 46.5115 92.2043C46.6123 92.2336 46.7059 92.283 46.7867 92.3496C46.8675 92.4162 46.9337 92.4986 46.9814 92.5918C47.0291 92.6849 47.0571 92.7868 47.0639 92.8913C47.0707 92.9958 47.056 93.1006 47.0207 93.1994C46.9855 93.2982 46.9305 93.3889 46.859 93.4658L44.392 96.421C44.2939 96.5398 44.1624 96.6266 44.0147 96.6705Z" fill="#DFEAEF"/>
<path d="M52.9578 80.2902C52.7982 80.3358 52.6282 80.329 52.4732 80.2708C52.3181 80.2127 52.1862 80.1062 52.0969 79.9672C52.0075 79.8281 51.9656 79.664 51.9772 79.4989C51.9889 79.3339 52.0535 79.1768 52.1615 79.0509L70.6777 57.8256C70.7445 57.7492 70.8256 57.6866 70.9165 57.6414C71.0074 57.5962 71.1062 57.5692 71.2074 57.562C71.3086 57.5549 71.4101 57.5676 71.5062 57.5996C71.6023 57.6316 71.6911 57.6821 71.7675 57.7484C71.8438 57.8146 71.9063 57.8953 71.9513 57.9857C71.9964 58.0762 72.023 58.1746 72.0298 58.2755C72.0367 58.3764 72.0235 58.4776 71.9911 58.5736C71.9586 58.6695 71.9076 58.7582 71.8409 58.8346L53.3246 80.0599C53.2267 80.1699 53.0994 80.2498 52.9578 80.2902Z" fill="#DFEAEF"/>
<path d="M106.862 127.832C106.813 127.854 106.76 127.87 106.707 127.878C106.502 127.893 106.301 127.827 106.146 127.694C105.992 127.561 105.897 127.372 105.882 127.169C105.463 121.668 99.7043 120.217 99.4594 120.153C99.2677 120.099 99.1046 119.974 99.0041 119.802C98.9035 119.631 98.8734 119.427 98.92 119.234C98.9666 119.041 99.0863 118.872 99.2541 118.764C99.4219 118.656 99.6248 118.617 99.8204 118.655C99.8907 118.674 106.918 120.429 107.414 127.056C107.422 127.228 107.372 127.397 107.272 127.538C107.172 127.679 107.028 127.782 106.862 127.832Z" fill="#093F68"/>
<defs>
<radialGradient id="paint0_radial_233:233" cx="0" cy="0" r="1" gradientUnits="userSpaceOnUse" gradientTransform="translate(96.5466 77) rotate(90) scale(77 83)">
<stop stop-color="#F5D0C0"/>
<stop offset="1" stop-color="#FCEEC8" stop-opacity="0"/>
</radialGradient>
</defs>
</svg>
