<svg width="287" height="221" viewBox="0 0 287 221" fill="none" xmlns="http://www.w3.org/2000/svg">
<path d="M284.756 147.885C284.756 147.885 276.296 143.374 261.5 142.102L258.68 157.259L284.756 147.885Z" fill="#231F20"/>
<path d="M258.633 157.701C258.522 157.703 258.415 157.664 258.332 157.593C258.267 157.543 258.216 157.478 258.186 157.403C258.157 157.329 258.149 157.248 258.163 157.169L261.03 142.011C261.053 141.901 261.117 141.802 261.21 141.734C261.304 141.666 261.42 141.633 261.538 141.642C276.286 142.923 284.887 147.434 284.972 147.479C285.049 147.521 285.114 147.583 285.157 147.658C285.2 147.732 285.22 147.817 285.216 147.903C285.212 147.989 285.181 148.072 285.127 148.141C285.074 148.21 285 148.262 284.915 148.291L258.793 157.701C258.74 157.71 258.686 157.71 258.633 157.701ZM261.876 142.58L259.244 156.546L283.571 147.813C280.995 146.667 273.4 143.644 261.876 142.589V142.58Z" fill="#231F20"/>
<path d="M165.592 153.939L166.24 183.333C166.271 184.723 166.803 186.059 167.746 187.114C168.689 188.169 169.984 188.877 171.41 189.117L189.27 192.121C190.538 192.333 191.843 192.164 193.008 191.638C194.172 191.111 195.138 190.253 195.775 189.18L203.934 175.466L199.216 173.373L192.307 185.426C191.916 186.105 191.316 186.65 190.588 186.986C189.861 187.323 189.042 187.433 188.246 187.303L174.588 185.057C173.696 184.91 172.887 184.469 172.298 183.81C171.709 183.151 171.379 182.315 171.363 181.448L170.696 158.324L165.592 153.939Z" fill="#231F20"/>
<path d="M190.37 192.653C189.986 192.654 189.602 192.624 189.223 192.563L171.363 189.559C169.832 189.297 168.443 188.535 167.43 187.402C166.418 186.269 165.844 184.835 165.808 183.342L165.159 153.948C165.158 153.861 165.183 153.776 165.232 153.702C165.28 153.628 165.349 153.57 165.432 153.533C165.514 153.495 165.607 153.482 165.697 153.495C165.787 153.508 165.872 153.546 165.939 153.605L171.034 158.026C171.127 158.108 171.184 158.221 171.194 158.342L171.861 181.475C171.882 182.229 172.175 182.953 172.689 183.524C173.203 184.094 173.907 184.477 174.681 184.606L188.34 186.861C189.04 186.977 189.761 186.881 190.401 186.585C191.041 186.289 191.57 185.808 191.912 185.21L198.83 173.156C198.886 173.057 198.98 172.982 199.092 172.947C199.203 172.911 199.325 172.919 199.432 172.967L204.179 175.06C204.238 175.086 204.292 175.123 204.335 175.17C204.379 175.216 204.412 175.271 204.432 175.331C204.458 175.388 204.471 175.449 204.471 175.511C204.471 175.573 204.458 175.635 204.432 175.692L196.273 189.405C195.679 190.401 194.818 191.227 193.781 191.798C192.743 192.369 191.566 192.664 190.37 192.653ZM166.08 154.995L166.701 183.351C166.734 184.636 167.228 185.87 168.1 186.845C168.972 187.819 170.168 188.475 171.485 188.702L189.345 191.706C190.516 191.898 191.72 191.742 192.796 191.258C193.871 190.774 194.766 189.986 195.361 188.999L203.257 175.71L199.375 173.995L192.701 185.67C192.266 186.43 191.595 187.041 190.781 187.418C189.968 187.795 189.052 187.919 188.161 187.772L174.493 185.526C173.504 185.358 172.604 184.868 171.947 184.139C171.289 183.409 170.914 182.484 170.884 181.52L170.226 158.585L166.08 154.995Z" fill="#231F20"/>
<path d="M174.775 145.611V156.438C174.775 160.543 186.995 163.881 202.12 163.881C217.245 163.881 229.465 160.543 229.465 156.438V145.611H174.775Z" fill="white"/>
<path d="M202.139 164.368C188.462 164.368 174.324 161.409 174.324 156.474V145.647C174.324 145.528 174.374 145.413 174.462 145.328C174.55 145.244 174.67 145.196 174.794 145.196H229.484C229.608 145.196 229.728 145.244 229.816 145.328C229.904 145.413 229.954 145.528 229.954 145.647V156.474C229.954 161.409 215.806 164.368 202.139 164.368ZM175.264 146.062V156.474C175.264 159.848 186.065 163.466 202.139 163.466C218.213 163.466 229.014 159.857 229.014 156.474V146.062H175.264Z" fill="#231F20"/>
<path d="M202.139 153.055C217.241 153.055 229.483 149.722 229.483 145.611C229.483 141.5 217.241 138.168 202.139 138.168C187.037 138.168 174.794 141.5 174.794 145.611C174.794 149.722 187.037 153.055 202.139 153.055Z" fill="#231F20"/>
<path d="M202.139 153.506C188.462 153.506 174.324 150.555 174.324 145.611C174.324 140.667 188.424 137.717 202.139 137.717C215.853 137.717 229.954 140.667 229.954 145.611C229.954 150.555 215.806 153.506 202.139 153.506ZM202.139 138.619C186.065 138.619 175.264 142.228 175.264 145.611C175.264 148.995 186.065 152.603 202.139 152.603C218.213 152.603 229.014 148.995 229.014 145.611C229.014 142.228 218.213 138.619 202.139 138.619Z" fill="#231F20"/>
<path d="M171.231 132.736V143.563C171.231 147.677 183.451 151.006 198.576 151.006C213.701 151.006 225.921 147.677 225.921 143.563V132.736H171.231Z" fill="white"/>
<path d="M198.576 151.494C184.909 151.494 170.762 148.543 170.762 143.599V132.772C170.764 132.653 170.814 132.54 170.902 132.456C170.99 132.372 171.108 132.324 171.232 132.321H225.921C226.046 132.321 226.165 132.369 226.253 132.453C226.341 132.538 226.391 132.653 226.391 132.772V143.599C226.391 148.543 212.253 151.494 198.576 151.494ZM171.702 133.187V143.599C171.702 146.973 182.502 150.591 198.576 150.591C214.65 150.591 225.451 146.982 225.451 143.599V133.187H171.702Z" fill="#231F20"/>
<path d="M198.576 140.18C213.678 140.18 225.921 136.847 225.921 132.736C225.921 128.625 213.678 125.293 198.576 125.293C183.474 125.293 171.231 128.625 171.231 132.736C171.231 136.847 183.474 140.18 198.576 140.18Z" fill="#231F20"/>
<path d="M198.576 140.631C184.909 140.631 170.762 137.681 170.762 132.737C170.762 127.793 184.909 124.842 198.576 124.842C212.244 124.842 226.391 127.802 226.391 132.737C226.391 137.672 212.253 140.631 198.576 140.631ZM198.576 125.745C182.502 125.745 171.702 129.353 171.702 132.737C171.702 136.12 182.502 139.729 198.576 139.729C214.65 139.729 225.451 136.12 225.451 132.737C225.451 129.353 214.65 125.745 198.576 125.745Z" fill="#231F20"/>
<path d="M175.64 117.101V127.928C175.64 132.042 187.86 135.371 202.985 135.371C218.109 135.371 230.329 132.042 230.329 127.928V117.101H175.64Z" fill="white"/>
<path d="M202.976 135.813C189.308 135.813 175.161 132.863 175.161 127.919V117.101C175.163 116.982 175.214 116.869 175.301 116.785C175.389 116.7 175.507 116.652 175.631 116.65H230.33C230.453 116.652 230.572 116.7 230.659 116.785C230.747 116.869 230.797 116.982 230.8 117.101V127.928C230.8 132.863 216.653 135.813 202.976 135.813ZM176.101 117.507V127.928C176.101 131.302 186.902 134.92 202.976 134.92C219.05 134.92 229.85 131.311 229.85 127.928V117.507H176.101Z" fill="#231F20"/>
<path d="M202.985 124.499C218.087 124.499 230.329 121.167 230.329 117.056C230.329 112.945 218.087 109.613 202.985 109.613C187.883 109.613 175.64 112.945 175.64 117.056C175.64 121.167 187.883 124.499 202.985 124.499Z" fill="#231F20"/>
<path d="M202.976 124.95C189.308 124.95 175.161 122 175.161 117.056C175.161 112.112 189.308 109.162 202.976 109.162C216.643 109.162 230.79 112.121 230.79 117.056C230.79 121.991 216.653 124.95 202.976 124.95ZM202.976 110.064C186.901 110.064 176.101 113.673 176.101 117.056C176.101 120.439 186.901 124.048 202.976 124.048C219.05 124.048 229.85 120.439 229.85 117.056C229.85 113.673 219.059 110.064 202.976 110.064Z" fill="#231F20"/>
<path d="M171.231 101.321V112.148C171.231 116.262 183.451 119.591 198.576 119.591C213.701 119.591 225.921 116.262 225.921 112.148V101.321H171.231Z" fill="white"/>
<path d="M198.576 120.07C184.909 120.07 170.762 117.119 170.762 112.175V101.349C170.762 101.229 170.811 101.114 170.899 101.03C170.988 100.945 171.107 100.897 171.232 100.897H225.921C226.046 100.897 226.165 100.945 226.253 101.03C226.341 101.114 226.391 101.229 226.391 101.349V112.175C226.391 117.101 212.253 120.07 198.576 120.07ZM171.702 101.764V112.166C171.702 115.55 182.502 119.158 198.576 119.158C214.65 119.158 225.451 115.55 225.451 112.166V101.764H171.702Z" fill="#231F20"/>
<path d="M198.576 108.765C213.678 108.765 225.921 105.432 225.921 101.321C225.921 97.2104 213.678 93.8779 198.576 93.8779C183.474 93.8779 171.231 97.2104 171.231 101.321C171.231 105.432 183.474 108.765 198.576 108.765Z" fill="#231F20"/>
<path d="M198.576 109.216C184.909 109.216 170.762 106.256 170.762 101.321C170.762 96.386 184.909 93.4268 198.576 93.4268C212.244 93.4268 226.391 96.377 226.391 101.321C226.391 106.265 212.253 109.216 198.576 109.216ZM198.576 94.329C182.502 94.329 171.702 97.9379 171.702 101.321C171.702 104.705 182.502 108.313 198.576 108.313C214.65 108.313 225.451 104.705 225.451 101.321C225.451 97.9379 214.65 94.329 198.576 94.329Z" fill="#231F20"/>
<path d="M180.049 88.4463V99.273C180.049 103.378 192.269 106.716 207.394 106.716C222.518 106.716 234.729 103.378 234.729 99.273V88.4463H180.049Z" fill="white"/>
<path d="M207.393 107.177C193.716 107.177 179.579 104.217 179.579 99.2822V88.4555C179.579 88.3359 179.628 88.2211 179.716 88.1365C179.804 88.0519 179.924 88.0044 180.049 88.0044H234.738C234.862 88.0044 234.982 88.0519 235.07 88.1365C235.158 88.2211 235.208 88.3359 235.208 88.4555V99.2822C235.208 104.244 221.061 107.177 207.393 107.177ZM180.519 88.8705V99.2822C180.519 102.656 191.319 106.274 207.393 106.274C223.467 106.274 234.268 102.666 234.268 99.2822V88.8976L180.519 88.8705Z" fill="#231F20"/>
<path d="M207.394 95.8901C222.496 95.8901 234.738 92.5576 234.738 88.4467C234.738 84.3359 222.496 81.0034 207.394 81.0034C192.292 81.0034 180.049 84.3359 180.049 88.4467C180.049 92.5576 192.292 95.8901 207.394 95.8901Z" fill="#231F20"/>
<path d="M207.393 96.35C193.716 96.35 179.579 93.3997 179.579 88.4555C179.579 83.5113 193.679 80.561 207.393 80.561C221.108 80.561 235.208 83.5113 235.208 88.4555C235.208 93.3997 221.061 96.35 207.393 96.35ZM207.393 81.4633C191.319 81.4633 180.519 85.0722 180.519 88.4555C180.519 91.8388 191.319 95.4477 207.393 95.4477C223.467 95.4477 234.268 91.8388 234.268 88.4555C234.268 85.0722 223.467 81.4542 207.393 81.4542V81.4633Z" fill="#231F20"/>
<path d="M174.052 75.5986V86.4253C174.052 90.5304 186.272 93.8687 201.396 93.8687C216.521 93.8687 228.732 90.5304 228.732 86.4253V75.5986H174.052Z" fill="white"/>
<path d="M201.396 94.3292C187.719 94.3292 173.582 91.3699 173.582 86.4347V75.5991C173.582 75.4794 173.631 75.3647 173.719 75.2801C173.807 75.1955 173.927 75.1479 174.052 75.1479H228.731C228.856 75.1479 228.976 75.1955 229.064 75.2801C229.152 75.3647 229.201 75.4794 229.201 75.5991V86.4257C229.201 91.3699 215.064 94.3292 201.396 94.3292ZM174.522 76.0231V86.4257C174.522 89.8 185.322 93.4179 201.396 93.4179C217.47 93.4179 228.261 89.8091 228.261 86.4257V76.0231H174.522Z" fill="#231F20"/>
<path d="M201.396 83.0156C216.498 83.0156 228.741 79.6831 228.741 75.5722C228.741 71.4614 216.498 68.1289 201.396 68.1289C186.294 68.1289 174.052 71.4614 174.052 75.5722C174.052 79.6831 186.294 83.0156 201.396 83.0156Z" fill="white"/>
<path d="M201.396 83.4667C187.719 83.4667 173.582 80.5164 173.582 75.5722C173.582 70.628 187.682 67.6777 201.396 67.6777C215.111 67.6777 229.201 70.628 229.201 75.5722C229.201 80.5164 215.064 83.4667 201.396 83.4667ZM201.396 68.58C185.322 68.58 174.522 72.1889 174.522 75.5722C174.522 78.9555 185.322 82.5644 201.396 82.5644C217.47 82.5644 228.261 78.9555 228.261 75.5722C228.261 72.1889 217.47 68.58 201.396 68.58Z" fill="#231F20"/>
<path d="M201.396 80.5338C190.05 80.5338 177.99 78.7926 177.99 75.5716C177.99 72.3507 190.05 70.6094 201.396 70.6094C212.742 70.6094 224.802 72.3507 224.802 75.5716C224.802 78.7926 212.742 80.5338 201.396 80.5338ZM201.396 71.5116C187.475 71.5116 178.93 73.8754 178.93 75.5716C178.93 77.2678 187.475 79.6316 201.396 79.6316C215.318 79.6316 223.862 77.2678 223.862 75.5716C223.862 73.8754 215.308 71.5116 201.396 71.5116Z" fill="#D1D3D4"/>
<path d="M220.619 134.333L219.877 145.16C219.595 149.256 231.58 153.361 246.648 154.318C261.716 155.274 274.152 152.739 274.415 148.679L275.158 137.852L220.619 134.333Z" fill="white"/>
<path d="M252.711 154.994C250.69 154.994 248.641 154.931 246.61 154.796C240.057 154.477 233.577 153.324 227.34 151.367C223.58 150.095 219.209 147.975 219.407 145.151L220.159 134.324C220.162 134.265 220.177 134.208 220.205 134.155C220.233 134.102 220.271 134.055 220.319 134.018C220.363 133.977 220.417 133.946 220.475 133.928C220.534 133.909 220.596 133.903 220.657 133.909L275.224 137.383C275.285 137.386 275.345 137.401 275.401 137.428C275.456 137.454 275.505 137.49 275.545 137.534C275.586 137.579 275.616 137.631 275.635 137.687C275.654 137.743 275.662 137.802 275.656 137.861L274.914 148.688C274.622 152.865 264.207 154.994 252.711 154.994ZM221.061 134.83L220.347 145.214C220.225 146.955 222.894 148.886 227.66 150.519C233.817 152.44 240.211 153.578 246.676 153.903C262.713 154.922 273.739 151.999 273.936 148.625L274.651 138.24L221.061 134.83Z" fill="#231F20"/>
<path d="M275.174 137.791C275.457 133.689 263.471 129.587 248.402 128.629C233.333 127.671 220.888 130.219 220.604 134.321C220.321 138.423 232.308 142.525 247.377 143.483C262.446 144.441 274.891 141.893 275.174 137.791Z" fill="#231F20"/>
<path d="M253.669 144.168C251.62 144.168 249.505 144.096 247.362 143.961C233.723 143.058 219.811 139.251 220.158 134.316C220.506 129.381 234.813 127.342 248.453 128.208C255.005 128.536 261.483 129.688 267.723 131.636C271.483 132.917 275.854 135.029 275.656 137.853C275.459 140.677 270.806 142.21 266.933 143.004C262.565 143.826 258.12 144.216 253.669 144.168ZM242.051 128.903C229.511 128.903 221.296 131.474 221.089 134.379C220.863 137.744 231.429 142.039 247.409 143.058C253.858 143.582 260.351 143.279 266.717 142.156C271.671 141.146 274.584 139.567 274.697 137.826C274.819 136.093 272.15 134.154 267.384 132.52C261.227 130.599 254.834 129.464 248.368 129.146C246.215 128.948 244.063 128.885 242.051 128.885V128.903Z" fill="#231F20"/>
<path d="M228.073 119.889L227.331 130.716C227.039 134.812 239.024 138.917 254.093 139.873C269.161 140.83 281.606 138.285 281.888 134.189L282.64 123.363L228.073 119.889Z" fill="white"/>
<path d="M260.155 140.559C258.144 140.559 256.095 140.496 254.064 140.361C247.511 140.043 241.031 138.891 234.794 136.932C231.034 135.66 226.663 133.54 226.861 130.716L227.603 119.889C227.617 119.771 227.678 119.663 227.772 119.586C227.866 119.509 227.987 119.469 228.111 119.474L282.631 122.948C282.757 122.955 282.876 123.01 282.96 123.101C283.039 123.192 283.079 123.308 283.073 123.426L282.321 134.253C282.067 138.421 271.661 140.559 260.155 140.559ZM228.515 120.394L227.801 130.779C227.678 132.52 230.339 134.451 235.114 136.084C241.271 138.006 247.664 139.14 254.13 139.458C270.167 140.487 281.193 137.564 281.39 134.189L282.104 123.805L228.515 120.394Z" fill="#231F20"/>
<path d="M282.628 123.345C282.911 119.243 270.924 115.142 255.855 114.183C240.786 113.225 228.341 115.774 228.058 119.876C227.775 123.978 239.761 128.079 254.83 129.038C269.899 129.996 282.344 127.447 282.628 123.345Z" fill="#231F20"/>
<path d="M260.908 129.732C258.896 129.732 256.847 129.669 254.816 129.534C248.263 129.217 241.783 128.064 235.546 126.105C231.786 124.833 227.416 122.713 227.604 119.889C227.792 117.065 232.463 115.531 236.336 114.737C242.787 113.591 249.368 113.27 255.907 113.781C269.546 114.683 283.449 118.491 283.11 123.426C282.819 127.585 272.413 129.732 260.908 129.732ZM249.628 114.476C245.243 114.427 240.865 114.811 236.562 115.621C231.608 116.632 228.703 118.211 228.581 119.952C228.459 121.693 231.129 123.624 235.904 125.257C242.057 127.179 248.448 128.314 254.91 128.632C270.956 129.66 281.973 126.737 282.17 123.363C282.405 119.997 271.877 115.703 255.85 114.683C253.735 114.512 251.62 114.44 249.59 114.44L249.628 114.476Z" fill="#231F20"/>
<path d="M223.655 102.973L222.913 113.799C222.631 117.904 234.616 122.001 249.675 122.966C264.733 123.931 277.188 121.378 277.47 117.273L278.222 106.446L223.655 102.973Z" fill="white"/>
<path d="M255.719 123.615C253.707 123.615 251.658 123.552 249.628 123.426C243.075 123.1 236.596 121.947 230.358 119.997C226.598 118.716 222.227 116.605 222.424 113.781L223.167 102.954C223.174 102.833 223.232 102.719 223.326 102.638C223.424 102.561 223.548 102.523 223.674 102.53L278.194 106.004C278.321 106.011 278.439 106.066 278.523 106.157C278.564 106.201 278.595 106.253 278.614 106.308C278.634 106.364 278.641 106.423 278.636 106.482L277.884 117.309C277.63 121.504 267.224 123.615 255.719 123.615ZM224.078 103.45L223.364 113.835C223.242 115.576 225.902 117.507 230.677 119.14C236.833 121.067 243.227 122.201 249.693 122.514C265.73 123.534 276.756 120.611 276.953 117.245L277.668 106.852L224.078 103.45Z" fill="#231F20"/>
<path d="M278.18 106.429C278.463 102.327 266.477 98.2251 251.408 97.2669C236.339 96.3088 223.894 98.8573 223.611 102.959C223.328 107.061 235.314 111.163 250.383 112.121C265.452 113.079 277.897 110.531 278.18 106.429Z" fill="white"/>
<path d="M256.471 112.78C254.459 112.78 252.41 112.717 250.38 112.59C236.74 111.688 222.828 107.872 223.167 102.945C223.505 98.0193 237.831 95.9623 251.47 96.8284C265.11 97.6945 279.012 101.547 278.674 106.473C278.382 110.668 267.977 112.78 256.471 112.78ZM245.069 97.5231C232.529 97.5231 224.313 100.094 224.107 103C223.872 106.374 234.4 110.668 250.427 111.688C266.454 112.708 277.489 109.784 277.687 106.419C277.922 103.045 267.394 98.7501 251.367 97.7306C249.186 97.5983 247.087 97.5291 245.069 97.5231Z" fill="#231F20"/>
<path d="M257.693 109.883C255.418 109.883 252.993 109.811 250.577 109.658C239.297 108.936 227.34 106.428 227.566 103.216C227.669 101.727 230.132 100.662 234.898 100.04C240.33 99.4351 245.811 99.3354 251.263 99.7422C262.59 100.464 274.5 102.963 274.274 106.184C274.171 107.664 271.708 108.737 266.952 109.36C263.881 109.732 260.788 109.907 257.693 109.883ZM244.147 100.41C241.096 100.391 238.047 100.565 235.02 100.933C230.32 101.556 228.553 102.584 228.506 103.27C228.393 104.966 236.749 107.871 250.643 108.755C256.032 109.161 261.45 109.064 266.82 108.467C271.52 107.844 273.287 106.816 273.334 106.13C273.457 104.434 265.09 101.529 251.197 100.644C248.772 100.5 246.403 100.419 244.147 100.419V100.41Z" fill="#D1D3D4"/>
<path d="M188.406 140.73C204.541 140.73 217.621 128.176 217.621 112.689C217.621 97.2024 204.541 84.6479 188.406 84.6479C172.271 84.6479 159.19 97.2024 159.19 112.689C159.19 128.176 172.271 140.73 188.406 140.73Z" fill="#231F20"/>
<path d="M188.387 141.182C182.589 141.183 176.918 139.554 172.073 136.497C167.228 133.44 163.423 129.089 161.125 123.979C158.828 118.87 158.14 113.227 159.145 107.747C160.151 102.266 162.807 97.1885 166.785 93.1403C170.763 89.092 175.889 86.2504 181.53 84.9663C187.172 83.6821 193.081 84.0117 198.53 85.9142C203.978 87.8167 208.727 91.2089 212.189 95.6721C215.652 100.135 217.678 105.474 218.015 111.029C218.465 118.57 215.78 125.975 210.55 131.619C205.32 137.263 197.972 140.685 190.116 141.137C189.552 141.164 188.96 141.182 188.387 141.182ZM188.387 85.0905C187.823 85.0905 187.259 85.0905 186.685 85.1446C179.182 85.598 172.167 88.8662 167.154 94.2432C162.141 99.6202 159.533 106.674 159.894 113.881C160.254 121.089 163.555 127.87 169.082 132.761C174.609 137.652 181.919 140.26 189.432 140.021C196.945 139.782 204.059 136.715 209.237 131.483C214.414 126.252 217.239 119.275 217.102 112.061C216.965 104.847 213.876 97.9741 208.503 92.9276C203.13 87.8811 195.904 85.066 188.387 85.0905Z" fill="#231F20"/>
<path d="M183.893 140.983C200.029 140.983 213.109 128.429 213.109 112.942C213.109 97.4553 200.029 84.9009 183.893 84.9009C167.758 84.9009 154.678 97.4553 154.678 112.942C154.678 128.429 167.758 140.983 183.893 140.983Z" fill="white"/>
<path d="M183.856 141.461C178.056 141.455 172.385 139.82 167.542 136.757C162.699 133.693 158.897 129.336 156.604 124.223C154.31 119.11 153.627 113.464 154.638 107.983C155.649 102.501 158.309 97.4234 162.291 93.3761C166.274 89.3288 171.403 86.4891 177.047 85.2071C182.691 83.9252 188.603 84.2573 194.052 86.1623C199.502 88.0673 204.251 91.462 207.715 95.9274C211.178 100.393 213.203 105.734 213.541 111.291C213.993 118.837 211.307 126.248 206.073 131.896C200.839 137.543 193.484 140.968 185.623 141.416C185.031 141.461 184.439 141.461 183.856 141.461ZM183.931 85.3702C183.354 85.3702 182.781 85.3882 182.211 85.4243C176.537 85.7424 171.089 87.6683 166.555 90.9584C162.021 94.2486 158.606 98.7552 156.741 103.908C154.876 109.062 154.645 114.63 156.078 119.909C157.51 125.188 160.541 129.941 164.788 133.567C169.035 137.192 174.306 139.528 179.936 140.277C185.566 141.027 191.301 140.158 196.416 137.779C201.53 135.401 205.796 131.62 208.672 126.915C211.548 122.209 212.905 116.791 212.573 111.345C212.146 104.328 208.944 97.7313 203.621 92.9036C198.298 88.0759 191.255 85.3813 183.931 85.3702Z" fill="#231F20"/>
<path d="M183.875 135.001C177.848 134.831 172.133 132.391 167.965 128.209C163.797 124.028 161.51 118.44 161.599 112.654C161.688 106.867 164.145 101.347 168.44 97.285C172.735 93.2232 178.522 90.9463 184.551 90.9463C190.581 90.9463 196.368 93.2232 200.663 97.285C204.958 101.347 207.415 106.867 207.504 112.654C207.593 118.44 205.306 124.028 201.138 128.209C196.97 132.391 191.255 134.831 185.228 135.001C184.777 134.983 184.326 135.001 183.875 135.001ZM183.875 91.7848C183.433 91.7848 183 91.7848 182.559 91.7848C176.777 91.9507 171.295 94.2929 167.298 98.3056C163.301 102.318 161.108 107.679 161.195 113.23C161.281 118.781 163.639 124.077 167.76 127.973C171.88 131.869 177.432 134.053 183.217 134.053C189.001 134.053 194.553 131.869 198.673 127.973C202.794 124.077 205.152 118.781 205.238 113.23C205.325 107.679 203.132 102.318 199.135 98.3056C195.138 94.2929 189.656 91.9507 183.875 91.7848Z" fill="#D1D3D4"/>
<path d="M185.642 96.8281C185.642 97.0447 185.689 97.2702 185.708 97.4867C185.783 98.7859 185.868 100.085 185.943 101.384C185.943 101.601 186.018 101.673 186.262 101.691C187.674 101.71 189.073 101.945 190.408 102.386C191.347 102.68 192.171 103.243 192.768 103.999C193.364 104.756 193.705 105.669 193.745 106.617C193.905 107.666 193.707 108.735 193.181 109.667C192.856 110.184 192.428 110.635 191.921 110.993L191.413 111.318C191.752 111.408 192.043 111.462 192.353 111.543C193.011 111.687 193.63 111.961 194.171 112.348C194.712 112.735 195.162 113.226 195.493 113.79C195.786 114.359 195.989 114.967 196.095 115.594C196.299 116.757 196.219 117.949 195.86 119.077C195.619 119.875 195.193 120.611 194.613 121.228C194.034 121.845 193.316 122.328 192.513 122.641C191.018 123.254 189.432 123.637 187.813 123.777C187.221 123.85 187.325 123.777 187.353 124.319C187.428 125.663 187.522 127.025 187.597 128.37V128.713L184.514 128.893L184.222 124.102L181.797 124.238L182.089 129.028L179.005 129.2L178.723 124.319L172.538 124.671L172.942 121.125H173.29L175.17 121.017C175.323 121.018 175.474 120.987 175.614 120.928C175.754 120.869 175.879 120.782 175.981 120.673C176.083 120.563 176.16 120.435 176.207 120.295C176.253 120.155 176.269 120.008 176.251 119.862C176.251 119.79 176.251 119.717 176.251 119.636C176.001 115.426 175.744 111.24 175.48 107.077C175.492 106.86 175.454 106.642 175.368 106.44C175.282 106.238 175.151 106.057 174.985 105.909C174.818 105.761 174.619 105.65 174.403 105.584C174.186 105.517 173.957 105.498 173.732 105.526C172.961 105.526 172.19 105.607 171.401 105.652L171.213 102.503L177.36 102.16L177.069 97.3243L180.124 97.1529C180.124 97.2702 180.124 97.3965 180.171 97.5228C180.256 98.8491 180.331 100.175 180.415 101.511V101.854L182.859 101.718L182.568 97.0086L185.642 96.8281ZM181.666 120.638H181.844C183.076 120.538 184.307 120.493 185.529 120.34C186.62 120.227 187.676 119.901 188.631 119.384C189.263 119.033 189.728 118.461 189.93 117.788C190.131 117.115 190.053 116.394 189.712 115.775C189.474 115.395 189.156 115.067 188.779 114.81C188.402 114.554 187.974 114.376 187.522 114.286C186.147 113.973 184.727 113.878 183.32 114.006L181.271 114.115L181.666 120.638ZM181.092 111.264C182.22 111.155 183.329 111.11 184.41 110.921C185.19 110.805 185.945 110.57 186.648 110.226C187.036 110.041 187.37 109.766 187.619 109.426C187.868 109.086 188.025 108.692 188.076 108.279C188.126 107.865 188.068 107.447 187.908 107.061C187.747 106.674 187.488 106.333 187.155 106.067C186.493 105.588 185.699 105.305 184.871 105.255C183.599 105.133 182.317 105.133 181.045 105.255C180.782 105.255 180.707 105.336 180.716 105.598C180.838 107.357 180.942 109.107 181.045 110.867C181.055 111.002 181.073 111.092 181.092 111.264Z" fill="#F5D0C0"/>
<path d="M244.326 164.982C260.461 164.982 273.542 152.428 273.542 136.941C273.542 121.454 260.461 108.9 244.326 108.9C228.191 108.9 215.111 121.454 215.111 136.941C215.111 152.428 228.191 164.982 244.326 164.982Z" fill="#231F20"/>
<path d="M244.336 165.442C238.079 165.44 231.983 163.54 226.917 160.015C221.852 156.49 218.076 151.519 216.129 145.812C214.181 140.105 214.162 133.954 216.073 128.235C217.984 122.517 221.728 117.524 226.771 113.969C231.814 110.415 237.898 108.48 244.154 108.441C250.411 108.401 256.521 110.26 261.612 113.751C266.702 117.243 270.514 122.188 272.503 127.882C274.492 133.576 274.556 139.727 272.686 145.458C270.787 151.249 267.015 156.309 261.917 159.902C256.819 163.496 250.661 165.436 244.336 165.442ZM244.336 109.342C237.086 109.336 230.101 111.958 224.78 116.684C219.459 121.41 216.194 127.89 215.639 134.828C215.084 141.766 217.28 148.65 221.787 154.1C226.294 159.55 232.78 163.165 239.946 164.221C247.112 165.276 254.429 163.695 260.432 159.794C266.434 155.892 270.68 149.958 272.319 143.18C273.958 136.401 272.869 129.279 269.269 123.239C265.67 117.199 259.826 112.686 252.908 110.605C250.133 109.771 247.243 109.346 244.336 109.342Z" fill="#231F20"/>
<path d="M240.012 163.683C256.147 163.683 269.227 151.128 269.227 135.642C269.227 120.155 256.147 107.601 240.012 107.601C223.876 107.601 210.796 120.155 210.796 135.642C210.796 151.128 223.876 163.683 240.012 163.683Z" fill="white"/>
<path d="M239.992 164.161C233.734 164.157 227.637 162.255 222.572 158.728C217.506 155.201 213.73 150.228 211.784 144.519C209.837 138.811 209.819 132.658 211.731 126.938C213.644 121.219 217.389 116.225 222.434 112.67C227.478 109.115 233.564 107.18 239.822 107.141C246.08 107.102 252.191 108.962 257.283 112.454C262.375 115.946 266.188 120.892 268.177 126.588C270.167 132.283 270.231 138.435 268.362 144.168C266.461 149.962 262.686 155.024 257.585 158.619C252.484 162.214 246.321 164.156 239.992 164.161ZM239.992 108.061C234.679 108.057 229.469 109.468 224.941 112.135C220.412 114.803 216.743 118.623 214.341 123.172C211.939 127.721 210.898 132.82 211.333 137.902C211.768 142.985 213.663 147.852 216.808 151.963C219.952 156.074 224.222 159.268 229.143 161.189C234.065 163.111 239.445 163.686 244.686 162.849C249.928 162.012 254.825 159.797 258.833 156.45C262.842 153.103 265.805 148.755 267.393 143.888C268.737 139.764 269.051 135.394 268.312 131.131C267.573 126.869 265.8 122.833 263.138 119.348C260.475 115.863 256.997 113.028 252.983 111.071C248.969 109.113 244.532 108.089 240.03 108.079L239.992 108.061Z" fill="#231F20"/>
<path d="M240.04 157.701C235.195 157.708 230.473 156.245 226.547 153.522C222.62 150.799 219.69 146.955 218.176 142.538C216.662 138.122 216.64 133.359 218.114 128.93C219.587 124.501 222.482 120.632 226.383 117.876C230.284 115.12 234.993 113.617 239.837 113.583C244.681 113.549 249.413 114.984 253.356 117.685C257.299 120.385 260.253 124.213 261.795 128.62C263.337 133.028 263.388 137.791 261.942 142.228C260.479 146.707 257.567 150.622 253.628 153.404C249.69 156.186 244.93 157.692 240.04 157.701ZM239.983 114.476C234.414 114.466 229.046 116.476 224.954 120.104C220.863 123.731 218.35 128.708 217.92 134.038C217.489 139.367 219.171 144.657 222.631 148.846C226.09 153.036 231.071 155.817 236.575 156.632C242.08 157.447 247.702 156.237 252.316 153.242C256.93 150.248 260.195 145.692 261.458 140.485C262.721 135.278 261.888 129.806 259.126 125.164C256.364 120.522 251.877 117.052 246.563 115.45C244.433 114.813 242.215 114.488 239.983 114.485V114.476Z" fill="#D1D3D4"/>
<path d="M247.597 121.179C247.541 121.387 247.484 121.594 247.419 121.802C247.014 123.047 246.61 124.292 246.197 125.528C246.121 125.745 246.197 125.835 246.385 125.925C247.695 126.425 248.916 127.119 250.004 127.982C250.774 128.578 251.337 129.385 251.616 130.296C251.895 131.207 251.877 132.179 251.564 133.08C251.328 134.116 250.747 135.05 249.91 135.741C249.417 136.114 248.851 136.387 248.246 136.544C248.067 136.598 247.889 136.634 247.654 136.689C247.936 136.878 248.18 137.031 248.415 137.203C248.976 137.562 249.454 138.028 249.818 138.573C250.182 139.118 250.425 139.73 250.53 140.37C250.591 141.012 250.553 141.66 250.417 142.291C250.176 143.448 249.658 144.535 248.904 145.467C248.385 146.133 247.715 146.677 246.945 147.056C246.174 147.436 245.324 147.643 244.458 147.66C242.844 147.725 241.23 147.549 239.673 147.136C239.081 146.992 239.194 147.001 239.043 147.479C238.611 148.769 238.197 150.059 237.774 151.359L237.661 151.692L234.729 150.79L236.223 146.207L233.892 145.512L232.397 150.087L229.455 149.184L230.978 144.52L225.065 142.715L226.748 139.54L227.086 139.621L228.891 140.162C229.034 140.215 229.187 140.238 229.339 140.231C229.492 140.223 229.642 140.184 229.777 140.116C229.913 140.049 230.033 139.955 230.128 139.84C230.223 139.725 230.292 139.592 230.329 139.449C230.329 139.386 230.329 139.314 230.405 139.242C231.702 135.236 233.005 131.233 234.315 127.233C234.407 127.033 234.451 126.817 234.446 126.598C234.44 126.38 234.385 126.166 234.284 125.97C234.182 125.775 234.038 125.603 233.859 125.468C233.681 125.332 233.474 125.236 233.253 125.185C232.52 124.951 231.786 124.743 231.025 124.518L232.012 121.504L237.887 123.309L239.4 118.68L242.314 119.582C242.314 119.7 242.267 119.826 242.23 119.943L240.989 123.751L240.876 124.084L243.207 124.788L244.674 120.277L247.597 121.179ZM235.095 142.084L235.255 142.156C236.439 142.481 237.614 142.86 238.818 143.13C239.879 143.398 240.987 143.45 242.07 143.284C242.79 143.181 243.439 142.81 243.875 142.251C244.312 141.691 244.501 140.99 244.401 140.297C244.315 139.861 244.138 139.447 243.879 139.079C243.621 138.712 243.286 138.398 242.897 138.159C241.729 137.401 240.44 136.831 239.081 136.472L237.116 135.877L235.095 142.084ZM238.009 133.125C239.109 133.413 240.162 133.738 241.243 133.937C242.016 134.085 242.808 134.121 243.593 134.045C244.024 134.004 244.438 133.861 244.797 133.628C245.156 133.395 245.449 133.079 245.648 132.71C245.848 132.341 245.949 131.929 245.941 131.513C245.933 131.098 245.818 130.69 245.604 130.328C245.149 129.65 244.495 129.116 243.724 128.794C242.573 128.262 241.371 127.838 240.134 127.531C239.88 127.45 239.776 127.531 239.692 127.748C239.156 129.426 238.601 131.104 238.056 132.782C238.075 132.863 238.056 132.953 238.009 133.125Z" fill="#F5D0C0"/>
<path d="M90.7394 78.2334C94.4994 83.2137 108.43 109.811 109.342 111.056C110.545 112.734 112.905 113.357 114.305 115.008C115.857 116.812 116.71 119.075 116.721 121.414C116.747 121.793 116.669 122.173 116.495 122.514C116.31 122.774 116.066 122.99 115.781 123.146C114.315 124.05 112.624 124.56 110.884 124.626C109.944 124.626 107.34 124.833 106.691 124.075C105.892 123.173 101.991 114.71 101.991 114.71L78.6792 85.8391" fill="white"/>
<path d="M109.436 125.131C108.026 125.131 106.804 124.977 106.287 124.364C105.488 123.461 102.085 116.036 101.587 114.954L78.3126 86.1456C78.2721 86.0983 78.2421 86.0435 78.2243 85.9847C78.2066 85.9259 78.2015 85.8642 78.2094 85.8034C78.2174 85.7426 78.2381 85.684 78.2704 85.6312C78.3026 85.5783 78.3458 85.5324 78.3972 85.496C78.4988 85.4223 78.6264 85.3895 78.7528 85.4046C78.8792 85.4198 78.9945 85.4817 79.074 85.5772L102.395 114.394L102.461 114.493C103.993 117.859 106.494 123.101 107.048 123.75C107.34 124.102 108.543 124.228 110.62 124.138H110.855C112.526 124.086 114.15 123.599 115.555 122.731C115.778 122.613 115.97 122.45 116.119 122.253C116.262 121.972 116.323 121.661 116.298 121.35C116.296 119.12 115.478 116.961 113.986 115.251C113.318 114.534 112.534 113.924 111.664 113.447C110.637 112.888 109.734 112.144 109.004 111.254C108.722 110.857 107.443 108.548 105.037 104.037C100.534 95.7272 92.9954 81.815 90.4104 78.4226C90.3543 78.323 90.3377 78.2073 90.3635 78.0969C90.3893 77.9864 90.4559 77.8886 90.551 77.8216C90.646 77.7545 90.7631 77.7227 90.8807 77.7321C90.9982 77.7414 91.1083 77.7912 91.1906 77.8723C93.8226 81.3188 101.089 94.7348 105.892 103.604C107.932 107.366 109.539 110.334 109.803 110.704C110.465 111.489 111.279 112.145 112.2 112.635C113.788 113.503 115.1 114.771 115.993 116.302C116.886 117.833 117.326 119.569 117.266 121.323C117.312 121.75 117.223 122.18 117.012 122.557C116.801 122.935 116.477 123.244 116.082 123.443C114.546 124.398 112.769 124.934 110.94 124.995H110.724C110.244 125.113 109.831 125.131 109.436 125.131Z" fill="#231F20"/>
<path d="M252.307 208.478L108.975 120.412C108.711 120.213 108.49 119.966 108.326 119.685C108.161 119.404 108.055 119.095 108.015 118.775C107.975 118.455 108.001 118.13 108.091 117.82C108.182 117.509 108.335 117.219 108.543 116.966C108.75 116.711 109.008 116.498 109.302 116.339C109.595 116.18 109.919 116.078 110.253 116.039C110.588 116.001 110.927 116.026 111.251 116.114C111.576 116.202 111.879 116.35 112.143 116.55L255.465 204.616C255.73 204.815 255.952 205.063 256.118 205.345C256.284 205.626 256.39 205.937 256.43 206.258C256.47 206.579 256.444 206.905 256.352 207.216C256.261 207.527 256.106 207.818 255.897 208.072C255.477 208.583 254.863 208.913 254.189 208.989C253.516 209.065 252.839 208.881 252.307 208.478Z" fill="white"/>
<path d="M253.876 209.471C253.196 209.475 252.533 209.259 251.996 208.857L108.665 120.809C108.341 120.572 108.07 120.275 107.869 119.936C107.667 119.596 107.538 119.222 107.49 118.833C107.439 118.452 107.468 118.064 107.576 117.694C107.684 117.323 107.869 116.977 108.12 116.677C108.366 116.374 108.672 116.12 109.021 115.931C109.369 115.742 109.754 115.621 110.151 115.575C110.549 115.529 110.952 115.558 111.337 115.662C111.723 115.766 112.083 115.943 112.397 116.181L255.728 204.22C256.051 204.453 256.322 204.747 256.525 205.082C256.728 205.418 256.859 205.789 256.911 206.174C256.963 206.559 256.934 206.95 256.826 207.324C256.718 207.698 256.533 208.047 256.283 208.352C256.037 208.654 255.73 208.906 255.382 209.093C255.033 209.281 254.649 209.4 254.252 209.444C254.128 209.462 254.002 209.471 253.876 209.471ZM110.517 116.488H110.263C109.993 116.518 109.731 116.599 109.493 116.727C109.255 116.854 109.046 117.026 108.878 117.231C108.709 117.436 108.584 117.672 108.511 117.923C108.437 118.175 108.416 118.438 108.449 118.698C108.516 119.224 108.796 119.704 109.229 120.033L252.57 208.063C252.782 208.227 253.026 208.348 253.287 208.419C253.549 208.49 253.823 208.51 254.093 208.478C254.364 208.448 254.627 208.367 254.865 208.238C255.104 208.11 255.313 207.938 255.482 207.732C255.651 207.525 255.775 207.289 255.848 207.036C255.921 206.783 255.941 206.519 255.907 206.259C255.876 205.999 255.791 205.748 255.657 205.52C255.523 205.292 255.342 205.092 255.127 204.932L111.796 116.939C111.431 116.66 110.983 116.501 110.517 116.488Z" fill="#231F20"/>
<path d="M145.41 155.121L146.059 184.516C146.087 185.906 146.619 187.243 147.562 188.298C148.505 189.353 149.801 190.06 151.229 190.299L169.088 193.303C170.355 193.516 171.66 193.349 172.824 192.824C173.988 192.299 174.955 191.443 175.593 190.371L183.752 176.657L179.005 174.564L172.087 186.618C171.696 187.296 171.095 187.84 170.368 188.174C169.64 188.509 168.821 188.618 168.026 188.485L154.368 186.239C153.477 186.092 152.667 185.651 152.078 184.992C151.49 184.333 151.159 183.498 151.144 182.63L150.505 159.506L145.41 155.121Z" fill="white"/>
<path d="M170.188 193.862C169.801 193.86 169.414 193.827 169.032 193.763L151.172 190.759C149.635 190.498 148.24 189.735 147.224 188.598C146.207 187.461 145.633 186.022 145.598 184.524L144.949 155.13C144.948 155.038 144.975 154.949 145.026 154.872C145.078 154.795 145.151 154.734 145.238 154.697C145.325 154.659 145.421 154.647 145.515 154.662C145.609 154.676 145.697 154.716 145.767 154.778L150.862 159.199C150.958 159.286 151.016 159.406 151.022 159.533L151.689 182.657C151.712 183.409 152.006 184.131 152.519 184.7C153.033 185.269 153.736 185.65 154.509 185.778L168.167 188.034C168.864 188.148 169.58 188.052 170.217 187.757C170.854 187.463 171.379 186.986 171.72 186.392L178.629 174.338C178.688 174.234 178.786 174.155 178.903 174.118C179.02 174.081 179.148 174.089 179.259 174.14L183.959 176.233C184.02 176.26 184.075 176.299 184.12 176.347C184.165 176.395 184.2 176.451 184.222 176.513C184.248 176.571 184.261 176.634 184.261 176.697C184.261 176.761 184.248 176.824 184.222 176.882L176.063 190.596C175.471 191.59 174.616 192.415 173.584 192.989C172.552 193.562 171.381 193.864 170.188 193.862ZM145.917 156.194L146.538 184.506C146.568 185.788 147.06 187.02 147.931 187.993C148.802 188.965 149.997 189.617 151.313 189.838L169.173 192.843C170.343 193.038 171.547 192.883 172.621 192.399C173.696 191.915 174.589 191.125 175.18 190.136L183.066 176.864L179.212 175.159L172.51 186.834C172.074 187.6 171.399 188.215 170.579 188.594C169.76 188.973 168.837 189.095 167.942 188.945L154.283 186.699C153.291 186.53 152.389 186.039 151.729 185.308C151.068 184.577 150.689 183.651 150.655 182.684L149.997 159.749L145.917 156.194Z" fill="#231F20"/>
<path d="M170.94 167.626C170.94 167.626 162.48 145.738 163.665 136.283C163.665 136.283 175.64 150.078 217.931 156.249C254.732 161.662 282.396 150.078 282.396 150.078C282.396 150.078 253.059 186.392 230.085 195.676L170.94 167.626Z" fill="white"/>
<path d="M230.085 196.145C230.01 196.148 229.935 196.133 229.869 196.1L170.724 168.05C170.614 167.996 170.527 167.907 170.479 167.797C170.132 166.895 161.954 145.693 163.185 136.219C163.197 136.13 163.235 136.047 163.295 135.978C163.355 135.909 163.434 135.858 163.523 135.831C163.615 135.807 163.712 135.807 163.804 135.832C163.895 135.858 163.977 135.908 164.04 135.976C164.153 136.111 176.448 149.717 218.006 155.78C254.233 161.076 281.926 149.753 282.198 149.635C282.297 149.596 282.407 149.589 282.511 149.615C282.614 149.641 282.706 149.699 282.772 149.78C282.84 149.86 282.877 149.96 282.877 150.064C282.877 150.167 282.84 150.268 282.772 150.348C282.48 150.718 253.105 186.87 230.273 196.091C230.215 196.122 230.151 196.14 230.085 196.145ZM171.325 167.274L230.094 195.144C250.154 186.915 275.327 157.764 280.854 151.124C274.274 153.479 249.214 161.283 217.818 156.691C181.111 151.386 167.255 140.397 164.05 137.365C163.542 146.595 170.564 165.298 171.325 167.301V167.274Z" fill="#231F20"/>
<path d="M251.564 219.945C259.496 219.945 265.927 213.773 265.927 206.159C265.927 198.546 259.496 192.374 251.564 192.374C243.631 192.374 237.201 198.546 237.201 206.159C237.201 213.773 243.631 219.945 251.564 219.945Z" fill="#231F20"/>
<path d="M251.564 220.397C248.63 220.397 245.762 219.562 243.323 217.997C240.884 216.433 238.983 214.209 237.86 211.608C236.737 209.006 236.443 206.144 237.016 203.382C237.588 200.62 239.001 198.083 241.075 196.092C243.15 194.101 245.793 192.745 248.67 192.196C251.547 191.647 254.53 191.929 257.24 193.006C259.951 194.084 262.267 195.908 263.897 198.25C265.527 200.591 266.397 203.344 266.397 206.159C266.395 209.935 264.831 213.555 262.05 216.224C259.269 218.893 255.497 220.394 251.564 220.397ZM251.564 192.825C248.816 192.825 246.13 193.607 243.845 195.072C241.561 196.537 239.78 198.62 238.728 201.056C237.677 203.493 237.402 206.174 237.938 208.761C238.474 211.348 239.797 213.724 241.74 215.589C243.683 217.454 246.158 218.724 248.854 219.238C251.549 219.753 254.342 219.489 256.881 218.479C259.419 217.47 261.589 215.761 263.116 213.568C264.642 211.375 265.457 208.797 265.457 206.159C265.452 202.624 263.987 199.235 261.382 196.736C258.778 194.236 255.247 192.829 251.564 192.825Z" fill="#231F20"/>
<path d="M251.564 215.182C256.756 215.182 260.964 211.142 260.964 206.159C260.964 201.177 256.756 197.137 251.564 197.137C246.373 197.137 242.164 201.177 242.164 206.159C242.164 211.142 246.373 215.182 251.564 215.182Z" fill="white"/>
<path d="M251.564 215.651C249.608 215.651 247.696 215.094 246.07 214.051C244.444 213.008 243.176 211.526 242.428 209.792C241.679 208.057 241.483 206.149 241.865 204.308C242.247 202.467 243.188 200.775 244.571 199.448C245.954 198.121 247.716 197.217 249.635 196.85C251.553 196.484 253.541 196.672 255.348 197.39C257.155 198.109 258.7 199.325 259.786 200.886C260.873 202.447 261.453 204.282 261.453 206.159C261.45 208.676 260.408 211.089 258.554 212.868C256.7 214.648 254.186 215.648 251.564 215.651ZM251.564 197.606C249.802 197.608 248.08 198.111 246.616 199.052C245.151 199.993 244.011 201.329 243.338 202.892C242.665 204.455 242.49 206.175 242.834 207.833C243.179 209.492 244.029 211.015 245.275 212.21C246.522 213.406 248.11 214.219 249.838 214.549C251.567 214.878 253.358 214.708 254.986 214.06C256.613 213.413 258.005 212.317 258.983 210.91C259.962 209.504 260.484 207.851 260.484 206.159C260.482 203.89 259.541 201.715 257.868 200.111C256.196 198.507 253.928 197.606 251.564 197.606Z" fill="#231F20"/>
<path d="M110.019 194.187L110.893 202.803L123.414 201.874L122.229 191.534L110.019 194.187Z" fill="white"/>
<path d="M110.855 203.273C110.735 203.271 110.62 203.227 110.531 203.149C110.443 203.07 110.387 202.963 110.376 202.849L109.502 194.232C109.492 194.12 109.524 194.008 109.593 193.917C109.663 193.826 109.763 193.762 109.878 193.736L122.135 191.084C122.202 191.07 122.271 191.07 122.337 191.084C122.404 191.098 122.466 191.126 122.521 191.165C122.577 191.201 122.625 191.249 122.659 191.305C122.693 191.361 122.714 191.425 122.718 191.49L123.903 201.829C123.909 201.891 123.902 201.953 123.883 202.012C123.863 202.07 123.832 202.125 123.79 202.172C123.75 202.221 123.701 202.262 123.644 202.291C123.588 202.321 123.525 202.338 123.461 202.343L110.94 203.246L110.855 203.273ZM110.508 194.557L111.297 202.307L122.831 201.405L121.769 192.067L110.508 194.557Z" fill="#231F20"/>
<path d="M20.4086 166.011L11.3 170.54L14.1012 179.49L22.6459 177.631L20.4086 166.011Z" fill="white"/>
<path d="M14.1013 179.959C13.9972 179.959 13.8959 179.926 13.8128 179.866C13.7297 179.806 13.6693 179.721 13.6407 179.625L10.8207 170.675C10.7901 170.57 10.7977 170.459 10.8421 170.359C10.8866 170.259 10.9652 170.176 11.0651 170.125L20.1737 165.614C20.2405 165.58 20.3147 165.563 20.3899 165.563C20.4651 165.563 20.5393 165.58 20.6061 165.614C20.6757 165.645 20.7366 165.691 20.7839 165.749C20.8313 165.807 20.8638 165.875 20.8787 165.947L23.1253 177.55C23.1477 177.669 23.1211 177.792 23.0509 177.893C22.9808 177.994 22.8727 178.065 22.7493 178.091L14.2047 179.95L14.1013 179.959ZM11.8829 170.774L14.4303 178.894L22.0819 177.234L20.0515 166.723L11.8829 170.774Z" fill="#231F20"/>
<path d="M46.5123 96.7739L47.3489 151.809L17.4945 165.415L20.3803 179.932C20.3803 179.932 65.8857 170.007 72.2401 161.49C78.5945 152.973 79.5345 132.502 79.5345 132.502L100.421 152.631L108.449 196.307L124.382 195.468C124.382 195.468 122.351 163.43 122.351 151.521C122.351 139.611 90.7769 98.6866 90.7769 98.6866L46.5123 96.7739Z" fill="#231F20"/>
<path d="M108.449 196.758C108.339 196.76 108.232 196.723 108.147 196.655C108.063 196.588 108.006 196.493 107.988 196.389L99.989 152.847L79.9388 133.531C79.6568 137.816 78.2468 154.219 72.6162 161.752C66.2336 170.296 22.3544 179.968 20.4838 180.374C20.3607 180.399 20.2324 180.376 20.1266 180.311C20.0214 180.244 19.9473 180.141 19.9198 180.022L17.034 165.505C17.0137 165.406 17.0286 165.304 17.0763 165.214C17.124 165.124 17.2018 165.052 17.2972 165.009L46.879 151.476L46.0424 96.7471C46.0421 96.6858 46.0553 96.6252 46.0813 96.5692C46.1072 96.5132 46.1452 96.4632 46.1928 96.4223C46.2359 96.3785 46.2886 96.3444 46.3471 96.3225C46.4057 96.3007 46.4685 96.2916 46.5312 96.296L90.7958 98.1997C90.8654 98.203 90.9334 98.2209 90.9951 98.2521C91.0568 98.2832 91.1107 98.3269 91.153 98.3801C92.4408 100.058 122.822 139.567 122.822 151.485C122.822 163.214 124.833 195.089 124.852 195.405C124.857 195.524 124.814 195.641 124.732 195.73C124.649 195.819 124.534 195.874 124.41 195.883L108.43 196.722L108.449 196.758ZM79.5346 132.051C79.6579 132.056 79.7752 132.104 79.8636 132.186L100.75 152.288C100.817 152.352 100.863 152.434 100.882 152.522L108.834 195.829L123.874 195.035C123.621 191.102 121.872 162.555 121.872 151.512C121.872 140.279 92.7322 102.025 90.5138 99.12L46.9918 97.2523L47.819 151.792C47.8178 151.877 47.7927 151.961 47.7464 152.034C47.7001 152.107 47.6343 152.166 47.5558 152.207L18.021 165.677L20.7564 179.355C25.5974 178.272 66.0268 169.006 71.8548 161.193C78.0588 152.892 79.0552 132.656 79.0646 132.448C79.0682 132.361 79.0988 132.276 79.1523 132.206C79.2058 132.135 79.28 132.081 79.3654 132.051C79.4214 132.043 79.4785 132.043 79.5346 132.051Z" fill="#231F20"/>
<path d="M100.656 40.1777C100.656 40.1777 98.1466 67.4429 101.596 91.7578L83.21 96.7741C83.21 96.7741 90.7864 78.7297 88.85 70.8623C86.9136 62.9949 100.656 40.1777 100.656 40.1777Z" fill="#E49880"/>
<path d="M43.6455 102.224L44.7735 75.2472C44.7735 75.2472 44.2941 41.9462 56.9935 36.0096C69.6929 30.0729 95.2421 32.6172 100.187 39.3478C105.131 46.0783 93.4091 102.224 93.4091 102.224H43.6455Z" fill="#E49880"/>
<path d="M99.3216 10.5215L99.378 10.0253C99.7849 6.91666 99.2463 3.7614 97.827 0.939941C95.8154 2.82559 92.892 3.42105 90.1096 3.42105C87.3272 3.42105 84.5448 2.96092 81.7718 3.17745C78.9988 3.39399 76.1318 4.47665 74.656 6.78634C74.797 6.56981 72.9734 6.50665 72.776 6.54274C71.8506 6.86034 71.087 7.50604 70.6422 8.34718C70.0997 9.38209 69.78 10.5113 69.7022 11.6674C69.0762 16.5922 69.7451 21.5892 71.648 26.2022C72.3467 28.0826 73.4592 29.7966 74.9098 31.2275C78.4254 34.4304 83.2852 32.6711 87.2426 31.0561C91.2 29.4411 94.9224 26.7886 96.135 22.7918C97.3476 18.7949 98.814 14.6357 99.3216 10.5215Z" fill="white"/>
<path d="M79.7509 33.411C78.7959 33.4363 77.8451 33.2803 76.9531 32.9521C76.061 32.6239 75.2453 32.1298 74.5526 31.4983C73.0483 30.025 71.8967 28.2546 71.1781 26.3105C69.2376 21.6247 68.5556 16.546 69.1947 11.5411C69.3031 10.3204 69.6575 9.13155 70.2381 8.04049C70.7655 7.10484 71.6366 6.39091 72.6821 6.03756C73.2852 5.99789 73.8912 6.02818 74.4868 6.12778C75.9062 4.188 78.5101 2.94294 81.7343 2.68129C83.4106 2.58924 85.0917 2.6194 86.7632 2.77151C87.8536 2.84369 88.9816 2.91587 90.0814 2.91587C93.3714 2.91587 95.8531 2.13094 97.4605 0.59716C97.5142 0.546365 97.5796 0.508452 97.6515 0.486504C97.7234 0.464556 97.7996 0.459193 97.8741 0.470848C97.9483 0.484446 98.0187 0.513244 98.0803 0.55528C98.142 0.597315 98.1934 0.651603 98.2313 0.714448C99.6984 3.61506 100.254 6.86296 99.8293 10.0615L99.7729 10.5667C99.2454 13.9374 98.4151 17.2579 97.2913 20.4912C97.0375 21.2941 96.7837 22.0881 96.5487 22.864C95.1011 27.6548 90.1849 30.2893 87.3837 31.4351C85.3909 32.2922 82.5521 33.411 79.7509 33.411ZM73.0581 6.9488H72.8794C72.1036 7.24297 71.4656 7.79766 71.0841 8.50965C70.5571 9.48933 70.2376 10.5595 70.1441 11.6584C69.5104 16.501 70.157 21.4188 72.0241 25.9586C72.6932 27.7752 73.7643 29.4311 75.1637 30.8126C78.3597 33.7268 82.7495 32.2832 86.9795 30.56C89.6209 29.4773 94.255 27.0052 95.5898 22.5933C95.8248 21.7994 96.0787 21.0054 96.3325 20.2115C97.4419 17.0351 98.2596 13.7716 98.7764 10.4584L98.8329 9.97125C99.2244 7.16544 98.8319 4.31015 97.6955 1.69787C95.9189 3.1324 93.3715 3.85418 90.1755 3.85418C89.0381 3.85418 87.9006 3.782 86.7914 3.70983C85.167 3.55796 83.5328 3.5278 81.9034 3.6196C80.437 3.73689 76.8462 4.29627 75.173 6.97587C75.1411 7.02932 75.0982 7.07605 75.047 7.1133C74.9959 7.15054 74.9374 7.17754 74.8752 7.19269C74.8129 7.20784 74.7481 7.21082 74.6847 7.20148C74.6212 7.19213 74.5603 7.17063 74.5057 7.13827C74.4622 7.1156 74.4239 7.08494 74.3928 7.04805C73.9519 6.97656 73.5052 6.94334 73.0581 6.9488Z" fill="#231F20"/>
<path d="M87.8724 32.3552L87.0076 40.4752C87.0076 40.4752 85.0054 44.8149 79.7602 42.6406C78.2541 42.0153 76.9584 41.0011 76.0174 39.7108C75.0764 38.4205 74.527 36.9048 74.4304 35.3326L76.0754 20.7707C76.0754 20.7707 80.5122 19.3632 80.8318 10.7109C80.8318 10.7109 86.0958 10.7109 94.4054 11.0808C94.4054 11.0808 95.5428 24.524 94.161 28.4847C92.7792 32.4455 87.8724 32.3552 87.8724 32.3552Z" fill="white"/>
<path d="M82.5331 43.7598C81.5104 43.7388 80.5028 43.5177 79.5721 43.1102C77.9799 42.4468 76.6102 41.3732 75.6147 40.0085C74.6192 38.6437 74.0368 37.0411 73.9321 35.3781L75.6053 20.717C75.6153 20.6288 75.6517 20.5452 75.7101 20.4764C75.7685 20.4075 75.8464 20.3564 75.9343 20.329C75.9343 20.329 80.0515 18.8584 80.3523 10.6933C80.3571 10.5736 80.4094 10.4601 80.4986 10.3762C80.5877 10.2924 80.7069 10.2444 80.8317 10.2422C80.8317 10.2422 86.1991 10.2422 94.4242 10.6121C94.5418 10.6162 94.6537 10.6617 94.7387 10.7399C94.8236 10.8181 94.8756 10.9235 94.8848 11.0361C94.9318 11.5955 96.0222 24.6326 94.6216 28.6385C93.3902 32.1391 89.602 32.7075 88.286 32.8068L87.4681 40.5569C87.4625 40.6075 87.4465 40.6565 87.4212 40.7012C86.9744 41.5903 86.2828 42.3453 85.4213 42.8843C84.5597 43.4234 83.561 43.7262 82.5331 43.7598ZM76.5547 21.0869L74.9097 35.4142C75.017 36.8843 75.545 38.2974 76.4357 39.4977C77.3264 40.6981 78.5451 41.6391 79.9575 42.217C84.4131 44.0214 86.2743 40.8636 86.5375 40.3494L87.3553 32.2925C87.3589 32.2344 87.3744 32.1776 87.401 32.1252C87.4275 32.0729 87.4645 32.0261 87.51 31.9876C87.5554 31.949 87.6083 31.9194 87.6656 31.9006C87.723 31.8817 87.7836 31.8738 87.8442 31.8775C88.051 31.8775 92.4408 31.8775 93.691 28.3227C94.9412 24.768 94.1234 13.7789 93.9447 11.5053C87.3647 11.2346 82.6647 11.1715 81.2829 11.1625C80.9163 18.4795 77.5887 20.5636 76.5547 21.0869Z" fill="#231F20"/>
<path d="M79.356 21.0417C79.3032 20.2872 78.9926 19.5705 78.4724 19.0027C77.9694 18.4957 77.3776 18.0774 76.724 17.7666C76.3869 17.5556 76.0046 17.4199 75.6054 17.3696C75.3231 17.3721 75.0434 17.4209 74.7783 17.514C74.1501 17.7047 73.6113 18.1005 73.2555 18.6327C73.0207 19.0928 72.9046 19.6003 72.917 20.1124C72.8837 20.6723 72.9312 21.234 73.0581 21.7815C73.1912 22.3257 73.436 22.839 73.7783 23.2913C74.1206 23.7436 74.5534 24.1259 75.0514 24.4157C75.5495 24.7056 76.1027 24.8972 76.6788 24.9793C77.2549 25.0615 77.8423 25.0325 78.4066 24.8942" fill="white"/>
<path d="M77.2973 25.4897C76.4033 25.4872 75.5266 25.2535 74.7593 24.813C74.2082 24.49 73.7292 24.0654 73.3501 23.5636C72.9709 23.0619 72.6991 22.493 72.5503 21.8898C72.4102 21.2984 72.3595 20.6907 72.3999 20.0854C72.387 19.4938 72.5258 18.9082 72.8041 18.3802C73.2207 17.743 73.8662 17.2744 74.6183 17.063C74.9421 16.9437 75.2868 16.8855 75.6335 16.8915C76.1061 16.9399 76.5602 17.0945 76.9589 17.3426C77.6622 17.6787 78.2985 18.1307 78.8389 18.6779C79.4241 19.3303 79.7737 20.1469 79.8353 21.0057C79.8141 21.1063 79.7591 21.1974 79.6787 21.2652C79.5984 21.3329 79.4971 21.3735 79.3904 21.3806C79.2837 21.3878 79.1775 21.3612 79.0881 21.3049C78.9986 21.2485 78.9309 21.1656 78.8953 21.0688C78.8544 20.4035 78.5869 19.7695 78.1339 19.2644C77.6611 18.8017 77.1116 18.4175 76.5077 18.1276C76.2246 17.9498 75.9033 17.8357 75.5677 17.7938C75.3487 17.7923 75.1315 17.8322 74.9285 17.911C74.4018 18.0614 73.9442 18.3797 73.6313 18.8133C73.4387 19.2112 73.3454 19.6468 73.3587 20.0854C73.3297 20.6026 73.3708 21.1212 73.4809 21.6282C73.5998 22.112 73.8178 22.5682 74.1223 22.9702C74.4267 23.3723 74.8116 23.7121 75.2543 23.9699C75.697 24.2278 76.1888 24.3984 76.701 24.4719C77.2131 24.5454 77.7354 24.5203 78.2373 24.398C78.2997 24.3832 78.3644 24.3803 78.428 24.3895C78.4915 24.3987 78.5525 24.4198 78.6075 24.4516C78.6625 24.4835 78.7104 24.5254 78.7485 24.575C78.7866 24.6247 78.8141 24.681 78.8295 24.7409C78.8586 24.8603 78.8387 24.986 78.774 25.0918C78.7092 25.1976 78.6046 25.2754 78.4817 25.3093C78.0957 25.4138 77.6981 25.4744 77.2973 25.4897Z" fill="#231F20"/>
<path d="M87.4589 36.262C85.6472 35.7929 84.0295 34.8008 82.8247 33.42C82.3137 32.9097 81.953 32.2783 81.7796 31.5903C81.6062 30.9023 81.6262 30.1825 81.8377 29.5044C82.5668 30.3726 83.4845 31.0775 84.5269 31.5699C85.5692 32.0624 86.711 32.3304 87.8725 32.3554L87.4589 36.262Z" fill="#231F20"/>
<path d="M87.4587 36.7131H87.3553C85.4426 36.2278 83.7324 35.1881 82.4579 33.7357C81.8871 33.1655 81.4865 32.4585 81.298 31.6887C81.1095 30.9189 81.14 30.1146 81.3863 29.36C81.4161 29.2855 81.4659 29.2199 81.5306 29.1699C81.5954 29.1199 81.6728 29.0873 81.7549 29.0754C81.8371 29.0635 81.9211 29.0727 81.9984 29.102C82.0756 29.1314 82.1434 29.18 82.1947 29.2427C82.8788 30.0543 83.7362 30.7159 84.7091 31.1827C85.6819 31.6496 86.7477 31.911 87.8347 31.9493C87.9671 31.9583 88.0927 32.0091 88.1919 32.0937C88.2361 32.1413 88.2698 32.197 88.2908 32.2575C88.3118 32.318 88.3197 32.382 88.3141 32.4456L87.9005 36.3522C87.8927 36.4142 87.872 36.474 87.8397 36.5283C87.8074 36.5825 87.7642 36.63 87.7125 36.668C87.6345 36.7069 87.5461 36.7226 87.4587 36.7131ZM82.1289 30.4877C82.111 30.9721 82.1931 31.455 82.3706 31.9087C82.5481 32.3624 82.8173 32.7779 83.1629 33.1313C84.2153 34.2855 85.5537 35.1668 87.0545 35.6936L87.3553 32.8065C85.3786 32.6648 83.5221 31.8411 82.1289 30.4877Z" fill="#231F20"/>
<path d="M89.6961 25.0022C89.0514 24.98 88.4155 24.8518 87.8161 24.6233C87.7001 24.579 87.6073 24.4923 87.5579 24.3824C87.5085 24.2724 87.5067 24.1481 87.5529 24.0368C87.599 23.9255 87.6893 23.8364 87.8038 23.7891C87.9184 23.7417 88.0479 23.7399 88.1639 23.7842C88.6903 23.9827 89.8935 24.2894 90.3259 23.9556C90.4951 23.5947 89.7431 21.4294 88.6903 19.3633C88.6631 19.31 88.6472 19.2521 88.6433 19.1928C88.6395 19.1336 88.6478 19.0742 88.6679 19.0181C88.688 18.9619 88.7194 18.9102 88.7603 18.8657C88.8012 18.8212 88.8509 18.7849 88.9064 18.7588C88.962 18.7327 89.0224 18.7174 89.0841 18.7138C89.1458 18.7101 89.2077 18.7181 89.2661 18.7374C89.3246 18.7566 89.3786 18.7868 89.4249 18.8261C89.4713 18.8653 89.5091 18.913 89.5363 18.9663C90.6549 21.1677 91.8111 23.9376 90.9275 24.6413C90.574 24.897 90.138 25.0248 89.6961 25.0022Z" fill="#231F20"/>
<path d="M87.5717 27.7812C86.7491 27.8018 85.9405 27.5747 85.2593 27.1316C84.8822 26.8584 84.5687 26.5127 84.3389 26.1165C84.109 25.7204 83.9679 25.2825 83.9245 24.8309C83.911 24.7129 83.9455 24.5945 84.0208 24.5003C84.0961 24.4062 84.2064 24.3436 84.3287 24.3257C84.4507 24.3102 84.5741 24.3412 84.6725 24.412C84.7709 24.4828 84.8365 24.5879 84.8551 24.7046C84.8822 25.0341 84.9796 25.3548 85.1413 25.6466C85.303 25.9384 85.5256 26.1951 85.7951 26.4008C86.4853 26.8022 87.3002 26.9586 88.0981 26.8429C88.1587 26.8312 88.2211 26.8313 88.2817 26.8433C88.3422 26.8552 88.3996 26.8787 88.4505 26.9124C88.5013 26.946 88.5446 26.9892 88.5778 27.0393C88.6109 27.0893 88.6332 27.1453 88.6433 27.2038C88.6653 27.321 88.6381 27.4418 88.5677 27.5398C88.4972 27.6378 88.3893 27.7051 88.2673 27.7271C88.0379 27.7668 87.8049 27.7849 87.5717 27.7812Z" fill="#231F20"/>
<path d="M86.5848 17.3965C86.5184 17.3983 86.4526 17.3853 86.3922 17.3587C86.3319 17.3321 86.2788 17.2926 86.237 17.2431C86.1001 17.0801 85.9306 16.9451 85.7385 16.8459C85.5464 16.7468 85.3355 16.6855 85.1184 16.6657C84.517 16.6887 83.9411 16.9047 83.4828 17.2792C83.4391 17.3215 83.3871 17.355 83.3298 17.3779C83.2726 17.4008 83.2111 17.4126 83.1491 17.4126C83.087 17.4126 83.0256 17.4008 82.9683 17.3779C82.9111 17.355 82.8591 17.3215 82.8154 17.2792C82.7287 17.1933 82.6802 17.0785 82.6802 16.9589C82.6802 16.8393 82.7287 16.7245 82.8154 16.6386C83.4553 16.099 84.276 15.798 85.1278 15.7905C85.4725 15.8164 85.8079 15.9097 86.1135 16.0649C86.4191 16.2201 86.6883 16.4338 86.9044 16.6927C86.9851 16.7843 87.0253 16.9026 87.0166 17.0222C87.0078 17.1419 86.9507 17.2535 86.8574 17.3333C86.7753 17.3805 86.6802 17.4025 86.5848 17.3965Z" fill="#231F20"/>
<path d="M90.8052 18.2535C90.737 18.2671 90.6666 18.2671 90.5984 18.2535C90.5419 18.2283 90.4913 18.1927 90.4493 18.1486C90.4074 18.1044 90.3749 18.0528 90.3539 17.9965C90.333 17.9403 90.3238 17.8806 90.3271 17.821C90.3303 17.7613 90.3458 17.7029 90.3728 17.649C90.5086 17.3851 90.7039 17.1534 90.9445 16.9708C91.1851 16.7883 91.4651 16.6593 91.764 16.5934C92.1549 16.5725 92.5452 16.6438 92.9008 16.801C93.2564 16.9583 93.5664 17.1968 93.8038 17.4956C93.8899 17.58 93.9382 17.6933 93.9382 17.8114C93.9382 17.9295 93.8899 18.0429 93.8038 18.1272C93.7601 18.1695 93.7081 18.203 93.6509 18.2259C93.5936 18.2488 93.5322 18.2606 93.4701 18.2606C93.4081 18.2606 93.3466 18.2488 93.2894 18.2259C93.2321 18.203 93.1801 18.1695 93.1364 18.1272C92.8168 17.7934 92.3562 17.4144 91.9332 17.4686C91.787 17.5107 91.6514 17.5813 91.535 17.676C91.4185 17.7707 91.3237 17.8874 91.2564 18.0189C91.213 18.0958 91.1472 18.1589 91.0671 18.2005C90.987 18.2422 90.896 18.2606 90.8052 18.2535Z" fill="#231F20"/>
<path d="M82.0443 49.0737L77.4007 51.8706L80.0609 56.6344L72.3811 88.158L80.0609 96.5577L86.8101 85.1536L83.5765 56.0299L86.0205 51.7172L82.0443 49.0737Z" fill="white"/>
<path d="M52.2558 40.1777C52.2558 40.1777 39.4154 57.5545 37.338 75.2381C36.0878 85.8302 41.3988 89.9082 41.3988 89.9082L58.112 82.3656C58.112 82.3656 53.2616 74.2456 64.4194 52.7186L52.2558 40.1777Z" fill="#E49880"/>
<path d="M250.68 208.523L31.5476 103.649C30.9533 103.332 30.5146 102.801 30.3277 102.173C30.1409 101.546 30.2213 100.873 30.5512 100.302C30.8913 99.7406 31.4485 99.331 32.1015 99.162C32.7546 98.9931 33.4507 99.0784 34.0386 99.3995L253.171 204.229C253.766 204.546 254.204 205.077 254.391 205.704C254.578 206.332 254.498 207.005 254.168 207.576C253.836 208.145 253.282 208.564 252.628 208.742C251.974 208.919 251.274 208.841 250.68 208.523Z" fill="white"/>
<path d="M251.921 209.299C251.409 209.299 250.904 209.175 250.455 208.938L31.3313 104.064C30.9676 103.886 30.6449 103.64 30.3825 103.339C30.12 103.039 29.9231 102.691 29.8035 102.317C29.6839 101.942 29.644 101.548 29.6862 101.158C29.7284 100.768 29.8519 100.391 30.0492 100.048C30.2465 99.7045 30.5137 99.403 30.8349 99.161C31.1561 98.919 31.5246 98.7415 31.9187 98.6389C32.3128 98.5364 32.7244 98.511 33.1289 98.5642C33.5334 98.6173 33.9227 98.7481 34.2735 98.9486L253.388 203.814C253.98 204.126 254.448 204.619 254.716 205.214C254.985 205.81 255.04 206.474 254.872 207.103C254.704 207.731 254.323 208.288 253.788 208.686C253.254 209.084 252.597 209.299 251.921 209.299ZM32.8353 99.5079C32.3751 99.5073 31.9277 99.6533 31.5633 99.9231C31.1989 100.193 30.9382 100.571 30.8221 100.999C30.7059 101.426 30.7409 101.878 30.9215 102.285C31.1022 102.691 31.4182 103.028 31.8201 103.243L250.915 208.108C251.154 208.244 251.419 208.333 251.694 208.369C251.969 208.405 252.248 208.388 252.516 208.318C252.784 208.249 253.035 208.129 253.254 207.965C253.473 207.801 253.655 207.596 253.79 207.364C253.925 207.131 254.01 206.875 254.04 206.61C254.07 206.345 254.045 206.077 253.965 205.822C253.886 205.567 253.754 205.329 253.577 205.124C253.4 204.918 253.182 204.749 252.936 204.626L33.8223 99.7696C33.5214 99.6043 33.182 99.5144 32.8353 99.5079Z" fill="#231F20"/>
<path d="M41.3989 89.908L60.0955 114.584C60.0955 114.584 57.9899 121.26 59.3529 122.009C60.7159 122.758 67.8129 125.618 69.0913 123.922C69.8832 122.712 70.2672 121.298 70.1911 119.871H72.0711C72.0711 119.871 73.0111 117.029 71.7233 115.188C70.4355 113.348 55.6775 82.3384 55.6775 82.3384" fill="white"/>
<path d="M67.418 124.905C64.4758 124.905 59.71 122.776 59.0614 122.415C57.5856 121.594 58.8264 116.893 59.5126 114.665L41.004 90.1786C40.9552 90.1305 40.9178 90.073 40.8941 90.0099C40.8705 89.9467 40.8613 89.8795 40.867 89.8126C40.8728 89.7458 40.8934 89.6809 40.9275 89.6223C40.9616 89.5638 41.0084 89.5129 41.0647 89.4732C41.121 89.4335 41.1855 89.4058 41.2539 89.392C41.3223 89.3783 41.393 89.3788 41.4612 89.3935C41.5294 89.4082 41.5935 89.4367 41.6492 89.4772C41.705 89.5177 41.751 89.5692 41.7842 89.6282L60.4432 114.304C60.485 114.364 60.5133 114.432 60.5262 114.504C60.5392 114.575 60.5365 114.649 60.5184 114.719C59.4656 118.03 59.005 121.314 59.5784 121.612C61.3926 122.613 67.747 124.887 68.6776 123.651C69.4 122.529 69.7537 121.224 69.6928 119.907C69.6878 119.843 69.697 119.778 69.7197 119.717C69.7423 119.657 69.778 119.601 69.8244 119.555C69.8705 119.509 69.926 119.472 69.9874 119.447C70.0489 119.422 70.1149 119.41 70.1816 119.411H71.7138C71.9018 118.653 72.2496 116.704 71.3284 115.468C69.9936 113.618 55.8466 83.8089 55.245 82.5367C55.2168 82.4819 55.2006 82.4222 55.1972 82.3611C55.1938 82.3001 55.2034 82.239 55.2254 82.1816C55.2474 82.1242 55.2813 82.0718 55.3251 82.0273C55.3688 81.9829 55.4215 81.9475 55.48 81.9232C55.5972 81.8709 55.7313 81.8652 55.8528 81.9075C55.9744 81.9497 56.0735 82.0365 56.1286 82.1488C61.214 92.8672 71.1028 113.51 72.1086 114.936C73.5562 116.938 72.5692 119.898 72.5222 120.024C72.493 120.118 72.4318 120.201 72.3484 120.258C72.265 120.315 72.164 120.344 72.0616 120.34H70.6422C70.6389 121.705 70.2243 123.04 69.4484 124.183C69.1936 124.449 68.8767 124.653 68.5237 124.779C68.1708 124.904 67.7918 124.948 67.418 124.905Z" fill="#231F20"/>
<path d="M11.2983 170.54L0.873657 174.843C0.873657 174.843 11.3453 203.399 17.0135 197.579C18.5739 195.982 14.1465 179.535 14.1465 179.535L11.2983 170.54Z" fill="#231F20"/>
<path d="M15.295 198.789C15.1053 198.786 14.9164 198.764 14.731 198.726C8.72443 197.517 0.725033 175.89 0.386633 174.97C0.348879 174.862 0.355024 174.745 0.403838 174.641C0.452651 174.537 0.540523 174.455 0.649832 174.411L11.112 170.125C11.173 170.101 11.2386 170.088 11.3047 170.088C11.3709 170.088 11.4364 170.101 11.4974 170.125C11.5573 170.153 11.6107 170.192 11.6543 170.24C11.698 170.288 11.7309 170.344 11.7512 170.405L14.5712 179.355C15.624 183.289 18.9422 196.199 17.3348 197.85C17.0842 198.137 16.7725 198.37 16.4207 198.531C16.0689 198.693 15.6851 198.781 15.295 198.789ZM1.42063 175.069C3.80823 181.475 10.454 196.948 14.919 197.85C15.2345 197.91 15.5612 197.886 15.863 197.779C16.1648 197.672 16.4302 197.488 16.6298 197.246C17.4946 196.344 15.7932 187.583 13.65 179.607L10.9992 171.154L1.42063 175.069Z" fill="#231F20"/>
<path d="M110.78 202.812C110.78 202.812 110.48 212.854 111.438 213.017C112.397 213.179 142.101 209.326 139.855 207.143C137.608 204.96 123.414 201.91 123.414 201.91L110.78 202.812Z" fill="#231F20"/>
<path d="M111.363 213.458C110.959 213.386 110.009 213.224 110.32 202.794C110.324 202.684 110.37 202.579 110.45 202.499C110.53 202.419 110.637 202.37 110.752 202.361L123.386 201.459H123.527C124.109 201.585 137.88 204.599 140.202 206.872C140.325 206.987 140.407 207.136 140.435 207.298C140.464 207.461 140.438 207.627 140.362 207.775C138.867 210.454 111.955 213.458 111.363 213.458ZM111.241 203.218C111.128 207.332 111.241 211.753 111.636 212.574C114.098 212.574 137.88 209.209 139.469 207.405C137.533 205.69 127.296 203.182 123.376 202.325L111.241 203.218Z" fill="#231F20"/>
<path d="M56.8995 82.1039H56.7867C56.666 82.076 56.5616 82.0035 56.4965 81.9021C56.4313 81.8006 56.4106 81.6786 56.4389 81.5626L64.8425 47.2781C64.8711 47.1584 64.9481 47.0546 65.0566 46.9895C65.165 46.9243 65.2959 46.9032 65.4206 46.9307C65.5452 46.9582 65.6534 47.0322 65.7212 47.1362C65.7891 47.2403 65.8111 47.3659 65.7825 47.4856L57.3789 81.7701C57.351 81.87 57.2881 81.9578 57.2008 82.0186C57.1136 82.0794 57.0071 82.1095 56.8995 82.1039Z" fill="#231F20"/>
<path d="M96.0599 89.2673H95.9753C95.852 89.2432 95.7432 89.1745 95.6714 89.0753C95.5996 88.9762 95.5704 88.8543 95.5899 88.735C95.6463 88.4643 100.703 60.6218 99.7071 51.1755C99.7006 51.1162 99.7064 51.0563 99.7242 50.9991C99.742 50.942 99.7714 50.8889 99.8108 50.8427C99.8501 50.7966 99.8986 50.7584 99.9534 50.7303C100.008 50.7023 100.068 50.6849 100.13 50.6793C100.191 50.673 100.252 50.6784 100.31 50.695C100.369 50.7116 100.423 50.7392 100.47 50.7761C100.517 50.813 100.556 50.8586 100.585 50.9101C100.614 50.9616 100.632 51.0181 100.638 51.0763C101.672 60.8112 96.5675 88.6267 96.5205 88.8974C96.5025 89.0017 96.4461 89.0965 96.3616 89.1643C96.2771 89.2322 96.1701 89.2687 96.0599 89.2673Z" fill="#231F20"/>
<path d="M239.635 159.352C223.792 159.344 208.05 156.929 192.993 152.197C170.856 145.214 157.771 135.741 157.226 135.335C156.872 135.087 156.573 134.774 156.347 134.413C156.121 134.053 155.972 133.653 155.909 133.237C155.847 132.821 155.871 132.396 155.981 131.989C156.092 131.582 156.286 131.201 156.552 130.867C156.818 130.532 157.151 130.253 157.531 130.044C157.911 129.835 158.331 129.701 158.766 129.65C159.201 129.599 159.642 129.632 160.064 129.746C160.485 129.861 160.879 130.056 161.221 130.318C161.456 130.49 174.23 139.674 195.305 146.27C223.266 155.014 253.353 155.291 281.484 147.064C281.904 146.922 282.35 146.864 282.794 146.893C283.238 146.921 283.672 147.036 284.068 147.23C284.465 147.424 284.816 147.694 285.101 148.022C285.386 148.35 285.599 148.731 285.726 149.14C285.854 149.55 285.893 149.979 285.842 150.404C285.791 150.828 285.651 151.239 285.43 151.61C285.21 151.981 284.913 152.305 284.557 152.562C284.202 152.82 283.796 153.006 283.364 153.109C269.185 157.234 254.452 159.338 239.635 159.352Z" fill="white"/>
<path d="M239.635 159.821C223.737 159.813 207.942 157.377 192.842 152.603C170.592 145.584 157.479 136.075 156.934 135.669C156.538 135.381 156.205 135.022 155.954 134.61C155.704 134.199 155.541 133.744 155.474 133.272C155.408 132.799 155.44 132.319 155.567 131.859C155.695 131.398 155.917 130.967 156.22 130.589C156.52 130.21 156.895 129.891 157.324 129.651C157.753 129.411 158.227 129.256 158.719 129.193C159.211 129.13 159.711 129.161 160.19 129.285C160.67 129.408 161.119 129.621 161.512 129.912C162.038 130.291 174.578 139.259 195.455 145.792C223.323 154.502 253.308 154.776 281.343 146.576C281.818 146.44 282.316 146.394 282.809 146.442C283.302 146.49 283.78 146.63 284.217 146.856C284.653 147.081 285.039 147.387 285.353 147.755C285.666 148.124 285.901 148.548 286.043 149.003C286.186 149.459 286.233 149.937 286.183 150.41C286.134 150.884 285.987 151.343 285.752 151.762C285.517 152.181 285.199 152.551 284.815 152.852C284.431 153.152 283.989 153.378 283.515 153.515C269.288 157.663 254.504 159.788 239.635 159.821ZM159.228 130.138C159.103 130.129 158.977 130.129 158.852 130.138C158.483 130.183 158.126 130.298 157.804 130.476C157.481 130.654 157.198 130.892 156.972 131.176C156.526 131.745 156.332 132.461 156.432 133.167C156.533 133.873 156.919 134.512 157.508 134.947C158.043 135.344 171.034 144.772 193.134 151.737C208.14 156.475 223.837 158.89 239.635 158.892C254.409 158.867 269.1 156.769 283.242 152.666C283.953 152.458 284.549 151.988 284.902 151.36C285.254 150.731 285.333 149.995 285.122 149.31C284.907 148.628 284.421 148.054 283.768 147.713C283.113 147.377 282.346 147.303 281.635 147.506C253.406 155.763 223.214 155.486 195.155 146.712C174.127 140.126 161.456 131.067 160.929 130.688C160.429 130.324 159.817 130.131 159.19 130.138H159.228Z" fill="#231F20"/>
<path d="M245.623 165.822C243.63 165.822 242.437 165.695 242.399 165.695C242.276 165.682 242.163 165.622 242.086 165.529C242.008 165.436 241.972 165.317 241.985 165.199C241.991 165.139 242.009 165.081 242.039 165.028C242.069 164.975 242.11 164.929 242.159 164.892C242.209 164.854 242.265 164.827 242.326 164.812C242.387 164.797 242.45 164.793 242.512 164.802C248.602 165.202 254.716 164.507 260.541 162.754C260.661 162.72 260.789 162.732 260.9 162.787C261.011 162.843 261.094 162.938 261.133 163.052C261.168 163.165 261.156 163.288 261.098 163.392C261.039 163.497 260.941 163.576 260.823 163.611C255.898 165.065 250.776 165.81 245.623 165.822Z" fill="#D1D3D4"/>
</svg>
