<svg width="144" height="121" viewBox="0 0 144 121" fill="none" xmlns="http://www.w3.org/2000/svg">
<path d="M125.713 8.65641C94.9496 -11.9382 36 8.65633 8.00006 38C-12.5087 63.7432 11.6276 76.9936 30 106C48.3725 135.006 117.167 110.541 122.722 108.366C128.276 106.19 137.627 97.3277 132.5 85C127.373 72.6723 164.167 34.3996 125.713 8.65641Z" fill="#89A5B4"/>
<path d="M134.357 25.6915V85.0578C134.357 91.1492 119.327 96.1107 100.787 96.1107C82.2468 96.1107 67.2231 91.1983 67.2231 85.0578V25.6915H134.357Z" fill="#DFEAEF"/>
<path d="M100.787 96.7001C81.6038 96.7001 66.5801 91.5851 66.5801 85.0332V25.6914C66.5801 25.5286 66.6479 25.3724 66.7684 25.2572C66.889 25.1421 67.0525 25.0774 67.223 25.0774H134.357C134.528 25.0774 134.691 25.1421 134.812 25.2572C134.932 25.3724 135 25.5286 135 25.6914V85.0577C135 91.6035 119.976 96.7001 100.787 96.7001ZM67.8594 26.3055V85.0577C67.8594 90.7009 82.9346 95.4966 100.78 95.4966C118.626 95.4966 133.708 90.7254 133.708 85.0577V26.3055H67.8594Z" fill="#093F68"/>
<path d="M100.787 36.7199C119.327 36.7199 134.357 31.7823 134.357 25.6915C134.357 19.6008 119.327 14.6632 100.787 14.6632C82.2465 14.6632 67.2166 19.6008 67.2166 25.6915C67.2166 31.7823 82.2465 36.7199 100.787 36.7199Z" fill="#F7F7F7"/>
<path d="M100.787 37.3339C81.6038 37.3339 66.5801 32.2189 66.5801 25.6669C66.5801 19.115 81.6038 14 100.787 14C119.97 14 135 19.115 135 25.6669C135 32.2189 119.976 37.3339 100.787 37.3339ZM100.787 15.2772C82.941 15.2772 67.8659 20.0484 67.8659 25.7161C67.8659 31.3837 82.941 36.1549 100.787 36.1549C118.633 36.1549 133.714 31.3899 133.714 25.7161C133.714 20.0422 118.646 15.2772 100.787 15.2772Z" fill="#093F68"/>
<path d="M67.2166 44.0701C67.2166 50.1553 82.2467 55.0923 100.78 55.0923C119.314 55.0923 134.351 50.1799 134.351 44.0701" fill="#DFEAEF"/>
<path d="M100.787 55.7063C81.6038 55.7063 66.5801 50.5974 66.5801 44.0393C66.5801 43.8765 66.6479 43.7203 66.7684 43.6051C66.889 43.49 67.0525 43.4253 67.223 43.4253C67.3935 43.4253 67.557 43.49 67.6776 43.6051C67.7981 43.7203 67.8659 43.8765 67.8659 44.0393C67.8659 49.6886 82.941 54.4782 100.787 54.4782C118.633 54.4782 133.714 49.7132 133.714 44.0393C133.714 43.8765 133.782 43.7203 133.903 43.6051C134.023 43.49 134.187 43.4253 134.357 43.4253C134.528 43.4253 134.691 43.49 134.812 43.6051C134.932 43.7203 135 43.8765 135 44.0393C135 50.5974 119.976 55.7063 100.787 55.7063Z" fill="#093F68"/>
<path d="M67.2166 64.481C67.2166 70.5662 82.2467 75.5031 100.78 75.5031C119.314 75.5031 134.351 70.5907 134.351 64.481" fill="#DFEAEF"/>
<path d="M100.787 76.1234C81.6038 76.1234 66.5801 71.0084 66.5801 64.4565C66.5801 64.2936 66.6479 64.1374 66.7684 64.0223C66.889 63.9071 67.0525 63.8424 67.223 63.8424C67.3935 63.8424 67.557 63.9071 67.6776 64.0223C67.7981 64.1374 67.8659 64.2936 67.8659 64.4565C67.8659 70.0996 82.941 74.8953 100.787 74.8953C118.633 74.8953 133.714 70.1241 133.714 64.4565C133.714 64.2936 133.782 64.1374 133.903 64.0223C134.023 63.9071 134.187 63.8424 134.357 63.8424C134.528 63.8424 134.691 63.9071 134.812 64.0223C134.932 64.1374 135 64.2936 135 64.4565C135 71.0084 119.976 76.1234 100.787 76.1234Z" fill="#093F68"/>
<path d="M108.752 47.2386C110.108 47.2386 111.208 46.1884 111.208 44.8929C111.208 43.5974 110.108 42.5472 108.752 42.5472C107.396 42.5472 106.296 43.5974 106.296 44.8929C106.296 46.1884 107.396 47.2386 108.752 47.2386Z" fill="#F5D0C0"/>
<path d="M108.752 47.8464C108.139 47.8477 107.539 47.6749 107.028 47.3502C106.518 47.0254 106.119 46.5633 105.884 46.0222C105.649 45.4811 105.587 44.8855 105.706 44.3108C105.826 43.7361 106.121 43.2082 106.555 42.7939C106.988 42.3796 107.541 42.0976 108.143 41.9836C108.744 41.8696 109.368 41.9287 109.934 42.1535C110.501 42.3782 110.985 42.7586 111.325 43.2462C111.665 43.7339 111.845 44.307 111.844 44.8929C111.842 45.6757 111.516 46.426 110.937 46.9796C110.357 47.5331 109.572 47.8448 108.752 47.8464ZM108.752 43.1612C108.393 43.16 108.042 43.2605 107.743 43.4501C107.444 43.6396 107.211 43.9096 107.073 44.2259C106.934 44.5422 106.898 44.8906 106.967 45.2269C107.036 45.5632 107.208 45.8723 107.461 46.1151C107.715 46.3579 108.038 46.5234 108.39 46.5907C108.741 46.6581 109.106 46.6241 109.438 46.4932C109.769 46.3624 110.053 46.1404 110.252 45.8555C110.452 45.5706 110.558 45.2356 110.558 44.8929C110.557 44.4352 110.366 43.9966 110.028 43.6724C109.69 43.3481 109.231 43.1645 108.752 43.1612Z" fill="#093F68"/>
<path d="M100.787 47.2386C102.143 47.2386 103.243 46.1884 103.243 44.8929C103.243 43.5974 102.143 42.5472 100.787 42.5472C99.4307 42.5472 98.3312 43.5974 98.3312 44.8929C98.3312 46.1884 99.4307 47.2386 100.787 47.2386Z" fill="#FCEEC8"/>
<path d="M100.787 47.8464C100.174 47.8464 99.5744 47.6727 99.0647 47.3472C98.555 47.0217 98.1578 46.5591 97.9235 46.0179C97.6891 45.4768 97.6282 44.8813 97.7482 44.307C97.8683 43.7327 98.1641 43.2054 98.5981 42.7917C99.0321 42.378 99.5848 42.0966 100.186 41.9831C100.788 41.8696 101.411 41.9291 101.977 42.1541C102.543 42.379 103.027 42.7593 103.366 43.2469C103.706 43.7344 103.887 44.3072 103.885 44.8929C103.884 45.6768 103.557 46.428 102.976 46.9817C102.395 47.5355 101.608 47.8464 100.787 47.8464ZM100.787 43.1612C100.428 43.1612 100.078 43.2628 99.7796 43.4531C99.4815 43.6433 99.2492 43.9138 99.1119 44.2302C98.9747 44.5466 98.9388 44.8948 99.0088 45.2307C99.0787 45.5666 99.2514 45.8751 99.5049 46.1173C99.7585 46.3595 100.081 46.5244 100.433 46.5912C100.785 46.658 101.149 46.6237 101.481 46.4927C101.812 46.3616 102.095 46.1397 102.294 45.8549C102.493 45.5701 102.6 45.2353 102.6 44.8929C102.6 44.4336 102.409 43.9932 102.069 43.6684C101.729 43.3437 101.268 43.1612 100.787 43.1612Z" fill="#093F68"/>
<path d="M92.8283 47.2386C94.1846 47.2386 95.284 46.1884 95.284 44.8929C95.284 43.5974 94.1846 42.5472 92.8283 42.5472C91.472 42.5472 90.3726 43.5974 90.3726 44.8929C90.3726 46.1884 91.472 47.2386 92.8283 47.2386Z" fill="#C3CBBD"/>
<path d="M92.8282 47.8464C92.2151 47.8464 91.6158 47.6727 91.1061 47.3472C90.5964 47.0217 90.1992 46.5591 89.9649 46.0179C89.7305 45.4768 89.6695 44.8813 89.7896 44.307C89.9097 43.7327 90.2055 43.2054 90.6395 42.7917C91.0734 42.378 91.6262 42.0966 92.2276 41.9831C92.8291 41.8696 93.4524 41.9291 94.0184 42.1541C94.5845 42.379 95.068 42.7593 95.4077 43.2469C95.7474 43.7344 95.9281 44.3072 95.9268 44.8929C95.9251 45.6768 95.5979 46.428 95.017 46.9817C94.4361 47.5355 93.6489 47.8464 92.8282 47.8464ZM92.8282 43.1612C92.4697 43.1612 92.1191 43.2628 91.821 43.4531C91.5229 43.6433 91.2905 43.9138 91.1533 44.2302C91.0161 44.5466 90.9802 44.8948 91.0502 45.2307C91.1201 45.5666 91.2928 45.8751 91.5463 46.1173C91.7998 46.3595 92.1229 46.5244 92.4745 46.5912C92.8262 46.658 93.1907 46.6237 93.522 46.4927C93.8532 46.3616 94.1363 46.1397 94.3355 45.8549C94.5347 45.5701 94.6411 45.2353 94.6411 44.8929C94.6411 44.4336 94.4501 43.9932 94.1101 43.6684C93.7701 43.3437 93.309 43.1612 92.8282 43.1612Z" fill="#093F68"/>
<path d="M108.752 66.8267C110.108 66.8267 111.208 65.7765 111.208 64.481C111.208 63.1856 110.108 62.1354 108.752 62.1354C107.396 62.1354 106.296 63.1856 106.296 64.481C106.296 65.7765 107.396 66.8267 108.752 66.8267Z" fill="#F5D0C0"/>
<path d="M108.752 67.4346C108.139 67.4358 107.539 67.2631 107.028 66.9383C106.518 66.6136 106.119 66.1514 105.884 65.6103C105.649 65.0693 105.587 64.4737 105.706 63.899C105.826 63.3243 106.121 62.7963 106.555 62.382C106.988 61.9677 107.541 61.6857 108.143 61.5717C108.744 61.4577 109.368 61.5168 109.934 61.7416C110.501 61.9664 110.985 62.3467 111.325 62.8344C111.665 63.322 111.845 63.8951 111.844 64.481C111.842 65.2638 111.516 66.0141 110.937 66.5677C110.357 67.1213 109.572 67.433 108.752 67.4346ZM108.752 62.7494C108.393 62.7482 108.042 62.8487 107.743 63.0382C107.444 63.2278 107.211 63.4978 107.073 63.8141C106.934 64.1304 106.898 64.4787 106.967 64.815C107.036 65.1513 107.208 65.4605 107.461 65.7032C107.715 65.946 108.038 66.1116 108.39 66.1789C108.741 66.2462 109.106 66.2123 109.438 66.0814C109.769 65.9505 110.053 65.7286 110.252 65.4437C110.452 65.1588 110.558 64.8237 110.558 64.481C110.559 64.2536 110.513 64.0283 110.423 63.8179C110.333 63.6075 110.2 63.4161 110.032 63.2548C109.864 63.0934 109.665 62.9652 109.445 62.8774C109.226 62.7896 108.99 62.744 108.752 62.7432V62.7494Z" fill="#093F68"/>
<path d="M100.787 66.8267C102.143 66.8267 103.243 65.7765 103.243 64.481C103.243 63.1856 102.143 62.1354 100.787 62.1354C99.4307 62.1354 98.3312 63.1856 98.3312 64.481C98.3312 65.7765 99.4307 66.8267 100.787 66.8267Z" fill="#FCEEC8"/>
<path d="M100.787 67.4346C100.174 67.4346 99.5744 67.2608 99.0647 66.9353C98.555 66.6098 98.1578 66.1472 97.9235 65.6061C97.6891 65.0649 97.6282 64.4695 97.7482 63.8952C97.8683 63.3209 98.1641 62.7935 98.5981 62.3798C99.0321 61.9662 99.5848 61.6848 100.186 61.5713C100.788 61.4578 101.411 61.5172 101.977 61.7422C102.543 61.9672 103.027 62.3475 103.366 62.835C103.706 63.3225 103.887 63.8954 103.885 64.481C103.884 65.2649 103.557 66.0161 102.976 66.5699C102.395 67.1236 101.608 67.4346 100.787 67.4346ZM100.787 62.7494C100.428 62.7494 100.078 62.8509 99.7796 63.0412C99.4815 63.2315 99.2492 63.5019 99.1119 63.8183C98.9747 64.1348 98.9388 64.4829 99.0088 64.8188C99.0787 65.1547 99.2514 65.4633 99.5049 65.7054C99.7585 65.9476 100.081 66.1125 100.433 66.1793C100.785 66.2462 101.149 66.2119 101.481 66.0808C101.812 65.9497 102.095 65.7278 102.294 65.443C102.493 65.1583 102.6 64.8235 102.6 64.481C102.601 64.2529 102.556 64.0267 102.465 63.8155C102.375 63.6043 102.241 63.4124 102.073 63.2508C101.904 63.0892 101.704 62.9611 101.483 62.874C101.262 62.7869 101.026 62.7424 100.787 62.7432V62.7494Z" fill="#093F68"/>
<path d="M92.8283 66.8267C94.1846 66.8267 95.284 65.7765 95.284 64.481C95.284 63.1856 94.1846 62.1354 92.8283 62.1354C91.472 62.1354 90.3726 63.1856 90.3726 64.481C90.3726 65.7765 91.472 66.8267 92.8283 66.8267Z" fill="#C3CBBD"/>
<path d="M92.8282 67.4346C92.2151 67.4346 91.6158 67.2608 91.1061 66.9353C90.5964 66.6098 90.1992 66.1472 89.9649 65.6061C89.7305 65.0649 89.6695 64.4695 89.7896 63.8952C89.9097 63.3209 90.2055 62.7935 90.6395 62.3798C91.0734 61.9662 91.6262 61.6848 92.2276 61.5713C92.8291 61.4578 93.4524 61.5172 94.0184 61.7422C94.5845 61.9672 95.068 62.3475 95.4077 62.835C95.7474 63.3225 95.9281 63.8954 95.9268 64.481C95.9251 65.2649 95.5979 66.0161 95.017 66.5699C94.4361 67.1236 93.6489 67.4346 92.8282 67.4346ZM92.8282 62.7494C92.4697 62.7494 92.1191 62.8509 91.821 63.0412C91.5229 63.2315 91.2905 63.5019 91.1533 63.8183C91.0161 64.1348 90.9802 64.4829 91.0502 64.8188C91.1201 65.1547 91.2928 65.4633 91.5463 65.7054C91.7998 65.9476 92.1229 66.1125 92.4745 66.1793C92.8262 66.2462 93.1907 66.2119 93.522 66.0808C93.8532 65.9497 94.1363 65.7278 94.3355 65.443C94.5347 65.1583 94.6411 64.8235 94.6411 64.481C94.6428 64.2529 94.5971 64.0267 94.5067 63.8155C94.4162 63.6043 94.2829 63.4124 94.1143 63.2508C93.9457 63.0892 93.7452 62.9611 93.5245 62.874C93.3037 62.7869 93.0671 62.7424 92.8282 62.7432V62.7494Z" fill="#093F68"/>
<path d="M108.752 86.4089C110.108 86.4089 111.208 85.3587 111.208 84.0632C111.208 82.7677 110.108 81.7175 108.752 81.7175C107.396 81.7175 106.296 82.7677 106.296 84.0632C106.296 85.3587 107.396 86.4089 108.752 86.4089Z" fill="#F5D0C0"/>
<path d="M108.752 87.0227C108.139 87.0239 107.539 86.8514 107.029 86.5269C106.518 86.2024 106.12 85.7406 105.885 85.1999C105.649 84.6592 105.587 84.0639 105.706 83.4893C105.825 82.9148 106.119 82.3869 106.552 81.9723C106.985 81.5578 107.537 81.2753 108.139 81.1606C108.74 81.0459 109.363 81.1041 109.93 81.328C110.496 81.5518 110.981 81.9312 111.322 82.418C111.662 82.9049 111.844 83.4773 111.844 84.063C111.844 84.8469 111.519 85.5988 110.939 86.1537C110.359 86.7085 109.573 87.0211 108.752 87.0227ZM108.752 82.3375C108.393 82.3363 108.042 82.437 107.742 82.6268C107.443 82.8166 107.21 83.087 107.072 83.4036C106.934 83.7203 106.897 84.069 106.967 84.4054C107.037 84.7419 107.21 85.051 107.464 85.2936C107.718 85.5361 108.041 85.7011 108.393 85.7678C108.746 85.8344 109.111 85.7996 109.442 85.6677C109.774 85.5359 110.057 85.313 110.256 85.0273C110.454 84.7416 110.56 84.406 110.558 84.063C110.557 83.6059 110.366 83.1679 110.027 82.8447C109.689 82.5214 109.231 82.3391 108.752 82.3375Z" fill="#093F68"/>
<path d="M100.787 86.4089C102.143 86.4089 103.243 85.3587 103.243 84.0632C103.243 82.7677 102.143 81.7175 100.787 81.7175C99.4307 81.7175 98.3312 82.7677 98.3312 84.0632C98.3312 85.3587 99.4307 86.4089 100.787 86.4089Z" fill="#FCEEC8"/>
<path d="M100.787 87.0227C100.174 87.0227 99.5749 86.8491 99.0653 86.5239C98.5558 86.1987 98.1586 85.7364 97.9241 85.1956C97.6896 84.6548 97.6282 84.0597 97.7478 83.4856C97.8673 82.9114 98.1624 82.3841 98.5958 81.9702C99.0291 81.5562 99.5813 81.2743 100.182 81.1601C100.783 81.0459 101.406 81.1046 101.973 81.3286C102.539 81.5526 103.023 81.9319 103.363 82.4187C103.704 82.9054 103.885 83.4776 103.885 84.063C103.885 84.848 103.559 85.6008 102.978 86.1558C102.397 86.7109 101.609 87.0227 100.787 87.0227ZM100.787 82.3375C100.428 82.3375 100.077 82.4392 99.779 82.6298C99.4807 82.8203 99.2484 83.0911 99.1114 83.4079C98.9743 83.7247 98.9388 84.0732 99.0093 84.4092C99.0797 84.7453 99.253 85.0538 99.5072 85.2957C99.7614 85.5377 100.085 85.7021 100.437 85.7682C100.789 85.8343 101.154 85.7992 101.485 85.6672C101.816 85.5352 102.099 85.3123 102.297 85.0267C102.496 84.7411 102.601 84.4057 102.6 84.063C102.6 83.8359 102.553 83.611 102.462 83.4013C102.37 83.1915 102.237 83.001 102.068 82.8407C101.9 82.6804 101.7 82.5534 101.48 82.4671C101.26 82.3807 101.025 82.3367 100.787 82.3375Z" fill="#093F68"/>
<path d="M92.8283 86.4089C94.1846 86.4089 95.284 85.3587 95.284 84.0632C95.284 82.7677 94.1846 81.7175 92.8283 81.7175C91.472 81.7175 90.3726 82.7677 90.3726 84.0632C90.3726 85.3587 91.472 86.4089 92.8283 86.4089Z" fill="#C3CBBD"/>
<path d="M92.8282 87.0227C92.2154 87.0227 91.6163 86.8491 91.1067 86.5239C90.5972 86.1987 90.2 85.7364 89.9655 85.1956C89.731 84.6548 89.6696 84.0597 89.7892 83.4856C89.9087 82.9114 90.2038 82.3841 90.6372 81.9702C91.0705 81.5562 91.6226 81.2743 92.2237 81.1601C92.8248 81.0459 93.4478 81.1046 94.014 81.3286C94.5802 81.5526 95.0641 81.9319 95.4046 82.4187C95.7451 82.9054 95.9268 83.4776 95.9268 84.063C95.9268 84.848 95.6004 85.6008 95.0193 86.1558C94.4382 86.7109 93.65 87.0227 92.8282 87.0227ZM92.8282 82.3375C92.4694 82.3375 92.1186 82.4392 91.8204 82.6298C91.5221 82.8203 91.2898 83.0911 91.1527 83.4079C91.0157 83.7247 90.9802 84.0732 91.0507 84.4092C91.1211 84.7453 91.2944 85.0538 91.5486 85.2957C91.8028 85.5377 92.1264 85.7021 92.4785 85.7682C92.8306 85.8343 93.1953 85.7992 93.5264 85.6672C93.8576 85.5352 94.1403 85.3123 94.3387 85.0267C94.5371 84.7411 94.6424 84.4057 94.6411 84.063C94.6411 83.8359 94.5941 83.611 94.503 83.4013C94.4118 83.1915 94.2781 83.001 94.1097 82.8407C93.9413 82.6804 93.7414 82.5534 93.5215 82.4671C93.3016 82.3807 93.066 82.3367 92.8282 82.3375Z" fill="#093F68"/>
<path d="M61.5658 55.9887H48.2393C48.0688 55.9887 47.9053 55.924 47.7847 55.8089C47.6642 55.6937 47.5964 55.5375 47.5964 55.3747C47.5964 55.2118 47.6642 55.0556 47.7847 54.9405C47.9053 54.8253 48.0688 54.7606 48.2393 54.7606H61.5658C61.7363 54.7606 61.8998 54.8253 62.0204 54.9405C62.141 55.0556 62.2087 55.2118 62.2087 55.3747C62.2087 55.5375 62.141 55.6937 62.0204 55.8089C61.8998 55.924 61.7363 55.9887 61.5658 55.9887Z" fill="#093F68"/>
<path d="M55.2144 87.0228H48.2393C48.0688 87.0228 47.9053 86.9581 47.7847 86.8429C47.6642 86.7278 47.5964 86.5716 47.5964 86.4087C47.5964 86.2459 47.6642 86.0897 47.7847 85.9745C47.9053 85.8594 48.0688 85.7947 48.2393 85.7947H54.5715V24.9547H48.2393C48.0688 24.9547 47.9053 24.89 47.7847 24.7748C47.6642 24.6597 47.5964 24.5035 47.5964 24.3406C47.5964 24.1778 47.6642 24.0216 47.7847 23.9064C47.9053 23.7913 48.0688 23.7266 48.2393 23.7266H55.2144C55.3849 23.7266 55.5484 23.7913 55.6689 23.9064C55.7895 24.0216 55.8572 24.1778 55.8572 24.3406V86.4087C55.8572 86.5716 55.7895 86.7278 55.6689 86.8429C55.5484 86.9581 55.3849 87.0228 55.2144 87.0228Z" fill="#093F68"/>
<path d="M41.2322 37.7453H13.1006C12.7153 37.7453 12.3457 37.5991 12.0732 37.3389C11.8008 37.0786 11.6477 36.7256 11.6477 36.3576V20.4537L18.0763 14.6632H41.2644C41.6486 14.6713 42.0138 14.8244 42.2801 15.0891C42.5464 15.3538 42.692 15.7085 42.6851 16.0755V36.3392C42.6876 36.5229 42.6519 36.7054 42.5801 36.8759C42.5082 37.0464 42.4016 37.2016 42.2664 37.3324C42.1313 37.4632 41.9702 37.5671 41.7927 37.638C41.6152 37.7089 41.4246 37.7454 41.2322 37.7453Z" fill="white"/>
<path d="M41.2323 38.3586H13.1006C12.5448 38.3586 12.0117 38.1477 11.6187 37.7723C11.2257 37.3969 11.0049 36.8877 11.0049 36.3568V20.4529C11.0052 20.3702 11.023 20.2884 11.0573 20.2124C11.0915 20.1365 11.1415 20.0679 11.2042 20.0108L17.6006 14.2326C17.7198 14.1229 17.8787 14.0613 18.0442 14.0607H41.2323C41.5083 14.0615 41.7815 14.1142 42.0362 14.2159C42.291 14.3175 42.5222 14.4661 42.7168 14.6531C42.9114 14.8401 43.0656 15.062 43.1704 15.3059C43.2753 15.5498 43.3288 15.8111 43.328 16.0748V36.3384C43.3305 36.6028 43.2782 36.8651 43.174 37.1101C43.0698 37.3551 42.9159 37.578 42.721 37.7658C42.5262 37.9536 42.2943 38.1027 42.0387 38.2045C41.7832 38.3062 41.5091 38.3586 41.2323 38.3586ZM12.3035 20.717V36.3384C12.3035 36.5436 12.3888 36.7404 12.5407 36.8855C12.6926 37.0306 12.8986 37.1121 13.1135 37.1121H41.2451C41.4599 37.1121 41.666 37.0306 41.8179 36.8855C41.9698 36.7404 42.0551 36.5436 42.0551 36.3384V16.0748C42.0551 15.8696 41.9698 15.6728 41.8179 15.5277C41.666 15.3826 41.4599 15.301 41.2451 15.301H18.3014L12.3035 20.717Z" fill="#093F68"/>
<path d="M11.6477 20.4537H17.3113C17.5364 20.4537 17.7522 20.3683 17.9114 20.2163C18.0705 20.0643 18.1599 19.8581 18.1599 19.6432V14.6632L11.6477 20.4537Z" fill="white"/>
<path d="M17.3113 21.0669H11.6477C11.5189 21.0665 11.3932 21.0291 11.287 20.9597C11.1807 20.8903 11.0987 20.7919 11.0516 20.6775C11.0045 20.563 10.9944 20.4377 11.0228 20.3177C11.0511 20.1977 11.1165 20.0886 11.2105 20.0046L17.7163 14.2325C17.8082 14.1516 17.9229 14.0981 18.0462 14.0784C18.1695 14.0588 18.2961 14.0739 18.4106 14.122C18.5246 14.1695 18.6217 14.2476 18.6902 14.3468C18.7586 14.4459 18.7955 14.562 18.7963 14.6808V19.6607C18.7912 20.0343 18.6328 20.391 18.355 20.654C18.0772 20.917 17.7024 21.0653 17.3113 21.0669ZM13.2805 19.8388H17.3113C17.3658 19.8388 17.4182 19.8181 17.4567 19.7812C17.4953 19.7444 17.517 19.6944 17.517 19.6423V16.0747L13.2805 19.8388Z" fill="#093F68"/>
<path d="M36.8221 23.6037H17.5362C17.3657 23.6037 17.2022 23.539 17.0817 23.4239C16.9611 23.3087 16.8934 23.1525 16.8934 22.9897C16.8934 22.8268 16.9611 22.6706 17.0817 22.5555C17.2022 22.4403 17.3657 22.3756 17.5362 22.3756H36.8221C36.9926 22.3756 37.1561 22.4403 37.2767 22.5555C37.3972 22.6706 37.465 22.8268 37.465 22.9897C37.465 23.1525 37.3972 23.3087 37.2767 23.4239C37.1561 23.539 36.9926 23.6037 36.8221 23.6037Z" fill="#DFEAEF"/>
<path d="M36.8221 27.8713H17.5362C17.3657 27.8713 17.2022 27.8066 17.0817 27.6914C16.9611 27.5763 16.8934 27.4201 16.8934 27.2572C16.8934 27.0944 16.9611 26.9382 17.0817 26.823C17.2022 26.7079 17.3657 26.6432 17.5362 26.6432H36.8221C36.9926 26.6432 37.1561 26.7079 37.2767 26.823C37.3972 26.9382 37.465 27.0944 37.465 27.2572C37.465 27.4201 37.3972 27.5763 37.2767 27.6914C37.1561 27.8066 36.9926 27.8713 36.8221 27.8713Z" fill="#DFEAEF"/>
<path d="M32.8364 32.1329H17.5106C17.3401 32.1329 17.1766 32.0682 17.056 31.953C16.9355 31.8379 16.8677 31.6817 16.8677 31.5188C16.8677 31.356 16.9355 31.1998 17.056 31.0846C17.1766 30.9695 17.3401 30.9048 17.5106 30.9048H32.8364C33.0069 30.9048 33.1704 30.9695 33.291 31.0846C33.4116 31.1998 33.4793 31.356 33.4793 31.5188C33.4793 31.6817 33.4116 31.8379 33.291 31.953C33.1704 32.0682 33.0069 32.1329 32.8364 32.1329Z" fill="#DFEAEF"/>
<path d="M41.2322 66.9126H13.1006C12.7153 66.9126 12.3457 66.7664 12.0732 66.5062C11.8008 66.2459 11.6477 65.893 11.6477 65.5249V49.6272L18.0763 43.8367H41.2644C41.6497 43.8367 42.0192 43.9829 42.2917 44.2431C42.5642 44.5034 42.7172 44.8564 42.7172 45.2244V65.5249C42.7173 65.7098 42.6787 65.8928 42.6036 66.0632C42.5286 66.2336 42.4187 66.3879 42.2804 66.5172C42.1421 66.6465 41.9781 66.7481 41.7981 66.816C41.6181 66.8839 41.4257 66.9167 41.2322 66.9126Z" fill="white"/>
<path d="M41.2323 67.5266H13.1006C12.5448 67.5266 12.0117 67.3157 11.6187 66.9403C11.2257 66.5649 11.0049 66.0557 11.0049 65.5248V49.6271C11.0044 49.5433 11.0218 49.4604 11.056 49.3833C11.0903 49.3062 11.1407 49.2366 11.2042 49.1788L17.6007 43.3883C17.7208 43.2809 17.8796 43.2215 18.0442 43.2225H41.2323C41.7881 43.2225 42.3211 43.4334 42.7142 43.8089C43.1072 44.1843 43.328 44.6934 43.328 45.2243V65.5248C43.328 66.0557 43.1072 66.5649 42.7142 66.9403C42.3211 67.3157 41.7881 67.5266 41.2323 67.5266ZM12.3035 49.8911V65.5248C12.3026 65.6267 12.323 65.7276 12.3634 65.8219C12.4038 65.9161 12.4634 66.0017 12.5388 66.0737C12.6142 66.1457 12.7038 66.2027 12.8025 66.2413C12.9012 66.2799 13.0069 66.2993 13.1135 66.2985H41.2451C41.3517 66.2993 41.4575 66.2799 41.5561 66.2413C41.6548 66.2027 41.7444 66.1457 41.8198 66.0737C41.8952 66.0017 41.9548 65.9161 41.9952 65.8219C42.0356 65.7276 42.056 65.6267 42.0551 65.5248V45.2243C42.056 45.1225 42.0356 45.0215 41.9952 44.9273C41.9548 44.8331 41.8952 44.7474 41.8198 44.6754C41.7444 44.6034 41.6548 44.5465 41.5561 44.5079C41.4575 44.4693 41.3517 44.4498 41.2451 44.4506H18.3014L12.3035 49.8911Z" fill="#093F68"/>
<path d="M11.6477 49.6272H17.3113C17.537 49.6255 17.7528 49.5388 17.9117 49.3858C18.0707 49.2328 18.1599 49.026 18.1599 48.8105V43.8367L11.6477 49.6272Z" fill="white"/>
<path d="M17.3113 50.2412H11.6476C11.5175 50.2421 11.3901 50.2053 11.2823 50.1356C11.1745 50.0658 11.0915 49.9665 11.0441 49.8507C10.9967 49.7349 10.9873 49.6081 11.017 49.487C11.0467 49.366 11.1142 49.2564 11.2105 49.1728L17.7163 43.3884C17.8078 43.3073 17.9222 43.2534 18.0453 43.2334C18.1685 43.2133 18.295 43.2279 18.4096 43.2755C18.5242 43.323 18.6217 43.4014 18.6904 43.5011C18.7591 43.6008 18.7959 43.7174 18.7963 43.8367V48.8105C18.7963 49.1878 18.6402 49.5499 18.3621 49.8179C18.084 50.0858 17.7063 50.238 17.3113 50.2412ZM13.2805 49.0131H17.3113C17.3388 49.0131 17.3661 49.0079 17.3915 48.9976C17.4169 48.9873 17.4398 48.9723 17.459 48.9534C17.4782 48.9345 17.4932 48.9121 17.5032 48.8876C17.5131 48.863 17.5178 48.8368 17.517 48.8105V45.2429L13.2805 49.0131Z" fill="#093F68"/>
<path d="M36.8221 52.7773H17.5362C17.3657 52.7773 17.2022 52.7126 17.0817 52.5974C16.9611 52.4823 16.8934 52.3261 16.8934 52.1632C16.8934 52.0004 16.9611 51.8442 17.0817 51.729C17.2022 51.6139 17.3657 51.5492 17.5362 51.5492H36.8221C36.9926 51.5492 37.1561 51.6139 37.2767 51.729C37.3972 51.8442 37.465 52.0004 37.465 52.1632C37.465 52.3261 37.3972 52.4823 37.2767 52.5974C37.1561 52.7126 36.9926 52.7773 36.8221 52.7773Z" fill="#DFEAEF"/>
<path d="M36.8221 57.0388H17.5362C17.3657 57.0388 17.2022 56.9741 17.0817 56.8589C16.9611 56.7438 16.8934 56.5876 16.8934 56.4247C16.8934 56.2619 16.9611 56.1057 17.0817 55.9905C17.2022 55.8754 17.3657 55.8107 17.5362 55.8107H36.8221C36.9926 55.8107 37.1561 55.8754 37.2767 55.9905C37.3972 56.1057 37.465 56.2619 37.465 56.4247C37.465 56.5876 37.3972 56.7438 37.2767 56.8589C37.1561 56.9741 36.9926 57.0388 36.8221 57.0388Z" fill="#DFEAEF"/>
<path d="M32.8364 61.3063H17.5106C17.3401 61.3063 17.1766 61.2417 17.056 61.1265C16.9355 61.0113 16.8677 60.8552 16.8677 60.6923C16.8677 60.5294 16.9355 60.3733 17.056 60.2581C17.1766 60.1429 17.3401 60.0782 17.5106 60.0782H32.8364C33.0069 60.0782 33.1704 60.1429 33.291 60.2581C33.4116 60.3733 33.4793 60.5294 33.4793 60.6923C33.4793 60.8552 33.4116 61.0113 33.291 61.1265C33.1704 61.2417 33.0069 61.3063 32.8364 61.3063Z" fill="#DFEAEF"/>
<path d="M41.2322 96.0863H13.1006C12.7153 96.0863 12.3457 95.9401 12.0732 95.6798C11.8008 95.4196 11.6477 95.0666 11.6477 94.6985V78.7946L18.0763 73.0042H41.2644C41.6497 73.0042 42.0192 73.1504 42.2917 73.4106C42.5642 73.6709 42.7172 74.0238 42.7172 74.3919V94.674C42.7207 94.8609 42.6847 95.0465 42.6112 95.2198C42.5378 95.3931 42.4284 95.5504 42.2897 95.6823C42.151 95.8142 41.9858 95.918 41.8041 95.9874C41.6224 96.0568 41.4279 96.0904 41.2322 96.0863Z" fill="white"/>
<path d="M41.2323 96.7001H13.1006C12.5453 96.6985 12.0132 96.4871 11.6206 96.112C11.2279 95.7369 11.0066 95.2287 11.0049 94.6983V78.7944C11.0052 78.7117 11.023 78.6299 11.0573 78.5539C11.0915 78.478 11.1415 78.4094 11.2042 78.3523L17.6006 72.5618C17.7198 72.4521 17.8787 72.3905 18.0442 72.3899H41.2323C41.7881 72.3899 42.3211 72.6008 42.7142 72.9762C43.1072 73.3516 43.328 73.8608 43.328 74.3917V94.6737C43.3305 94.9385 43.2782 95.201 43.1741 95.4464C43.07 95.6917 42.9162 95.915 42.7214 96.1033C42.5266 96.2917 42.2948 96.4413 42.0392 96.5438C41.7837 96.6462 41.5094 96.6993 41.2323 96.7001ZM12.3035 79.0585V94.6737C12.3035 94.8789 12.3888 95.0757 12.5407 95.2208C12.6926 95.3659 12.8986 95.4474 13.1135 95.4474H41.2451C41.4599 95.4474 41.666 95.3659 41.8179 95.2208C41.9698 95.0757 42.0551 94.8789 42.0551 94.6737V74.4101C42.0551 74.2049 41.9698 74.0081 41.8179 73.863C41.666 73.7179 41.4599 73.6364 41.2451 73.6364H18.3014L12.3035 79.0585Z" fill="#093F68"/>
<path d="M11.6477 78.7946H17.3113C17.5364 78.7946 17.7522 78.7092 17.9114 78.5572C18.0705 78.4052 18.1599 78.1991 18.1599 77.9841V73.0042L11.6477 78.7946Z" fill="white"/>
<path d="M17.3112 79.4085H11.6476C11.5188 79.4081 11.3932 79.3707 11.2869 79.3013C11.1806 79.2318 11.0986 79.1335 11.0515 79.0191C11.0044 78.9046 10.9944 78.7793 11.0227 78.6593C11.0511 78.5393 11.1165 78.4302 11.2105 78.3462L17.7162 72.568C17.8082 72.4871 17.9228 72.4335 18.0461 72.4139C18.1694 72.3942 18.2961 72.4094 18.4105 72.4574C18.5245 72.505 18.6216 72.583 18.6901 72.6822C18.7586 72.7814 18.7954 72.8974 18.7962 73.0162V77.9962C18.7929 78.3708 18.6351 78.7291 18.3572 78.9934C18.0792 79.2578 17.7034 79.4069 17.3112 79.4085ZM13.2805 78.1804H17.3112C17.3658 78.1804 17.4181 78.1597 17.4567 78.1228C17.4953 78.086 17.5169 78.036 17.5169 77.9839V74.4101L13.2805 78.1804Z" fill="#093F68"/>
<path d="M36.8221 81.9447H17.5362C17.3657 81.9447 17.2022 81.88 17.0817 81.7648C16.9611 81.6496 16.8934 81.4935 16.8934 81.3306C16.8934 81.1677 16.9611 81.0116 17.0817 80.8964C17.2022 80.7812 17.3657 80.7166 17.5362 80.7166H36.8221C36.9926 80.7166 37.1561 80.7812 37.2767 80.8964C37.3972 81.0116 37.465 81.1677 37.465 81.3306C37.465 81.4935 37.3972 81.6496 37.2767 81.7648C37.1561 81.88 36.9926 81.9447 36.8221 81.9447Z" fill="#DFEAEF"/>
<path d="M36.8221 86.2061H17.5362C17.3657 86.2061 17.2022 86.1414 17.0817 86.0263C16.9611 85.9111 16.8934 85.7549 16.8934 85.5921C16.8934 85.4292 16.9611 85.273 17.0817 85.1579C17.2022 85.0427 17.3657 84.978 17.5362 84.978H36.8221C36.9926 84.978 37.1561 85.0427 37.2767 85.1579C37.3972 85.273 37.465 85.4292 37.465 85.5921C37.465 85.7549 37.3972 85.9111 37.2767 86.0263C37.1561 86.1414 36.9926 86.2061 36.8221 86.2061Z" fill="#DFEAEF"/>
<path d="M32.8364 90.4737H17.5106C17.3401 90.4737 17.1766 90.409 17.056 90.2939C16.9355 90.1787 16.8677 90.0225 16.8677 89.8597C16.8677 89.6968 16.9355 89.5406 17.056 89.4255C17.1766 89.3103 17.3401 89.2456 17.5106 89.2456H32.8364C33.0069 89.2456 33.1704 89.3103 33.291 89.4255C33.4116 89.5406 33.4793 89.6968 33.4793 89.8597C33.4793 90.0225 33.4116 90.1787 33.291 90.2939C33.1704 90.409 33.0069 90.4737 32.8364 90.4737Z" fill="#DFEAEF"/>
</svg>
