<svg width="104" height="83" viewBox="0 0 104 83" fill="none" xmlns="http://www.w3.org/2000/svg">
<path d="M77.5122 48.1594C77.5122 48.1594 91.8375 49.3095 93.6864 50.3121C98.7671 53.0629 95.0543 76.5859 95.0543 76.5859H86.5763L86.1404 58.6656H75.4178L77.5122 48.1594Z" fill="white"/>
<path d="M95.0492 77.0071H86.5763C86.4434 77.0071 86.3159 76.9628 86.222 76.8837C86.128 76.8047 86.0752 76.6976 86.0752 76.5859L85.6493 59.0615H75.4177C75.3453 59.0615 75.2738 59.0484 75.208 59.0229C75.1423 58.9975 75.0839 58.9603 75.0369 58.9141C74.9893 58.8677 74.9543 58.8131 74.9344 58.7542C74.9145 58.6953 74.9102 58.6334 74.9216 58.5729L77.011 48.092C77.0309 47.9862 77.0978 47.8908 77.1984 47.8251C77.2989 47.7593 77.4254 47.7283 77.5522 47.7381C79.0554 47.8603 92.0529 48.9303 93.9519 49.9582C96.2517 51.2009 97.1737 55.9569 96.7678 64.4958C96.4772 70.6714 95.5553 76.5817 95.5452 76.6406C95.5294 76.7419 95.4704 76.8349 95.3792 76.9023C95.2879 76.9697 95.1707 77.007 95.0492 77.0071ZM87.0873 76.1646H94.6032C95.6304 69.4245 97.2789 52.7637 93.4057 50.6659C92.1581 49.9919 83.635 49.0862 77.918 48.6143L76.0089 58.2443H86.1403C86.2732 58.2443 86.4007 58.2887 86.4946 58.3677C86.5886 58.4467 86.6414 58.5538 86.6414 58.6656L87.0873 76.1646Z" fill="#093F68"/>
<path d="M10.8962 40.3027C10.8962 40.3027 8.10027 38.685 4.56279 41.0609C1.02531 43.4368 0.794819 45.501 1.45622 45.7706C2.11762 46.0402 3.36525 45.025 3.36525 45.025C2.49311 47.1983 2.45455 49.547 3.25502 51.7398C4.64797 55.6028 7.028 57.4605 13.3414 57.7933C16.4325 57.8924 19.4948 57.2604 22.1801 55.9692C22.1801 55.9692 24.2144 51.129 21.2932 47.8348C18.372 44.5405 10.8962 40.3027 10.8962 40.3027Z" fill="white"/>
<path d="M14.1882 58.244C13.8976 58.244 13.607 58.244 13.3113 58.244C7.18337 57.9197 4.32733 56.1967 2.78907 51.8914C2.11339 50.0104 2.01684 48.0159 2.50848 46.0949C2.32062 46.1872 2.11045 46.2427 1.89359 46.2573C1.67673 46.2718 1.45874 46.2452 1.25583 46.1792C1.08819 46.1038 0.947416 45.9923 0.847923 45.8561C0.748431 45.7199 0.6938 45.5639 0.68963 45.4041C0.564365 44.4562 1.42619 42.6701 4.26219 40.7702C8.03016 38.2427 11.0365 39.9024 11.1918 39.9909C11.5225 40.1763 18.7779 44.3088 21.7141 47.6199C24.7605 51.0531 22.7613 55.9397 22.6711 56.1462C22.6342 56.2367 22.5618 56.3139 22.4657 56.3652C19.9411 57.5724 17.0924 58.219 14.1882 58.244ZM3.35527 44.6037C3.4552 44.6035 3.55292 44.6284 3.63586 44.6753C3.73813 44.7248 3.81631 44.8031 3.85665 44.8964C3.89698 44.9896 3.89687 45.0918 3.85633 45.185C3.03228 47.2703 2.99727 49.5191 3.75612 51.6218C4.9787 54.9919 6.94787 57.035 13.3965 57.3762C16.3245 57.4682 19.2266 56.8855 21.7893 55.6912C22.0799 54.8866 23.3726 50.8552 20.9174 48.0875C18.0814 44.8901 10.7158 40.6986 10.6407 40.6565C10.5304 40.5975 8.08026 39.2621 4.89853 41.4021C1.7168 43.5421 1.52139 45.1934 1.73684 45.4209C2.23901 45.2942 2.69095 45.0555 3.04461 44.7301C3.12709 44.6583 3.23718 44.6135 3.35527 44.6037Z" fill="#093F68"/>
<path d="M28.0425 50.2403C27.6567 52.1907 26.0382 53.7915 24.1593 54.8994C23.1872 55.4807 21.9446 56.4791 20.6969 55.9189C20.1776 55.6515 19.7441 55.2812 19.4343 54.8404C18.7032 53.8052 17.7757 52.8774 16.6885 52.0938C15.2955 51.2218 13.4165 51.2008 12.1138 50.1181C9.82895 48.2267 11.4073 45.598 11.4023 43.2811C11.4023 43.0241 11.4023 40.3786 10.9012 40.2986L20.1959 41.6045C25.3317 42.3291 28.9093 45.855 28.0425 50.2403Z" fill="white"/>
<path d="M21.4636 56.5085C21.1135 56.5078 20.7692 56.4339 20.4615 56.2937C19.8681 55.9944 19.3723 55.5761 19.0184 55.0763C18.3174 54.0819 17.4289 53.1899 16.3878 52.435C15.7889 52.0999 15.1359 51.8389 14.4487 51.6599C13.4553 51.4219 12.5377 51.0002 11.7631 50.4256C9.95424 48.9301 10.32 46.9965 10.6457 45.2904C10.7912 44.6285 10.8766 43.9581 10.9012 43.2853C10.9517 42.4042 10.8607 41.5214 10.6307 40.6608C10.5299 40.6099 10.4536 40.5309 10.4151 40.4375C10.3767 40.3441 10.3785 40.2423 10.4203 40.1499C10.4621 40.0575 10.5412 39.9804 10.6438 39.9321C10.7464 39.8838 10.8659 39.8674 10.9814 39.8857L20.2761 41.1916C22.8212 41.5105 25.1342 42.6142 26.7648 44.2878C27.5498 45.1305 28.1136 46.1033 28.4193 47.1423C28.7251 48.1813 28.7657 49.2629 28.5385 50.316C28.1728 52.1485 26.7197 53.901 24.4499 55.249L24.044 55.5017C23.3375 55.9441 22.4406 56.5085 21.4636 56.5085ZM11.723 40.8462C11.8666 41.6533 11.927 42.4694 11.9034 43.2853C11.8802 44.0021 11.7897 44.7162 11.6328 45.421C11.3221 47.0724 11.0265 48.6352 12.4645 49.8232C13.1381 50.3117 13.9321 50.6685 14.7895 50.8679C15.571 51.0729 16.3122 51.3738 16.9891 51.761C18.1243 52.5716 19.0912 53.5354 19.8502 54.6129C20.1165 54.9931 20.4877 55.3138 20.9325 55.5481C21.674 55.8809 22.4356 55.4596 23.4378 54.8277C23.5831 54.735 23.7284 54.6424 23.8687 54.5623C25.918 53.3449 27.2258 51.7862 27.5464 50.177C27.751 49.2401 27.717 48.2773 27.4466 47.3523C27.1763 46.4272 26.6758 45.5608 25.9781 44.8102C24.4997 43.3013 22.4065 42.3087 20.1057 42.0257L11.723 40.8462Z" fill="#093F68"/>
<path d="M16.9591 44.5194C17.4406 44.5194 17.8309 44.1913 17.8309 43.7865C17.8309 43.3816 17.4406 43.0535 16.9591 43.0535C16.4775 43.0535 16.0872 43.3816 16.0872 43.7865C16.0872 44.1913 16.4775 44.5194 16.9591 44.5194Z" fill="#093F68"/>
<path d="M17.7206 41.9286C17.7206 41.9286 21.9546 40.6185 22.0047 41.1366C21.9748 41.7214 21.8706 42.3018 21.694 42.868" fill="white"/>
<path d="M21.6941 43.2896C21.6541 43.2936 21.6138 43.2936 21.5738 43.2896C21.445 43.2627 21.3341 43.1939 21.2655 43.0983C21.1969 43.0027 21.1763 42.8882 21.208 42.7798C21.3395 42.3436 21.4349 41.9002 21.4936 41.4529C20.2668 41.6617 19.0633 41.9576 17.896 42.3375C17.8339 42.3569 17.7678 42.3658 17.7015 42.3636C17.6353 42.3614 17.5702 42.3482 17.5101 42.3246C17.4499 42.3011 17.396 42.2678 17.3513 42.2266C17.3066 42.1855 17.272 42.1372 17.2497 42.0848C17.2045 41.9797 17.2109 41.8639 17.2672 41.7628C17.3236 41.6617 17.4254 41.5836 17.5503 41.5455C21.4886 40.3281 22.0348 40.6188 22.2152 40.703C22.2962 40.7468 22.3641 40.8057 22.4136 40.8751C22.4631 40.9445 22.493 41.0226 22.5008 41.1032C22.4802 41.7336 22.3725 42.3599 22.1801 42.9694C22.1532 43.0607 22.0908 43.1419 22.0027 43.1999C21.9146 43.2579 21.806 43.2895 21.6941 43.2896Z" fill="#093F68"/>
<path d="M15.055 50.7837C15.055 50.7837 13.1009 52.4687 14.9197 53.7873C16.7386 55.1058 20.3913 54.5961 20.0155 51.2934" fill="white"/>
<path d="M17.1144 54.8741C16.1967 54.872 15.3094 54.5975 14.6091 54.099C14.3319 53.9147 14.1042 53.6831 13.941 53.4196C13.7777 53.156 13.6827 52.8664 13.6621 52.5698C13.6919 51.7834 14.0646 51.0338 14.7093 50.4635C14.8016 50.3831 14.9282 50.3368 15.0612 50.3348C15.1941 50.3328 15.3226 50.3753 15.4183 50.453C15.514 50.5306 15.569 50.637 15.5714 50.7488C15.5737 50.8606 15.5232 50.9686 15.4308 51.0491C14.9783 51.4485 14.707 51.9688 14.6642 52.5192C14.6791 52.7 14.7401 52.8759 14.843 53.035C14.9458 53.1942 15.0882 53.3329 15.2604 53.4418C15.6764 53.7374 16.1844 53.9266 16.7243 53.9871C17.2642 54.0475 17.8134 53.9767 18.3069 53.783C19.2339 53.3618 19.6698 52.4982 19.5345 51.306C19.5282 51.2507 19.535 51.1949 19.5544 51.1418C19.5738 51.0886 19.6055 51.0393 19.6476 50.9964C19.6897 50.9536 19.7414 50.9181 19.7998 50.8921C19.8582 50.8661 19.9222 50.85 19.988 50.8447C20.0538 50.8395 20.1201 50.8452 20.1833 50.8615C20.2465 50.8778 20.3053 50.9044 20.3562 50.9398C20.4071 50.9752 20.4493 51.0187 20.4803 51.0678C20.5112 51.1169 20.5304 51.1707 20.5366 51.226C20.712 52.7594 20.0706 53.9642 18.7729 54.5286C18.2616 54.7554 17.6924 54.8739 17.1144 54.8741Z" fill="#093F68"/>
<path d="M14.073 46.7018C13.9569 46.701 13.8417 46.6839 13.7323 46.6512C13.4825 46.5752 13.2789 46.4189 13.1661 46.2166C13.0534 46.0144 13.0408 45.7828 13.131 45.5728L14.4588 42.4892C14.5499 42.2786 14.7367 42.107 14.9782 42.0122C15.2197 41.9174 15.4961 41.9071 15.7465 41.9837C15.997 42.0602 16.2011 42.2173 16.3139 42.4203C16.4266 42.6233 16.4388 42.8557 16.3478 43.0663L15.02 46.1457C14.9497 46.3092 14.8209 46.4504 14.6514 46.55C14.4818 46.6495 14.2798 46.7026 14.073 46.7018Z" fill="#093F68"/>
<path d="M22.0699 47.7126C21.937 47.7126 21.8096 47.6683 21.7156 47.5893C21.6216 47.5103 21.5688 47.4031 21.5688 47.2914C21.5688 47.1797 21.6216 47.0725 21.7156 46.9935C21.8096 46.9145 21.937 46.8701 22.0699 46.8701C22.3622 46.8806 22.6539 46.8394 22.9261 46.749C23.1983 46.6587 23.4448 46.5214 23.6498 46.3458C23.8548 46.1703 24.0137 45.9605 24.1161 45.7301C24.2186 45.4997 24.2623 45.2537 24.2445 45.0082C24.2445 44.8964 24.2973 44.7893 24.3913 44.7103C24.4852 44.6313 24.6127 44.5869 24.7456 44.5869C24.8784 44.5869 25.0059 44.6313 25.0999 44.7103C25.1938 44.7893 25.2466 44.8964 25.2466 45.0082C25.2506 45.4603 25.136 45.9076 24.9109 46.3183C24.6583 46.7585 24.2592 47.1277 23.7621 47.3812C23.265 47.6347 22.6911 47.7615 22.11 47.7464L22.0699 47.7126Z" fill="#093F68"/>
<path d="M32.9929 43.3146L34.0953 42.9566C35.8509 42.3458 37.7808 42.1804 39.647 42.4805C41.4508 42.826 43.0091 43.7443 44.7929 44.1319C46.5767 44.5194 48.5208 44.1319 50.4148 44.2161L58.6722 44.5236L58.0158 58.6653H33.1132C31.3112 58.6653 29.583 58.0635 28.3088 56.9922C27.0347 55.9209 26.3188 54.468 26.3188 52.953V49.2965C26.3188 45.9264 29.696 44.4183 32.9929 43.3146Z" fill="#DFEAEF"/>
<path d="M58.0158 59.0866H33.1132C31.1787 59.0855 29.3239 58.4389 27.956 57.2889C26.5881 56.1389 25.8191 54.5794 25.8177 52.9531V49.2966C25.8177 45.7706 29.1798 44.1572 32.8075 42.9398L33.9199 42.5775C35.7665 41.9367 37.7965 41.7667 39.7572 42.0888C40.7163 42.297 41.6467 42.5892 42.5331 42.9608C43.2974 43.2793 44.0939 43.5402 44.9131 43.7402C46.0248 43.9268 47.1644 43.9652 48.2903 43.8539C49.0054 43.808 49.7229 43.794 50.4398 43.8118L58.6923 44.1193C58.8252 44.1193 58.9526 44.1637 59.0466 44.2427C59.1405 44.3217 59.1933 44.4288 59.1933 44.5406L58.5169 58.6653C58.5169 58.7771 58.4641 58.8842 58.3701 58.9632C58.2762 59.0422 58.1487 59.0866 58.0158 59.0866ZM37.9283 42.746C36.6824 42.7603 35.4499 42.9644 34.2907 43.3484L33.1933 43.7065C29.3753 44.9702 26.8349 46.4236 26.8349 49.2797V52.9362C26.8309 54.3399 27.4899 55.6874 28.6672 56.6827C29.8445 57.678 31.4436 58.2396 33.1132 58.2441H57.5298L58.1511 44.9407L50.3947 44.6501C49.7128 44.636 49.0304 44.6515 48.3504 44.6964C47.1218 44.8138 45.8788 44.7669 44.6676 44.5574C43.7899 44.3395 42.9366 44.0576 42.1172 43.7149C41.2924 43.3693 40.4278 43.0955 39.5368 42.8977C39.0087 42.7982 38.4694 42.7474 37.9283 42.746Z" fill="#093F68"/>
<path d="M83.0338 58.6485H58.0159L58.6723 44.5237L83.0338 45.9433V58.6485Z" fill="#6C859C"/>
<path d="M83.0239 59.0864H58.016C57.9485 59.0862 57.8817 59.0745 57.8197 59.0521C57.7577 59.0296 57.7018 58.9969 57.6552 58.9558C57.6084 58.9151 57.5719 58.8669 57.5478 58.8141C57.5237 58.7612 57.5125 58.7049 57.5149 58.6483L58.1713 44.5235C58.1735 44.4669 58.1893 44.4112 58.2177 44.3598C58.2461 44.3084 58.2866 44.2624 58.3366 44.2244C58.3869 44.1869 58.4456 44.1582 58.5093 44.1401C58.573 44.122 58.6404 44.1149 58.7074 44.1191L83.069 45.543C83.1957 45.5504 83.3143 45.5981 83.4008 45.6763C83.4873 45.7545 83.5352 45.8574 83.5349 45.9642V58.6652C83.5349 58.7212 83.5217 58.7767 83.4959 58.8283C83.4701 58.88 83.4322 58.9268 83.3847 58.9661C83.3371 59.0053 83.2806 59.0361 83.2187 59.0568C83.1567 59.0775 83.0905 59.0875 83.0239 59.0864ZM58.527 58.2439H82.5228V46.3391L59.1433 44.9743L58.527 58.2439Z" fill="#093F68"/>
<path d="M29.344 28.4094L37.815 29.4332L33.8939 52.3666C33.7324 53.3111 33.1313 54.1629 32.2228 54.7347C31.3143 55.3065 30.1729 55.5515 29.0495 55.4157C27.9262 55.28 26.913 54.7746 26.2329 54.0108C25.5528 53.247 25.2614 52.2873 25.4229 51.3429L29.344 28.4094Z" fill="white"/>
<path d="M29.6559 55.8936C29.4262 55.8941 29.1967 55.88 28.9695 55.8514C27.7157 55.6982 26.5855 55.1332 25.8265 54.2803C25.0676 53.4274 24.7419 52.3563 24.9209 51.3019L28.8442 28.3349C28.8628 28.2243 28.933 28.1244 29.0391 28.0573C29.1453 27.9901 29.2789 27.9612 29.4104 27.9768L37.8833 29.0005C37.9486 29.0082 38.0114 29.0267 38.0682 29.0549C38.1249 29.0831 38.1745 29.1204 38.214 29.1647C38.2541 29.2095 38.2831 29.2604 38.2995 29.3147C38.3158 29.3689 38.3191 29.4254 38.3092 29.4807L34.3809 52.4308C34.2206 53.3894 33.6546 54.2671 32.7867 54.9032C31.9188 55.5392 30.8073 55.8908 29.6559 55.8936ZM29.7662 28.8909L25.903 51.4198C25.8306 51.8331 25.8558 52.2542 25.977 52.6593C26.0982 53.0644 26.3132 53.4454 26.6095 53.7807C26.9059 54.1159 27.2779 54.3988 27.7044 54.6131C28.1308 54.8275 28.6032 54.9691 29.0947 55.03C29.5863 55.0908 30.0872 55.0697 30.5691 54.9678C31.0509 54.8659 31.5041 54.6852 31.9028 54.436C32.3016 54.1868 32.638 53.874 32.893 53.5155C33.148 53.157 33.3165 52.7598 33.3888 52.3466L37.247 29.8135L29.7662 28.8909Z" fill="#093F68"/>
<path d="M35.6236 32.9728C46.142 32.9728 54.6689 25.8039 54.6689 16.9608C54.6689 8.11756 46.142 0.94873 35.6236 0.94873C25.1051 0.94873 16.5783 8.11756 16.5783 16.9608C16.5783 25.8039 25.1051 32.9728 35.6236 32.9728Z" fill="#DFEAEF"/>
<path d="M35.6236 33.3899C31.7586 33.3899 27.9805 32.4263 24.767 30.6211C21.5534 28.8158 19.0488 26.25 17.5697 23.2479C16.0907 20.2459 15.7037 16.9426 16.4577 13.7557C17.2117 10.5687 19.0728 7.64136 21.8057 5.34371C24.5386 3.04606 28.0206 1.48134 31.8112 0.847426C35.6019 0.213507 39.531 0.538856 43.1017 1.78233C46.6724 3.02581 49.7243 5.13157 51.8716 7.83331C54.0188 10.5351 55.1649 13.7115 55.1649 16.9608C55.1569 21.316 53.0956 25.4909 49.4326 28.5705C45.7696 31.6501 40.8038 33.3832 35.6236 33.3899ZM35.6236 1.37426C31.9568 1.37426 28.3725 2.2884 25.3237 4.00107C22.275 5.71374 19.8987 8.14803 18.4956 10.9961C17.0924 13.8442 16.7252 16.9781 17.4406 20.0016C18.1559 23.0251 19.9216 25.8023 22.5144 27.9822C25.1071 30.162 28.4105 31.6465 32.0067 32.2479C35.603 32.8493 39.3306 32.5406 42.7182 31.3609C46.1058 30.1812 49.0012 28.1834 51.0383 25.6202C53.0755 23.057 54.1628 20.0435 54.1628 16.9608C54.1561 12.8287 52.2008 8.86745 48.7254 5.94561C45.2501 3.02377 40.5384 1.37983 35.6236 1.37426Z" fill="#093F68"/>
<path d="M35.6236 29.3122C43.7372 29.3122 50.3146 23.7823 50.3146 16.9609C50.3146 10.1395 43.7372 4.60962 35.6236 4.60962C27.5099 4.60962 20.9325 10.1395 20.9325 16.9609C20.9325 23.7823 27.5099 29.3122 35.6236 29.3122Z" fill="white"/>
<path d="M35.6235 29.7376C32.6176 29.7384 29.6789 28.9898 27.1791 27.5864C24.6793 26.183 22.7306 24.1878 21.5796 21.8532C20.4286 19.5186 20.127 16.9495 20.7128 14.4708C21.2986 11.9921 22.7456 9.71509 24.8708 7.9278C26.9959 6.14052 29.7038 4.92323 32.6519 4.4299C35.6 3.93656 38.6559 4.18934 41.4331 5.15626C44.2103 6.12318 46.5841 7.7608 48.2542 9.86202C49.9243 11.9632 50.8157 14.4337 50.8157 16.9608C50.8117 20.3477 49.21 23.5949 46.3619 25.9902C43.5139 28.3855 39.652 29.7331 35.6235 29.7376ZM35.6235 5.03082C32.8156 5.02998 30.0705 5.72931 27.7353 7.04034C25.4002 8.35137 23.58 10.2152 22.505 12.3961C21.43 14.5769 21.1485 16.9769 21.696 19.2923C22.2436 21.6077 23.5956 23.7346 25.5811 25.4038C27.5667 27.0731 30.0964 28.2098 32.8505 28.6702C35.6045 29.1305 38.459 28.8939 41.0531 27.9901C43.6471 27.0863 45.864 25.556 47.4234 23.5927C48.9828 21.6295 49.8146 19.3216 49.8136 16.9608C49.8096 13.7978 48.3133 10.7653 45.653 8.52873C42.9927 6.29214 39.3858 5.03416 35.6235 5.03082Z" fill="#093F68"/>
<path d="M35.6236 19.2779C37.1456 19.2779 38.3794 18.2406 38.3794 16.961C38.3794 15.6814 37.1456 14.644 35.6236 14.644C34.1016 14.644 32.8677 15.6814 32.8677 16.961C32.8677 18.2406 34.1016 19.2779 35.6236 19.2779Z" fill="#093F68"/>
<path d="M35.6235 19.7033C34.9782 19.7041 34.347 19.544 33.81 19.2432C33.2729 18.9423 32.854 18.5143 32.6064 18.0133C32.3587 17.5123 32.2934 16.9607 32.4187 16.4285C32.544 15.8962 32.8543 15.4072 33.3102 15.0232C33.7662 14.6393 34.3474 14.3777 34.9803 14.2715C35.6132 14.1654 36.2693 14.2194 36.8656 14.4269C37.462 14.6343 37.9717 14.9858 38.3303 15.4369C38.689 15.8879 38.8804 16.4183 38.8804 16.9609C38.8791 17.6872 38.5357 18.3834 37.9253 18.8973C37.315 19.4113 36.4874 19.7011 35.6235 19.7033ZM35.6235 15.0694C35.1762 15.0686 34.7386 15.1794 34.3662 15.3879C33.9938 15.5963 33.7034 15.893 33.5317 16.2403C33.3601 16.5876 33.3149 16.97 33.4019 17.3389C33.489 17.7079 33.7043 18.0468 34.0206 18.3127C34.337 18.5787 34.7401 18.7597 35.1789 18.8329C35.6177 18.9061 36.0725 18.8681 36.4856 18.7238C36.8988 18.5794 37.2516 18.3353 37.4996 18.0222C37.7475 17.7091 37.8793 17.3412 37.8783 16.9651C37.8783 16.462 37.6409 15.9794 37.2182 15.6232C36.7955 15.267 36.222 15.0663 35.6235 15.0652V15.0694Z" fill="#093F68"/>
<path d="M86.5763 76.5857V81.7335H102.034C102.189 81.7337 102.339 81.6918 102.463 81.6141C102.587 81.5364 102.678 81.427 102.722 81.3023C102.766 81.1777 102.761 81.0444 102.707 80.9224C102.654 80.8004 102.555 80.6963 102.425 80.6256L95.0492 76.5857H86.5763Z" fill="#DFEAEF"/>
<path d="M102.034 82.1548H86.5763C86.4435 82.1548 86.316 82.1105 86.2221 82.0315C86.1281 81.9525 86.0753 81.8453 86.0753 81.7336V76.5858C86.0753 76.4741 86.1281 76.3669 86.2221 76.2879C86.316 76.2089 86.4435 76.1646 86.5763 76.1646H95.0493C95.1453 76.1648 95.2392 76.1882 95.3198 76.232L102.715 80.2718C102.936 80.3918 103.104 80.5686 103.196 80.7757C103.287 80.9829 103.296 81.2093 103.222 81.4211C103.147 81.6329 102.993 81.8189 102.783 81.9511C102.572 82.0833 102.317 82.1548 102.054 82.1548H102.034ZM87.0774 81.3123H102.034C102.081 81.3152 102.128 81.3035 102.166 81.2795C102.204 81.2555 102.23 81.2207 102.239 81.1817C102.256 81.1446 102.256 81.1036 102.239 81.0664C102.223 81.0293 102.191 80.9984 102.149 80.9795L94.8789 77.0071H87.0774V81.3123Z" fill="#093F68"/>
<path d="M8.29067 58.6653H79.6065C81.1108 58.6653 82.5535 59.1677 83.6172 60.062C84.6809 60.9563 85.2785 62.1692 85.2785 63.4339V64.0827C85.2785 64.6659 85.0029 65.2252 84.5124 65.6376C84.0219 66.05 83.3567 66.2816 82.663 66.2816H5.2342C4.54052 66.2816 3.87525 66.05 3.38474 65.6376C2.89423 65.2252 2.61867 64.6659 2.61867 64.0827V63.4339C2.61867 62.1692 3.21626 60.9563 4.27996 60.062C5.34367 59.1677 6.78636 58.6653 8.29067 58.6653Z" fill="#093F68"/>
<path d="M82.6631 66.6693H5.2343C4.40813 66.6682 3.61619 66.3918 3.032 65.9006C2.44781 65.4095 2.11903 64.7437 2.11771 64.0491V63.4003C2.1296 62.0301 2.78506 60.7193 3.94131 59.7535C5.09755 58.7877 6.66089 58.2452 8.29076 58.2441H79.6066C81.243 58.2464 82.8116 58.7939 83.9687 59.7667C85.1258 60.7395 85.777 62.0583 85.7797 63.434V64.0828C85.7678 64.7715 85.4344 65.4287 84.8514 65.9126C84.2683 66.3965 83.4824 66.6683 82.6631 66.6693ZM8.29076 59.0867C6.91975 59.0878 5.60528 59.5462 4.63582 60.3612C3.66637 61.1763 3.12115 62.2814 3.11983 63.434V64.0828C3.11983 64.5543 3.3426 65.0064 3.73914 65.3398C4.13568 65.6732 4.67351 65.8605 5.2343 65.8605H82.6631C82.9408 65.8605 83.2157 65.8145 83.4723 65.7252C83.7288 65.6358 83.9619 65.5049 84.1582 65.3398C84.3546 65.1747 84.5103 64.9788 84.6166 64.7631C84.7229 64.5474 84.7776 64.3162 84.7776 64.0828V63.434C84.7762 62.2814 84.231 61.1763 83.2616 60.3612C82.2921 59.5462 80.9776 59.0878 79.6066 59.0867H8.29076Z" fill="#093F68"/>
<path d="M16.9591 66.2649H12.0187V79.5472H16.9591V66.2649Z" fill="#093F68"/>
<path d="M16.9591 79.9728H12.0186C11.8858 79.9728 11.7583 79.9284 11.6643 79.8494C11.5704 79.7704 11.5176 79.6632 11.5176 79.5515V66.2482C11.5176 66.1364 11.5704 66.0293 11.6643 65.9503C11.7583 65.8713 11.8858 65.8269 12.0186 65.8269H16.9591C17.092 65.8269 17.2194 65.8713 17.3134 65.9503C17.4074 66.0293 17.4602 66.1364 17.4602 66.2482V79.5347C17.4629 79.5914 17.4519 79.648 17.4279 79.7011C17.404 79.7541 17.3675 79.8026 17.3207 79.8435C17.2739 79.8844 17.2177 79.917 17.1556 79.9392C17.0935 79.9614 17.0266 79.9728 16.9591 79.9728ZM12.5197 79.1303H16.458V66.6694H12.5197V79.1303Z" fill="#093F68"/>
<path d="M18.1666 79.5513H10.1546C9.4047 79.5513 8.79676 80.0624 8.79676 80.6929V80.6971C8.79676 81.3276 9.4047 81.8387 10.1546 81.8387H18.1666C18.9165 81.8387 19.5244 81.3276 19.5244 80.6971V80.6929C19.5244 80.0624 18.9165 79.5513 18.1666 79.5513Z" fill="#093F68"/>
<path d="M18.1666 82.2558H10.1496C9.89705 82.2668 9.64445 82.2345 9.4072 82.1609C9.16996 82.0872 8.95303 81.9737 8.76962 81.8273C8.5862 81.6809 8.44015 81.5046 8.34034 81.3093C8.24054 81.1139 8.18907 80.9035 8.18907 80.6909C8.18907 80.4782 8.24054 80.2678 8.34034 80.0724C8.44015 79.8771 8.5862 79.7008 8.76962 79.5544C8.95303 79.408 9.16996 79.2945 9.4072 79.2208C9.64445 79.1472 9.89705 79.1149 10.1496 79.1259H18.1666C18.6436 79.1467 19.0928 79.3207 19.4217 79.6119C19.7506 79.9031 19.9339 80.2893 19.9339 80.6909C19.9339 81.0924 19.7506 81.4786 19.4217 81.7698C19.0928 82.0611 18.6436 82.235 18.1666 82.2558ZM10.1496 79.9684C10.0313 79.9608 9.9123 79.9738 9.80021 80.0067C9.68812 80.0395 9.58531 80.0915 9.49823 80.1593C9.41115 80.2272 9.34168 80.3094 9.29417 80.4009C9.24666 80.4923 9.22213 80.5911 9.22213 80.6909C9.22213 80.7907 9.24666 80.8894 9.29417 80.9808C9.34168 81.0723 9.41115 81.1545 9.49823 81.2224C9.58531 81.2902 9.68812 81.3422 9.80021 81.375C9.9123 81.4079 10.0313 81.4209 10.1496 81.4133H18.1666C18.3832 81.3994 18.5855 81.3172 18.7331 81.1833C18.8807 81.0493 18.9627 80.8735 18.9627 80.6909C18.9627 80.5082 18.8807 80.3324 18.7331 80.1984C18.5855 80.0645 18.3832 79.9823 18.1666 79.9684H10.1496Z" fill="#093F68"/>
<path d="M74.4957 66.2649H69.5553V79.5472H74.4957V66.2649Z" fill="#093F68"/>
<path d="M74.5058 79.9728H69.5604C69.4275 79.9728 69.3 79.9284 69.2061 79.8494C69.1121 79.7704 69.0593 79.6632 69.0593 79.5515V66.2482C69.0593 66.1364 69.1121 66.0293 69.2061 65.9503C69.3 65.8713 69.4275 65.8269 69.5604 65.8269H74.5058C74.6387 65.8269 74.7662 65.8713 74.8601 65.9503C74.9541 66.0293 75.0069 66.1364 75.0069 66.2482V79.5347C75.0096 79.5914 74.9986 79.648 74.9747 79.7011C74.9507 79.7541 74.9142 79.8026 74.8674 79.8435C74.8206 79.8844 74.7645 79.917 74.7023 79.9392C74.6402 79.9614 74.5733 79.9728 74.5058 79.9728ZM70.0614 79.1303H74.0048V66.6694H70.0614V79.1303Z" fill="#093F68"/>
<path d="M75.7083 79.5513H67.6964C66.9464 79.5513 66.3385 80.0624 66.3385 80.6929V80.6971C66.3385 81.3276 66.9464 81.8387 67.6964 81.8387H75.7083C76.4582 81.8387 77.0662 81.3276 77.0662 80.6971V80.6929C77.0662 80.0624 76.4582 79.5513 75.7083 79.5513Z" fill="#093F68"/>
<path d="M75.7034 82.2558H67.6864C67.2094 82.235 66.7601 82.0611 66.4313 81.7698C66.1024 81.4786 65.9191 81.0924 65.9191 80.6909C65.9191 80.2893 66.1024 79.9031 66.4313 79.6119C66.7601 79.3207 67.2094 79.1467 67.6864 79.1259H75.7034C75.9559 79.1149 76.2085 79.1472 76.4458 79.2208C76.683 79.2945 76.9 79.408 77.0834 79.5544C77.2668 79.7008 77.4128 79.8771 77.5126 80.0724C77.6124 80.2678 77.6639 80.4782 77.6639 80.6909C77.6639 80.9035 77.6124 81.1139 77.5126 81.3093C77.4128 81.5046 77.2668 81.6809 77.0834 81.8273C76.9 81.9737 76.683 82.0872 76.4458 82.1609C76.2085 82.2345 75.9559 82.2668 75.7034 82.2558ZM67.6864 79.9684C67.4698 79.9823 67.2675 80.0645 67.1199 80.1984C66.9723 80.3324 66.8902 80.5082 66.8902 80.6909C66.8902 80.8735 66.9723 81.0493 67.1199 81.1833C67.2675 81.3172 67.4698 81.3994 67.6864 81.4133H75.7034C75.8217 81.4209 75.9407 81.4079 76.0528 81.375C76.1649 81.3422 76.2677 81.2902 76.3548 81.2224C76.4418 81.1545 76.5113 81.0723 76.5588 80.9808C76.6063 80.8894 76.6309 80.7907 76.6309 80.6909C76.6309 80.5911 76.6063 80.4923 76.5588 80.4009C76.5113 80.3094 76.4418 80.2272 76.3548 80.1593C76.2677 80.0915 76.1649 80.0395 76.0528 80.0067C75.9407 79.9738 75.8217 79.9608 75.7034 79.9684H67.6864Z" fill="#093F68"/>
<path d="M94.6634 79.9728C94.5399 79.9737 94.4203 79.9362 94.3277 79.8675C94.278 79.8306 94.2375 79.7858 94.2086 79.7357C94.1797 79.6855 94.1628 79.6311 94.1591 79.5754C94.1554 79.5198 94.1648 79.4641 94.1869 79.4116C94.2089 79.359 94.2432 79.3107 94.2876 79.2693L96.4121 77.2683C96.5005 77.1845 96.6248 77.1337 96.7578 77.127C96.8907 77.1203 97.0214 77.1582 97.1211 77.2325C97.2208 77.3068 97.2813 77.4114 97.2892 77.5232C97.2972 77.6349 97.2521 77.7448 97.1637 77.8286L95.0492 79.8296C95.0012 79.8756 94.9418 79.9123 94.8751 79.937C94.8085 79.9617 94.7362 79.974 94.6634 79.9728Z" fill="#093F68"/>
</svg>
